<svg width="576" height="237" viewBox="0 0 576 237" fill="none" xmlns="http://www.w3.org/2000/svg">
<path d="M103.695 233V182.987H0.668945V145.978C9.33777 132.197 17.4509 117.638 25.0083 102.301C32.5658 86.9636 39.5675 70.7374 46.0136 53.622C52.6819 36.5066 58.2388 18.7244 62.6844 0.275391H110.363C107.918 10.9447 104.473 22.1697 100.027 33.9504C95.8037 45.7311 90.9136 57.4007 85.3567 68.9591C79.7997 80.5176 74.1317 91.4092 68.3524 101.634C62.7955 111.636 57.4608 120.528 52.3485 128.307C47.2361 136.087 42.9017 141.977 39.3452 145.978H103.695V90.6312C105.917 86.4079 108.14 81.8512 110.363 76.9611C112.808 71.8487 115.142 66.7364 117.365 61.624C119.587 56.2893 121.588 51.0658 123.366 45.9534C125.367 40.841 126.923 36.0621 128.034 31.6165H149.373V145.978H178.713V182.987H149.373V233H103.695Z" fill="#F3F6FB"/>
<path d="M289.301 237.001C275.519 237.001 263.405 235 252.958 230.999C242.511 226.776 233.731 220.108 226.618 210.994C219.728 201.659 214.504 189.434 210.948 174.319C207.614 159.204 205.947 140.644 205.947 118.638C205.947 96.4104 207.614 77.8502 210.948 62.9576C214.504 47.8428 219.728 35.6175 226.618 26.2819C233.731 16.9462 242.511 10.2779 252.958 6.27689C263.405 2.27589 275.519 0.275391 289.301 0.275391C303.304 0.275391 315.418 2.27589 325.643 6.27689C335.868 10.2779 344.425 16.9462 351.316 26.2819C358.429 35.6175 363.652 47.8428 366.987 62.9576C370.543 77.8502 372.321 96.4104 372.321 118.638C372.321 140.644 370.543 159.204 366.987 174.319C363.652 189.434 358.429 201.659 351.316 210.994C344.425 220.108 335.868 226.776 325.643 230.999C315.418 235 303.304 237.001 289.301 237.001ZM289.301 200.992C299.081 200.992 306.527 198.436 311.639 193.323C316.752 187.989 320.308 179.987 322.309 169.317C324.309 158.648 325.31 145.311 325.31 129.307V108.636C325.31 92.4094 324.309 78.9616 322.309 68.2923C320.308 57.4007 316.752 49.2876 311.639 43.9529C306.527 38.6183 299.081 35.9509 289.301 35.9509C279.52 35.9509 271.963 38.6183 266.628 43.9529C261.516 49.2876 257.959 57.2896 255.959 67.9589C253.958 78.4059 252.958 91.7426 252.958 107.969V128.641C252.958 144.867 253.958 158.426 255.959 169.317C257.959 179.987 261.516 187.989 266.628 193.323C271.963 198.436 279.52 200.992 289.301 200.992Z" fill="#F3F6FB"/>
<path d="M500.929 233V182.987H397.903V145.978C406.572 132.197 414.685 117.638 422.243 102.301C429.8 86.9636 436.802 70.7374 443.248 53.622C449.916 36.5066 455.473 18.7244 459.919 0.275391H507.597C505.152 10.9447 501.707 22.1697 497.261 33.9504C493.038 45.7311 488.148 57.4007 482.591 68.9591C477.034 80.5176 471.366 91.4092 465.587 101.634C460.03 111.636 454.695 120.528 449.583 128.307C444.47 136.087 440.136 141.977 436.579 145.978H500.929V90.6312C503.152 86.4079 505.374 81.8512 507.597 76.9611C510.042 71.8487 512.376 66.7364 514.599 61.624C516.822 56.2893 518.822 51.0658 520.6 45.9534C522.601 40.841 524.157 36.0621 525.268 31.6165H546.607V145.978H575.947V182.987H546.607V233H500.929Z" fill="#F3F6FB"/>
</svg>
