<svg width="44" height="44" viewBox="0 0 44 44" fill="none" xmlns="http://www.w3.org/2000/svg">
<path d="M40.5625 37.125H32.3125C31.933 37.125 31.625 36.817 31.625 36.4375V29.5625C31.625 29.183 31.933 28.875 32.3125 28.875H40.5625C40.942 28.875 41.25 29.183 41.25 29.5625V36.4375C41.25 36.817 40.942 37.125 40.5625 37.125ZM33 35.75H39.875V30.25H33V35.75Z" fill="#FE4B4B"/>
<path d="M25.4375 37.125H17.1875C16.808 37.125 16.5 36.817 16.5 36.4375V29.5625C16.5 29.183 16.808 28.875 17.1875 28.875H25.4375C25.817 28.875 26.125 29.183 26.125 29.5625V36.4375C26.125 36.817 25.817 37.125 25.4375 37.125ZM17.875 35.75H24.75V30.25H17.875V35.75Z" fill="#FE4B4B"/>
<path d="M40.5625 39.875H32.3125C31.933 39.875 31.625 39.567 31.625 39.1875C31.625 38.808 31.933 38.5 32.3125 38.5H40.5625C40.942 38.5 41.25 38.808 41.25 39.1875C41.25 39.567 40.942 39.875 40.5625 39.875Z" fill="#4B4E60"/>
<path d="M25.4375 39.875H17.1875C16.808 39.875 16.5 39.567 16.5 39.1875C16.5 38.808 16.808 38.5 17.1875 38.5H25.4375C25.817 38.5 26.125 38.808 26.125 39.1875C26.125 39.567 25.817 39.875 25.4375 39.875Z" fill="#4B4E60"/>
<path d="M10.3125 39.875H2.0625C1.683 39.875 1.375 39.567 1.375 39.1875C1.375 38.808 1.683 38.5 2.0625 38.5H10.3125C10.692 38.5 11 38.808 11 39.1875C11 39.567 10.692 39.875 10.3125 39.875Z" fill="#4B4E60"/>
<path d="M10.3125 37.125H2.0625C1.683 37.125 1.375 36.817 1.375 36.4375V29.5625C1.375 29.183 1.683 28.875 2.0625 28.875H10.3125C10.692 28.875 11 29.183 11 29.5625V36.4375C11 36.817 10.692 37.125 10.3125 37.125ZM2.75 35.75H9.625V30.25H2.75V35.75Z" fill="#FE4B4B"/>
<path d="M36.4375 16.5H6.1875C5.808 16.5 5.5 16.192 5.5 15.8125V4.8125C5.5 4.433 5.808 4.125 6.1875 4.125H36.4375C36.817 4.125 37.125 4.433 37.125 4.8125V15.8125C37.125 16.192 36.817 16.5 36.4375 16.5ZM6.875 15.125H35.75V5.5H6.875V15.125Z" fill="#4B4E60"/>
<path d="M21.3125 20.625C20.933 20.625 20.625 20.317 20.625 19.9375V15.8125C20.625 15.433 20.933 15.125 21.3125 15.125C21.692 15.125 22 15.433 22 15.8125V19.9375C22 20.317 21.692 20.625 21.3125 20.625Z" fill="#4B4E60"/>
<path d="M21.3125 27.5C20.933 27.5 20.625 27.192 20.625 26.8125V22.6875C20.625 22.308 20.933 22 21.3125 22C21.692 22 22 22.308 22 22.6875V26.8125C22 27.192 21.692 27.5 21.3125 27.5Z" fill="#4B4E60"/>
<path d="M36.4375 27.5C36.058 27.5 35.75 27.192 35.75 26.8125V23.375H6.875V26.8125C6.875 27.192 6.567 27.5 6.1875 27.5C5.808 27.5 5.5 27.192 5.5 26.8125V22.6875C5.5 22.308 5.808 22 6.1875 22H36.4375C36.817 22 37.125 22.308 37.125 22.6875V26.8125C37.125 27.192 36.817 27.5 36.4375 27.5Z" fill="#4B4E60"/>
<path d="M30.9375 12.375H11.6875C11.308 12.375 11 12.067 11 11.6875C11 11.308 11.308 11 11.6875 11H30.9375C31.317 11 31.625 11.308 31.625 11.6875C31.625 12.067 31.317 12.375 30.9375 12.375Z" fill="#FE4B4B"/>
<path d="M30.9375 9.625H11.6875C11.308 9.625 11 9.317 11 8.9375C11 8.558 11.308 8.25 11.6875 8.25H30.9375C31.317 8.25 31.625 8.558 31.625 8.9375C31.625 9.317 31.317 9.625 30.9375 9.625Z" fill="#FE4B4B"/>
</svg>
