<svg width="80" height="80" viewBox="0 0 80 80" fill="none" xmlns="http://www.w3.org/2000/svg">
<path d="M75 43.75V8.75C75 8.0625 74.4375 7.5 73.75 7.5H16.25C15.5625 7.5 15 8.0625 15 8.75V18.75C15 19.44 14.44 20 13.75 20C13.06 20 12.5 19.44 12.5 18.75V8.75C12.5 6.6825 14.1825 5 16.25 5H73.75C75.8175 5 77.5 6.6825 77.5 8.75V43.75C77.5 44.44 76.94 45 76.25 45C75.56 45 75 44.44 75 43.75Z" fill="#4B4E60"/>
<path d="M76.25 17.5H13.75C13.06 17.5 12.5 16.94 12.5 16.25V8.75C12.5 6.6825 14.1825 5 16.25 5H73.75C75.8175 5 77.5 6.6825 77.5 8.75V16.25C77.5 16.94 76.94 17.5 76.25 17.5ZM15 15H75V8.75C75 8.0625 74.4375 7.5 73.75 7.5H16.25C15.5625 7.5 15 8.0625 15 8.75V15Z" fill="#4B4E60"/>
<path d="M6.25 75C4.1825 75 2.5 73.3175 2.5 71.25V26.25C2.5 24.1825 4.1825 22.5 6.25 22.5H63.75C65.8175 22.5 67.5 24.1825 67.5 26.25V38.75C67.5 39.44 66.94 40 66.25 40C65.56 40 65 39.44 65 38.75V26.25C65 25.5625 64.4375 25 63.75 25H6.25C5.5625 25 5 25.5625 5 26.25V71.25C5 71.9375 5.5625 72.5 6.25 72.5H63.75C64.4375 72.5 65 71.9375 65 71.25C65 71.25 65 70.97 65 70.625C65 70.28 65.56 70 66.25 70C66.94 70 67.5 70.28 67.5 70.625V71.25C67.5 73.3175 65.8175 75 63.75 75H6.25Z" fill="#4B4E60"/>
<path d="M66.25 35H3.75C3.06 35 2.5 34.44 2.5 33.75V26.25C2.5 24.1825 4.1825 22.5 6.25 22.5H63.75C65.8175 22.5 67.5 24.1825 67.5 26.25V33.75C67.5 34.44 66.94 35 66.25 35ZM5 32.5H65V26.25C65 25.5625 64.4375 25 63.75 25H6.25C5.5625 25 5 25.5625 5 26.25V32.5Z" fill="#4B4E60"/>
<path d="M65 67.5C58.1075 67.5 52.5 61.8925 52.5 55C52.5 48.1075 58.1075 42.5 65 42.5C71.8925 42.5 77.5 48.1075 77.5 55C77.5 61.8925 71.8925 67.5 65 67.5ZM65 45C59.4875 45 55 49.4875 55 55C55 60.5125 59.4875 65 65 65C70.5125 65 75 60.5125 75 55C75 49.4875 70.5125 45 65 45Z" fill="#FE4B4B"/>
<path d="M28.75 12.5C29.4404 12.5 30 11.9404 30 11.25C30 10.5596 29.4404 10 28.75 10C28.0596 10 27.5 10.5596 27.5 11.25C27.5 11.9404 28.0596 12.5 28.75 12.5Z" fill="#FE4B4B"/>
<path d="M23.75 12.5C24.4404 12.5 25 11.9404 25 11.25C25 10.5596 24.4404 10 23.75 10C23.0596 10 22.5 10.5596 22.5 11.25C22.5 11.9404 23.0596 12.5 23.75 12.5Z" fill="#FE4B4B"/>
<path d="M18.75 12.5C19.4404 12.5 20 11.9404 20 11.25C20 10.5596 19.4404 10 18.75 10C18.0596 10 17.5 10.5596 17.5 11.25C17.5 11.9404 18.0596 12.5 18.75 12.5Z" fill="#FE4B4B"/>
<path d="M18.75 30C19.4404 30 20 29.4404 20 28.75C20 28.0596 19.4404 27.5 18.75 27.5C18.0596 27.5 17.5 28.0596 17.5 28.75C17.5 29.4404 18.0596 30 18.75 30Z" fill="#FE4B4B"/>
<path d="M13.75 30C14.4404 30 15 29.4404 15 28.75C15 28.0596 14.4404 27.5 13.75 27.5C13.0596 27.5 12.5 28.0596 12.5 28.75C12.5 29.4404 13.0596 30 13.75 30Z" fill="#FE4B4B"/>
<path d="M8.75 30C9.44036 30 10 29.4404 10 28.75C10 28.0596 9.44036 27.5 8.75 27.5C8.05964 27.5 7.5 28.0596 7.5 28.75C7.5 29.4404 8.05964 30 8.75 30Z" fill="#FE4B4B"/>
<path d="M52.5 66.25C52.5 66.9375 51.9375 67.5 51.25 67.5H46.25C45.5625 67.5 45 66.9375 45 66.25C45 65.5625 45.5625 65 46.25 65H51.25C51.9375 65 52.5 65.5625 52.5 66.25Z" fill="#4B4E60"/>
<path d="M42.5 66.25C42.5 66.9375 41.9375 67.5 41.25 67.5H26.25C25.5625 67.5 25 66.9375 25 66.25C25 65.5625 25.5625 65 26.25 65H41.25C41.9375 65 42.5 65.5625 42.5 66.25Z" fill="#4B4E60"/>
<path d="M22.5 66.25C22.5 66.9375 21.9375 67.5 21.25 67.5H13.75C13.0625 67.5 12.5 66.9375 12.5 66.25C12.5 65.5625 13.0625 65 13.75 65H21.25C21.9375 65 22.5 65.5625 22.5 66.25Z" fill="#4B4E60"/>
<path d="M50 61.25C50 61.9375 49.4375 62.5 48.75 62.5H31.25C30.5625 62.5 30 61.9375 30 61.25C30 60.5625 30.5625 60 31.25 60H48.75C49.4375 60 50 60.5625 50 61.25Z" fill="#4B4E60"/>
<path d="M27.5 61.25C27.5 61.9375 26.9375 62.5 26.25 62.5H13.75C13.0625 62.5 12.5 61.9375 12.5 61.25C12.5 60.5625 13.0625 60 13.75 60H26.25C26.9375 60 27.5 60.5625 27.5 61.25Z" fill="#4B4E60"/>
<path d="M17.5 56.25C17.5 56.9375 16.9375 57.5 16.25 57.5H8.75C8.0625 57.5 7.5 56.9375 7.5 56.25C7.5 55.5625 8.0625 55 8.75 55H16.25C16.9375 55 17.5 55.5625 17.5 56.25Z" fill="#4B4E60"/>
<path d="M47.5 51.25C47.5 51.9375 46.9375 52.5 46.25 52.5H31.25C30.5625 52.5 30 51.9375 30 51.25C30 50.5625 30.5625 50 31.25 50H46.25C46.9375 50 47.5 50.5625 47.5 51.25Z" fill="#4B4E60"/>
<path d="M27.5 51.25C27.5 51.9375 26.9375 52.5 26.25 52.5H21.25C20.5625 52.5 20 51.9375 20 51.25C20 50.5625 20.5625 50 21.25 50H26.25C26.9375 50 27.5 50.5625 27.5 51.25Z" fill="#4B4E60"/>
<path d="M17.5 51.25C17.5 51.9375 16.9375 52.5 16.25 52.5H13.75C13.0625 52.5 12.5 51.9375 12.5 51.25C12.5 50.5625 13.0625 50 13.75 50H16.25C16.9375 50 17.5 50.5625 17.5 51.25Z" fill="#4B4E60"/>
<path d="M47.5 46.25C47.5 46.9375 46.9375 47.5 46.25 47.5H43.75C43.0625 47.5 42.5 46.9375 42.5 46.25C42.5 45.5625 43.0625 45 43.75 45H46.25C46.9375 45 47.5 45.5625 47.5 46.25Z" fill="#4B4E60"/>
<path d="M40 46.25C40 46.9375 39.4375 47.5 38.75 47.5H28.75C28.0625 47.5 27.5 46.9375 27.5 46.25C27.5 45.5625 28.0625 45 28.75 45H38.75C39.4375 45 40 45.5625 40 46.25Z" fill="#4B4E60"/>
<path d="M25 46.25C25 46.9375 24.4375 47.5 23.75 47.5H13.75C13.0625 47.5 12.5 46.9375 12.5 46.25C12.5 45.5625 13.0625 45 13.75 45H23.75C24.4375 45 25 45.5625 25 46.25Z" fill="#4B4E60"/>
<path d="M17.5 41.25C17.5 41.9375 16.9375 42.5 16.25 42.5H8.75C8.0625 42.5 7.5 41.9375 7.5 41.25C7.5 40.5625 8.0625 40 8.75 40H16.25C16.9375 40 17.5 40.5625 17.5 41.25Z" fill="#4B4E60"/>
</svg>
