<svg width="45" height="45" viewBox="0 0 45 45" fill="none" xmlns="http://www.w3.org/2000/svg">
<path d="M38.3792 39.2328C38.1907 39.2328 38.0065 39.1568 37.8743 39.019L35.9126 36.987C35.6426 36.7071 35.6496 36.2614 35.9295 35.9928C36.2107 35.7242 36.6579 35.7298 36.9237 36.0096L38.022 37.1487L39.5323 31.5293L33.8623 32.8428L34.9606 33.9818C35.2306 34.2617 35.2236 34.7075 34.9437 34.9761C34.6639 35.2461 34.2167 35.239 33.9495 34.9592L31.9878 32.9271C31.8106 32.7443 31.7473 32.4814 31.819 32.2395C31.8907 31.9962 32.0876 31.8106 32.3351 31.7529L40.3564 29.8967C40.5968 29.8404 40.85 29.9164 41.0201 30.0936C41.1917 30.2721 41.2578 30.5267 41.1931 30.7657L39.0556 38.7167C38.9909 38.9614 38.7982 39.1526 38.5536 39.2145C38.4973 39.2271 38.4382 39.2328 38.3792 39.2328Z" fill="#4B4E60"/>
<path d="M23.7712 42.1509C23.6573 42.1509 23.5433 42.1495 23.4294 42.148C18.7002 42.0651 14.1904 40.2454 10.731 37.0251C10.4469 36.7607 10.4315 36.3149 10.6958 36.0309C10.9602 35.7482 11.406 35.7299 11.6901 35.9957C14.8949 38.9798 19.0729 40.6659 23.4548 40.7418C28.0208 40.8023 32.3943 39.1626 35.758 36.0674C36.0449 35.8073 36.4907 35.8255 36.7523 36.1082C37.0152 36.3937 36.9969 36.8395 36.7115 37.1024C33.1649 40.3649 28.5805 42.1509 23.7712 42.1509Z" fill="#4B4E60"/>
<path d="M8.63014 35.2056C8.44592 35.2056 8.26592 35.1324 8.13233 35.0002L2.31467 29.1741C2.13467 28.9941 2.06577 28.734 2.13467 28.4893C2.20217 28.2446 2.39623 28.0562 2.64092 27.9943L5.3817 27.3123C5.7628 27.2195 6.13967 27.4473 6.23389 27.8241C6.3267 28.2024 6.09748 28.5835 5.72202 28.6763L4.18498 29.0574L8.29686 33.1749L9.99702 27.609L8.45858 27.9901C8.07608 28.0787 7.70061 27.8509 7.6078 27.4768C7.51498 27.0999 7.7442 26.7188 8.12108 26.626L10.8619 25.9454C11.1023 25.8849 11.3681 25.9595 11.5397 26.1451C11.714 26.3279 11.7773 26.5909 11.7028 26.8327L9.29952 34.7077C9.22639 34.944 9.03514 35.1254 8.79748 35.1859C8.74405 35.1985 8.68639 35.2056 8.63014 35.2056Z" fill="#4B4E60"/>
<path d="M5.56875 28.4948C5.24672 28.4948 4.95563 28.2726 4.8825 27.945C3.80672 23.1299 4.61391 18.149 7.15359 13.919C9.59344 9.85917 13.4283 6.86245 17.9522 5.48011C18.3277 5.36761 18.7172 5.57714 18.8311 5.94698C18.9436 6.31964 18.7355 6.71198 18.3642 6.82589C14.1736 8.10558 10.62 10.8829 8.36016 14.6446C6.00609 18.5624 5.25938 23.1764 6.25641 27.637C6.34078 28.0167 6.10313 28.3921 5.72344 28.4779C5.67 28.4892 5.61797 28.4948 5.56875 28.4948Z" fill="#4B4E60"/>
<path d="M26.7933 11.6478C26.6007 11.6478 26.4136 11.5677 26.28 11.4242L20.6621 5.40687C20.4933 5.22687 20.4314 4.97093 20.5003 4.73328C20.5678 4.49562 20.7563 4.3114 20.9953 4.24672L28.9491 2.12047C29.191 2.05718 29.4553 2.1275 29.6311 2.3075C29.8097 2.4889 29.8758 2.75047 29.8055 2.99375L29.025 5.70922C28.9182 6.08328 28.5258 6.30265 28.156 6.19156C27.7819 6.08468 27.5667 5.69375 27.6736 5.3225L28.111 3.80234L22.4902 5.30422L26.46 9.55812L26.8988 8.03656C27.0042 7.66109 27.3966 7.44172 27.7678 7.55422C28.1419 7.66109 28.3571 8.05203 28.2502 8.42328L27.4697 11.1387C27.3994 11.3834 27.2053 11.5705 26.9592 11.6295C26.903 11.6408 26.8482 11.6478 26.7933 11.6478Z" fill="#4B4E60"/>
<path d="M41.1257 27.2742C41.0821 27.2742 41.0386 27.27 40.995 27.2615C40.6139 27.1912 40.3621 26.8228 40.4339 26.4417C41.1834 22.4128 40.5 18.2137 38.5073 14.6207C36.2911 10.6228 32.67 7.66965 28.3078 6.30277C27.9365 6.18605 27.7312 5.7923 27.8465 5.42105C27.9632 5.0498 28.3612 4.84449 28.7282 4.9598C33.4364 6.43636 37.3457 9.62433 39.7378 13.9401C41.8865 17.8186 42.6262 22.3495 41.8162 26.7004C41.7529 27.0379 41.4562 27.2742 41.1257 27.2742Z" fill="#4B4E60"/>
<path d="M24.2858 33.6935H21.7559C21.4255 33.6935 21.14 33.4643 21.0697 33.1408L20.6534 31.2382C20.0684 31.068 19.5073 30.8346 18.9744 30.5407L17.3347 31.5911C17.0562 31.7683 16.6934 31.7304 16.4586 31.4969L14.6712 29.7096C14.4378 29.4761 14.3984 29.1119 14.577 28.8335L15.6261 27.1938C15.3322 26.658 15.0987 26.0969 14.93 25.5147L13.0287 25.0985C12.7067 25.0282 12.4761 24.7427 12.4761 24.4122V21.8838C12.4761 21.5547 12.7053 21.2679 13.0287 21.1975L14.93 20.7799C15.0987 20.1991 15.3322 19.6366 15.6261 19.1022L14.577 17.4625C14.3984 17.1855 14.4378 16.8199 14.6712 16.5864L16.4586 14.7977C16.6934 14.5643 17.0562 14.5263 17.3347 14.7035L18.9758 15.7539C19.5101 15.4614 20.0712 15.228 20.6534 15.0579L21.0697 13.1566C21.14 12.8332 21.4255 12.6025 21.7559 12.6025H24.2858C24.6162 12.6025 24.9017 12.8318 24.972 13.1566L25.3883 15.0579C25.9705 15.228 26.5315 15.4614 27.0659 15.7539L28.7084 14.7049C28.9869 14.5249 29.3497 14.5643 29.5845 14.7991L31.3719 16.5864C31.6053 16.8199 31.6447 17.1855 31.4661 17.4625L30.4156 19.1022C30.7095 19.638 30.943 20.1991 31.1131 20.7813L33.0158 21.1975C33.3378 21.2679 33.5684 21.5533 33.5684 21.8838V24.4122C33.5684 24.7427 33.3378 25.0282 33.0144 25.0985L31.1117 25.5147C30.943 26.0969 30.7095 26.658 30.4156 27.1938L31.4661 28.8335C31.6447 29.1105 31.6053 29.4747 31.3719 29.7096L29.5845 31.4997C29.3511 31.7346 28.9855 31.7711 28.7084 31.5939L27.0659 30.5421C26.533 30.8346 25.9719 31.068 25.3883 31.2382L24.972 33.1408C24.9017 33.4643 24.6162 33.6935 24.2858 33.6935ZM22.3212 32.2872H23.719L24.1058 30.5196C24.1634 30.2552 24.3687 30.0471 24.6317 29.9852C25.3672 29.8108 26.0675 29.5211 26.7115 29.1218C26.9422 28.9797 27.2319 28.9797 27.4611 29.1274L28.9883 30.1047L29.9755 29.1161L28.9981 27.5904C28.8519 27.3625 28.8505 27.0714 28.9925 26.8422C29.3933 26.1925 29.6844 25.4922 29.8545 24.7596C29.9164 24.4952 30.1245 24.2913 30.3903 24.2336L32.1594 23.8469V22.4505L30.3917 22.0638C30.1273 22.0061 29.9192 21.8008 29.8573 21.5379C29.6844 20.8052 29.3933 20.1035 28.9925 19.4552C28.849 19.226 28.8519 18.9349 28.9981 18.7071L29.9755 17.1813L28.9883 16.1941L27.4611 17.17C27.2333 17.3149 26.9408 17.3177 26.713 17.1771C26.0647 16.7763 25.3644 16.4852 24.6317 16.3122C24.3673 16.2504 24.1634 16.0436 24.1058 15.7793L23.719 14.0102H22.3212L21.9345 15.7793C21.8769 16.0436 21.6715 16.2504 21.4086 16.3122C20.6759 16.4852 19.9742 16.7763 19.3273 17.1771C19.0981 17.3191 18.8056 17.3149 18.5792 17.17L17.0534 16.1941L16.0662 17.1827L17.0422 18.7071C17.1884 18.9349 17.1898 19.226 17.0478 19.4552C16.6456 20.1063 16.3559 20.8052 16.1858 21.5364C16.1239 21.8008 15.9158 22.0047 15.6514 22.0624L13.8837 22.4505V23.8469L15.6514 24.2336C15.9158 24.2913 16.1239 24.4966 16.1858 24.7596C16.3559 25.4922 16.647 26.1939 17.0478 26.8394C17.1912 27.07 17.1884 27.3611 17.0422 27.5889L16.0662 29.1147L17.0534 30.1033L18.5792 29.126C18.8084 28.9797 19.1023 28.9797 19.3287 29.1204C19.9728 29.5197 20.6717 29.8108 21.4086 29.9852C21.673 30.0471 21.8769 30.2538 21.9345 30.5196L22.3212 32.2872ZM23.0201 28.0699C20.3061 28.0699 18.0983 25.8621 18.0983 23.148C18.0983 20.4339 20.3061 18.2261 23.0201 18.2261C25.7342 18.2261 27.942 20.4339 27.942 23.148C27.942 23.5361 27.627 23.8511 27.2389 23.8511C26.8508 23.8511 26.5358 23.5361 26.5358 23.148C26.5358 21.2088 24.9594 19.6324 23.0201 19.6324C21.0809 19.6324 19.5045 21.2088 19.5045 23.148C19.5045 25.0872 21.0809 26.6636 23.0201 26.6636C23.4083 26.6636 23.7233 26.9786 23.7233 27.3668C23.7233 27.7549 23.4083 28.0699 23.0201 28.0699Z" fill="#FE4B4B"/>
<path d="M25.8325 26.6636C26.2208 26.6636 26.5356 26.3488 26.5356 25.9604C26.5356 25.5721 26.2208 25.2573 25.8325 25.2573C25.4442 25.2573 25.1294 25.5721 25.1294 25.9604C25.1294 26.3488 25.4442 26.6636 25.8325 26.6636Z" fill="#FE4B4B"/>
</svg>
