<svg width="80" height="80" viewBox="0 0 80 80" fill="none" xmlns="http://www.w3.org/2000/svg">
<path d="M18.75 12.5C19.4404 12.5 20 11.9404 20 11.25C20 10.5596 19.4404 10 18.75 10C18.0596 10 17.5 10.5596 17.5 11.25C17.5 11.9404 18.0596 12.5 18.75 12.5Z" fill="#4B4E60"/>
<path d="M13.75 12.5C14.4404 12.5 15 11.9404 15 11.25C15 10.5596 14.4404 10 13.75 10C13.0596 10 12.5 10.5596 12.5 11.25C12.5 11.9404 13.0596 12.5 13.75 12.5Z" fill="#4B4E60"/>
<path d="M8.75 12.5C9.44036 12.5 10 11.9404 10 11.25C10 10.5596 9.44036 10 8.75 10C8.05964 10 7.5 10.5596 7.5 11.25C7.5 11.9404 8.05964 12.5 8.75 12.5Z" fill="#4B4E60"/>
<path d="M76.25 17.5H3.75C3.06 17.5 2.5 16.94 2.5 16.25C2.5 15.56 3.06 15 3.75 15H76.25C76.94 15 77.5 15.56 77.5 16.25C77.5 16.94 76.94 17.5 76.25 17.5Z" fill="#4B4E60"/>
<path d="M76.25 65C75.56 65 75 64.44 75 63.75V8.75C75 8.0625 74.44 7.5 73.75 7.5H6.25C5.56 7.5 5 8.0625 5 8.75V63.75C5 64.44 4.44 65 3.75 65C3.06 65 2.5 64.44 2.5 63.75V8.75C2.5 6.6825 4.1825 5 6.25 5H73.75C75.8175 5 77.5 6.6825 77.5 8.75V63.75C77.5 64.44 76.94 65 76.25 65Z" fill="#4B4E60"/>
<path d="M76.25 72.5C76.9404 72.5 77.5 71.9404 77.5 71.25C77.5 70.5596 76.9404 70 76.25 70C75.5596 70 75 70.5596 75 71.25C75 71.9404 75.5596 72.5 76.25 72.5Z" fill="#4B4E60"/>
<path d="M3.75 72.5C4.44036 72.5 5 71.9404 5 71.25C5 70.5596 4.44036 70 3.75 70C3.05964 70 2.5 70.5596 2.5 71.25C2.5 71.9404 3.05964 72.5 3.75 72.5Z" fill="#4B4E60"/>
<path d="M71.25 70H44.8225C44.9275 70.4025 45 70.815 45 71.25C45 71.685 44.9275 72.0975 44.8225 72.5H71.25C71.94 72.5 72.5 71.94 72.5 71.25C72.5 70.56 71.94 70 71.25 70Z" fill="#4B4E60"/>
<path d="M35 71.25C35 70.815 35.0725 70.4025 35.1775 70H8.75C8.06 70 7.5 70.56 7.5 71.25C7.5 71.94 8.06 72.5 8.75 72.5H35.1775C35.0725 72.0975 35 71.685 35 71.25Z" fill="#4B4E60"/>
<path d="M40 77.5C36.555 77.5 33.75 74.6975 33.75 71.25C33.75 67.8025 36.555 65 40 65C43.445 65 46.25 67.8025 46.25 71.25C46.25 74.6975 43.445 77.5 40 77.5ZM40 67.5C37.9325 67.5 36.25 69.1825 36.25 71.25C36.25 73.3175 37.9325 75 40 75C42.0675 75 43.75 73.3175 43.75 71.25C43.75 69.1825 42.0675 67.5 40 67.5Z" fill="#4B4E60"/>
<path d="M40 61.25C28.9725 61.25 20 52.2775 20 41.25C20 30.2225 28.9725 21.25 40 21.25C51.0275 21.25 60 30.2225 60 41.25C60 52.2775 51.0275 61.25 40 61.25ZM40 23.75C30.3525 23.75 22.5 31.6025 22.5 41.25C22.5 50.8975 30.3525 58.75 40 58.75C49.6475 58.75 57.5 50.8975 57.5 41.25C57.5 31.6025 49.6475 23.75 40 23.75Z" fill="#FE4B4B"/>
<path d="M26.9575 55.805C26.495 55.805 26.055 55.5475 25.835 55.1075C25.5325 54.4875 25.785 53.7375 26.4075 53.4325C34.9625 49.2325 45.1375 48.8825 53.9575 52.4775C54.5975 52.7375 54.905 53.4675 54.645 54.105C54.385 54.745 53.65 55.05 53.015 54.79C44.85 51.4675 35.4325 51.79 27.5125 55.675C27.3325 55.765 27.1425 55.805 26.9575 55.805Z" fill="#FE4B4B"/>
<path d="M41.25 32.5C37.6675 32.5 34.14 31.94 30.7675 30.84C30.1125 30.625 29.7525 29.92 29.9675 29.2625C30.1825 28.605 30.8825 28.25 31.545 28.4625C38.3525 30.6875 45.9175 30.4825 52.585 27.88C53.225 27.625 53.9525 27.9475 54.2025 28.59C54.4525 29.2325 54.1375 29.9575 53.4925 30.2075C49.5925 31.7275 45.4725 32.5 41.25 32.5Z" fill="#FE4B4B"/>
<path d="M39.9975 61.2025C39.755 61.2025 39.5125 61.1325 39.3025 60.99C32.695 56.565 28.75 49.185 28.75 41.25C28.75 33.31 32.695 25.93 39.3025 21.51C39.725 21.2275 40.2725 21.2275 40.695 21.51C47.3075 25.935 51.2525 33.315 51.2525 41.25C51.2525 49.185 47.3075 56.565 40.695 60.99C40.4825 61.1325 40.24 61.2025 39.9975 61.2025ZM39.9975 24.07C34.505 28.0725 31.25 34.43 31.25 41.25C31.25 48.0675 34.505 54.4275 39.9975 58.43C45.4925 54.425 48.75 48.065 48.75 41.25C48.75 34.43 45.4925 28.0725 39.9975 24.07Z" fill="#FE4B4B"/>
<path d="M57.7075 42.6025H26.3025C25.6125 42.6025 25.0525 42.0425 25.0525 41.3525C25.0525 40.6625 25.6125 40.1025 26.3025 40.1025H57.7075C58.3975 40.1025 58.9575 40.6625 58.9575 41.3525C58.9575 42.0425 58.3975 42.6025 57.7075 42.6025Z" fill="#FE4B4B"/>
</svg>
