<svg width="44" height="44" viewBox="0 0 44 44" fill="none" xmlns="http://www.w3.org/2000/svg">
<path d="M19.0992 35.7968L17.1742 34.0863C16.2117 33.22 15.4692 32.1475 15.0017 30.9375L12.2379 23.3063C12.0042 22.66 12.3067 21.945 12.9254 21.6562C13.2554 21.505 13.5854 21.4363 13.9292 21.4363C14.7954 21.4363 15.6342 21.9189 16.0604 22.7425L18.5904 27.83C19.4429 27.1975 19.9379 26.1938 19.9379 25.1488V8.9375C19.9379 7.79625 20.8592 6.875 22.0004 6.875C23.1417 6.875 24.0629 7.79625 24.0629 8.9375V19.9375C24.0629 18.7963 24.9842 17.875 26.1254 17.875C27.2667 17.875 28.1879 18.7963 28.1879 19.9375V20.625C28.1879 19.4838 29.1092 18.5625 30.2504 18.5625C31.3917 18.5625 32.3129 19.4838 32.3129 20.625V22C32.3129 20.8588 33.2342 19.9375 34.3754 19.9375C35.5167 19.9375 36.4379 20.8588 36.4379 22V33.1238C36.4379 34.0519 36.1588 34.9566 35.6487 35.7239" stroke="#4B4E60" stroke-width="1.375" stroke-miterlimit="10" stroke-linecap="round" stroke-linejoin="round"/>
<path d="M18.5629 41.9375V37.8125H36.4379V41.9375" stroke="#4B4E60" stroke-width="1.375" stroke-miterlimit="10" stroke-linecap="round" stroke-linejoin="round"/>
<path d="M14.4061 7.61898C14.4267 7.82523 14.4377 8.03698 14.4377 8.2501C14.4377 11.6587 11.6753 14.4211 8.2667 14.4211C4.85808 14.4211 2.0957 11.6587 2.0957 8.2501C2.0957 4.84148 4.85945 2.0791 8.2667 2.0791C9.35708 2.0791 10.3828 2.36373 11.2725 2.8601" stroke="#4B4E60" stroke-width="1.375" stroke-miterlimit="10" stroke-linecap="round" stroke-linejoin="round"/>
<path d="M14.1806 3.90723L8.26672 9.8211L5.41772 6.9721" stroke="#4B4E60" stroke-width="1.375" stroke-miterlimit="10" stroke-linecap="round" stroke-linejoin="round"/>
<path d="M35.7502 14.4375C39.1675 14.4375 41.9377 11.6673 41.9377 8.25C41.9377 4.83274 39.1675 2.0625 35.7502 2.0625C32.333 2.0625 29.5627 4.83274 29.5627 8.25C29.5627 11.6673 32.333 14.4375 35.7502 14.4375Z" stroke="#4B4E60" stroke-width="1.375" stroke-miterlimit="10"/>
<path d="M37.8127 10.3125L33.6877 6.1875" stroke="#4B4E60" stroke-width="1.375" stroke-miterlimit="10" stroke-linecap="round" stroke-linejoin="round"/>
<path d="M37.8127 6.1875L33.6877 10.3125" stroke="#4B4E60" stroke-width="1.375" stroke-miterlimit="10" stroke-linecap="round" stroke-linejoin="round"/>
<path d="M19.0992 35.7968L17.1742 34.0863C16.2117 33.22 15.4692 32.1475 15.0017 30.9375L12.2379 23.3063C12.0042 22.66 12.3067 21.945 12.9254 21.6562C13.2554 21.505 13.5854 21.4363 13.9292 21.4363C14.7954 21.4363 15.6342 21.9189 16.0604 22.7425L18.5904 27.83C19.4429 27.1975 19.9379 26.1938 19.9379 25.1488V8.9375C19.9379 7.79625 20.8592 6.875 22.0004 6.875C23.1417 6.875 24.0629 7.79625 24.0629 8.9375V19.9375C24.0629 18.7963 24.9842 17.875 26.1254 17.875C27.2667 17.875 28.1879 18.7963 28.1879 19.9375V20.625C28.1879 19.4838 29.1092 18.5625 30.2504 18.5625C31.3917 18.5625 32.3129 19.4838 32.3129 20.625V22C32.3129 20.8588 33.2342 19.9375 34.3754 19.9375C35.5167 19.9375 36.4379 20.8588 36.4379 22V33.1238C36.4379 34.0519 36.1588 34.9566 35.6487 35.7239" stroke="#4B4E60" stroke-width="1.375" stroke-miterlimit="10" stroke-linecap="round" stroke-linejoin="round"/>
<path d="M18.5629 41.9375V37.8125H36.4379V41.9375" stroke="#4B4E60" stroke-width="1.375" stroke-miterlimit="10" stroke-linecap="round" stroke-linejoin="round"/>
<path d="M14.4061 7.61898C14.4267 7.82523 14.4377 8.03698 14.4377 8.2501C14.4377 11.6587 11.6753 14.4211 8.2667 14.4211C4.85808 14.4211 2.0957 11.6587 2.0957 8.2501C2.0957 4.84148 4.85945 2.0791 8.2667 2.0791C9.35708 2.0791 10.3828 2.36373 11.2725 2.8601" stroke="#4B4E60" stroke-width="1.375" stroke-miterlimit="10" stroke-linecap="round" stroke-linejoin="round"/>
<path d="M14.1806 3.90723L8.26672 9.8211L5.41772 6.9721" stroke="#4B4E60" stroke-width="1.375" stroke-miterlimit="10" stroke-linecap="round" stroke-linejoin="round"/>
<path d="M35.7502 14.4375C39.1675 14.4375 41.9377 11.6673 41.9377 8.25C41.9377 4.83274 39.1675 2.0625 35.7502 2.0625C32.333 2.0625 29.5627 4.83274 29.5627 8.25C29.5627 11.6673 32.333 14.4375 35.7502 14.4375Z" stroke="#FE4B4B" stroke-width="1.375" stroke-miterlimit="10" stroke-linecap="round" stroke-linejoin="round"/>
<path d="M37.8127 10.3125L33.6877 6.1875" stroke="#FE4B4B" stroke-width="1.375" stroke-miterlimit="10" stroke-linecap="round" stroke-linejoin="round"/>
<path d="M37.8127 6.1875L33.6877 10.3125" stroke="#FE4B4B" stroke-width="1.375" stroke-miterlimit="10" stroke-linecap="round" stroke-linejoin="round"/>
</svg>
