<svg width="44" height="44" viewBox="0 0 44 44" fill="none" xmlns="http://www.w3.org/2000/svg">
<path d="M10.3125 5.5C10.6922 5.5 11 5.1922 11 4.8125C11 4.4328 10.6922 4.125 10.3125 4.125C9.9328 4.125 9.625 4.4328 9.625 4.8125C9.625 5.1922 9.9328 5.5 10.3125 5.5Z" fill="#4B4E60"/>
<path d="M7.5625 5.5C7.9422 5.5 8.25 5.1922 8.25 4.8125C8.25 4.4328 7.9422 4.125 7.5625 4.125C7.1828 4.125 6.875 4.4328 6.875 4.8125C6.875 5.1922 7.1828 5.5 7.5625 5.5Z" fill="#4B4E60"/>
<path d="M4.8125 5.5C5.1922 5.5 5.5 5.1922 5.5 4.8125C5.5 4.4328 5.1922 4.125 4.8125 4.125C4.4328 4.125 4.125 4.4328 4.125 4.8125C4.125 5.1922 4.4328 5.5 4.8125 5.5Z" fill="#4B4E60"/>
<path d="M36.4375 8.25H2.0625C1.683 8.25 1.375 7.942 1.375 7.5625C1.375 7.183 1.683 6.875 2.0625 6.875H36.4375C36.817 6.875 37.125 7.183 37.125 7.5625C37.125 7.942 36.817 8.25 36.4375 8.25Z" fill="#4B4E60"/>
<path d="M35.0625 42.625H3.4375C2.30037 42.625 1.375 41.6996 1.375 40.5625V3.4375C1.375 2.30037 2.30037 1.375 3.4375 1.375H35.0625C36.1996 1.375 37.125 2.30037 37.125 3.4375V14.4375C37.125 14.817 36.817 15.125 36.4375 15.125C36.058 15.125 35.75 14.817 35.75 14.4375V3.4375C35.75 3.05938 35.4406 2.75 35.0625 2.75H3.4375C3.05938 2.75 2.75 3.05938 2.75 3.4375V40.5625C2.75 40.9406 3.05938 41.25 3.4375 41.25H35.0625C35.4406 41.25 35.75 40.9406 35.75 40.5625C35.75 40.183 36.058 39.875 36.4375 39.875C36.817 39.875 37.125 40.183 37.125 40.5625C37.125 41.6996 36.1996 42.625 35.0625 42.625Z" fill="#4B4E60"/>
<path d="M7.5625 28.875H6.1875C5.808 28.875 5.5 28.567 5.5 28.1875C5.5 27.808 5.808 27.5 6.1875 27.5H7.5625C7.942 27.5 8.25 27.808 8.25 28.1875C8.25 28.567 7.942 28.875 7.5625 28.875Z" fill="#4B4E60"/>
<path d="M7.5625 37.125H6.1875C5.808 37.125 5.5 36.817 5.5 36.4375C5.5 36.058 5.808 35.75 6.1875 35.75H7.5625C7.942 35.75 8.25 36.058 8.25 36.4375C8.25 36.817 7.942 37.125 7.5625 37.125Z" fill="#4B4E60"/>
<path d="M7.5625 34.375H6.1875C5.808 34.375 5.5 34.067 5.5 33.6875C5.5 33.308 5.808 33 6.1875 33H7.5625C7.942 33 8.25 33.308 8.25 33.6875C8.25 34.067 7.942 34.375 7.5625 34.375Z" fill="#4B4E60"/>
<path d="M7.5625 31.625H6.1875C5.808 31.625 5.5 31.317 5.5 30.9375C5.5 30.558 5.808 30.25 6.1875 30.25H7.5625C7.942 30.25 8.25 30.558 8.25 30.9375C8.25 31.317 7.942 31.625 7.5625 31.625Z" fill="#4B4E60"/>
<path d="M19.9375 34.375H10.3125C9.933 34.375 9.625 34.067 9.625 33.6875C9.625 33.308 9.933 33 10.3125 33H19.9375C20.317 33 20.625 33.308 20.625 33.6875C20.625 34.067 20.317 34.375 19.9375 34.375Z" fill="#4B4E60"/>
<path d="M13.0625 37.125H10.3125C9.933 37.125 9.625 36.817 9.625 36.4375C9.625 36.058 9.933 35.75 10.3125 35.75H13.0625C13.442 35.75 13.75 36.058 13.75 36.4375C13.75 36.817 13.442 37.125 13.0625 37.125Z" fill="#4B4E60"/>
<path d="M22.6875 37.125H19.9375C19.558 37.125 19.25 36.817 19.25 36.4375C19.25 36.058 19.558 35.75 19.9375 35.75H22.6875C23.067 35.75 23.375 36.058 23.375 36.4375C23.375 36.817 23.067 37.125 22.6875 37.125Z" fill="#4B4E60"/>
<path d="M18.5625 31.625H10.3125C9.933 31.625 9.625 31.317 9.625 30.9375C9.625 30.558 9.933 30.25 10.3125 30.25H18.5625C18.942 30.25 19.25 30.558 19.25 30.9375C19.25 31.317 18.942 31.625 18.5625 31.625Z" fill="#4B4E60"/>
<path d="M17.1875 37.125H15.8125C15.433 37.125 15.125 36.817 15.125 36.4375C15.125 36.058 15.433 35.75 15.8125 35.75H17.1875C17.567 35.75 17.875 36.058 17.875 36.4375C17.875 36.817 17.567 37.125 17.1875 37.125Z" fill="#4B4E60"/>
<path d="M7.5625 26.125H6.1875C5.808 26.125 5.5 25.817 5.5 25.4375C5.5 25.058 5.808 24.75 6.1875 24.75H7.5625C7.942 24.75 8.25 25.058 8.25 25.4375C8.25 25.817 7.942 26.125 7.5625 26.125Z" fill="#4B4E60"/>
<path d="M7.5625 23.375H6.1875C5.808 23.375 5.5 23.067 5.5 22.6875C5.5 22.308 5.808 22 6.1875 22H7.5625C7.942 22 8.25 22.308 8.25 22.6875C8.25 23.067 7.942 23.375 7.5625 23.375Z" fill="#4B4E60"/>
<path d="M7.5625 20.625H6.1875C5.808 20.625 5.5 20.317 5.5 19.9375C5.5 19.558 5.808 19.25 6.1875 19.25H7.5625C7.942 19.25 8.25 19.558 8.25 19.9375C8.25 20.317 7.942 20.625 7.5625 20.625Z" fill="#4B4E60"/>
<path d="M13.0625 17.875H10.3125C9.933 17.875 9.625 17.567 9.625 17.1875C9.625 16.808 9.933 16.5 10.3125 16.5H13.0625C13.442 16.5 13.75 16.808 13.75 17.1875C13.75 17.567 13.442 17.875 13.0625 17.875Z" fill="#4B4E60"/>
<path d="M24.0625 17.875H19.9375C19.558 17.875 19.25 17.567 19.25 17.1875C19.25 16.808 19.558 16.5 19.9375 16.5H24.0625C24.442 16.5 24.75 16.808 24.75 17.1875C24.75 17.567 24.442 17.875 24.0625 17.875Z" fill="#4B4E60"/>
<path d="M32.3125 15.125H25.4375C25.058 15.125 24.75 14.817 24.75 14.4375C24.75 14.058 25.058 13.75 25.4375 13.75H32.3125C32.692 13.75 33 14.058 33 14.4375C33 14.817 32.692 15.125 32.3125 15.125Z" fill="#4B4E60"/>
<path d="M19.25 23.375H10.3125C9.933 23.375 9.625 23.067 9.625 22.6875C9.625 22.308 9.933 22 10.3125 22H19.25C19.6295 22 19.9375 22.308 19.9375 22.6875C19.9375 23.067 19.6295 23.375 19.25 23.375Z" fill="#4B4E60"/>
<path d="M15.8125 28.875H10.3125C9.933 28.875 9.625 28.567 9.625 28.1875C9.625 27.808 9.933 27.5 10.3125 27.5H15.8125C16.192 27.5 16.5 27.808 16.5 28.1875C16.5 28.567 16.192 28.875 15.8125 28.875Z" fill="#4B4E60"/>
<path d="M22.6875 15.125H18.5625C18.183 15.125 17.875 14.817 17.875 14.4375C17.875 14.058 18.183 13.75 18.5625 13.75H22.6875C23.067 13.75 23.375 14.058 23.375 14.4375C23.375 14.817 23.067 15.125 22.6875 15.125Z" fill="#4B4E60"/>
<path d="M13.0625 26.125H10.3125C9.933 26.125 9.625 25.817 9.625 25.4375C9.625 25.058 9.933 24.75 10.3125 24.75H13.0625C13.442 24.75 13.75 25.058 13.75 25.4375C13.75 25.817 13.442 26.125 13.0625 26.125Z" fill="#4B4E60"/>
<path d="M18.5625 28.875C18.183 28.875 17.875 28.567 17.875 28.1875C17.875 27.808 18.183 27.5 18.5625 27.5C18.942 27.5 19.25 27.808 19.25 28.1875C19.25 28.567 18.942 28.875 18.5625 28.875Z" fill="#4B4E60"/>
<path d="M15.8125 15.125H10.3125C9.933 15.125 9.625 14.817 9.625 14.4375C9.625 14.058 9.933 13.75 10.3125 13.75H15.8125C16.192 13.75 16.5 14.058 16.5 14.4375C16.5 14.817 16.192 15.125 15.8125 15.125Z" fill="#4B4E60"/>
<path d="M7.5625 17.875H6.1875C5.808 17.875 5.5 17.567 5.5 17.1875C5.5 16.808 5.808 16.5 6.1875 16.5H7.5625C7.942 16.5 8.25 16.808 8.25 17.1875C8.25 17.567 7.942 17.875 7.5625 17.875Z" fill="#4B4E60"/>
<path d="M7.5625 15.125H6.1875C5.808 15.125 5.5 14.817 5.5 14.4375C5.5 14.058 5.808 13.75 6.1875 13.75H7.5625C7.942 13.75 8.25 14.058 8.25 14.4375C8.25 14.817 7.942 15.125 7.5625 15.125Z" fill="#4B4E60"/>
<path d="M7.5625 12.375H6.1875C5.808 12.375 5.5 12.067 5.5 11.6875C5.5 11.308 5.808 11 6.1875 11H7.5625C7.942 11 8.25 11.308 8.25 11.6875C8.25 12.067 7.942 12.375 7.5625 12.375Z" fill="#4B4E60"/>
<path d="M20.625 20.625H10.3125C9.933 20.625 9.625 20.317 9.625 19.9375C9.625 19.558 9.933 19.25 10.3125 19.25H20.625C21.0045 19.25 21.3125 19.558 21.3125 19.9375C21.3125 20.317 21.0045 20.625 20.625 20.625Z" fill="#4B4E60"/>
<path d="M18.5625 26.125H15.8125C15.433 26.125 15.125 25.817 15.125 25.4375C15.125 25.058 15.433 24.75 15.8125 24.75H18.5625C18.942 24.75 19.25 25.058 19.25 25.4375C19.25 25.817 18.942 26.125 18.5625 26.125Z" fill="#4B4E60"/>
<path d="M11.6875 12.375H10.3125C9.933 12.375 9.625 12.067 9.625 11.6875C9.625 11.308 9.933 11 10.3125 11H11.6875C12.067 11 12.375 11.308 12.375 11.6875C12.375 12.067 12.067 12.375 11.6875 12.375Z" fill="#4B4E60"/>
<path d="M17.1875 17.875H15.8125C15.433 17.875 15.125 17.567 15.125 17.1875C15.125 16.808 15.433 16.5 15.8125 16.5H17.1875C17.567 16.5 17.875 16.808 17.875 17.1875C17.875 17.567 17.567 17.875 17.1875 17.875Z" fill="#4B4E60"/>
<path d="M31.625 38.5C25.5599 38.5 20.625 33.5651 20.625 27.5C20.625 21.4349 25.5599 16.5 31.625 16.5C37.6901 16.5 42.625 21.4349 42.625 27.5C42.625 33.5651 37.6901 38.5 31.625 38.5ZM31.625 17.875C26.3189 17.875 22 22.1939 22 27.5C22 32.8061 26.3189 37.125 31.625 37.125C36.9311 37.125 41.25 32.8061 41.25 27.5C41.25 22.1939 36.9311 17.875 31.625 17.875Z" fill="#FE4B4B"/>
<path d="M30.9389 31.6249C30.8935 31.6249 30.8482 31.6208 30.8028 31.6111C30.4302 31.5369 30.1882 31.1753 30.2624 30.8026L31.6374 23.9276C31.713 23.5536 32.0912 23.3103 32.4459 23.3873C32.8185 23.4615 33.0605 23.8231 32.9863 24.1958L31.6113 31.0708C31.5453 31.3994 31.2593 31.6249 30.9389 31.6249Z" fill="#FE4B4B"/>
<path d="M35.0625 31.6249C34.8865 31.6249 34.7105 31.5576 34.5757 31.4242C34.3076 31.1561 34.3076 30.7202 34.5757 30.4521L37.5279 27.4999L34.5771 24.5492C34.309 24.2811 34.309 23.8452 34.5771 23.5771C34.8452 23.3089 35.2811 23.3089 35.5492 23.5771L38.9867 27.0146C39.2549 27.2827 39.2549 27.7186 38.9867 27.9867L35.5492 31.4242C35.4145 31.5576 35.2385 31.6249 35.0625 31.6249Z" fill="#FE4B4B"/>
<path d="M28.1875 31.6249C28.0115 31.6249 27.8355 31.5576 27.7007 31.4242L24.2632 27.9867C23.9951 27.7186 23.9951 27.2827 24.2632 27.0146L27.7007 23.5771C27.9689 23.3089 28.4047 23.3089 28.6729 23.5771C28.941 23.8452 28.941 24.2811 28.6729 24.5492L25.7221 27.4999L28.6729 30.4507C28.941 30.7188 28.941 31.1547 28.6729 31.4228C28.5395 31.5576 28.3635 31.6249 28.1875 31.6249Z" fill="#FE4B4B"/>
</svg>
