<svg width="80" height="80" viewBox="0 0 80 80" fill="none" xmlns="http://www.w3.org/2000/svg">
<path d="M18.75 12.5C19.4404 12.5 20 11.9404 20 11.25C20 10.5596 19.4404 10 18.75 10C18.0596 10 17.5 10.5596 17.5 11.25C17.5 11.9404 18.0596 12.5 18.75 12.5Z" fill="#4B4E60"/>
<path d="M13.75 12.5C14.4404 12.5 15 11.9404 15 11.25C15 10.5596 14.4404 10 13.75 10C13.0596 10 12.5 10.5596 12.5 11.25C12.5 11.9404 13.0596 12.5 13.75 12.5Z" fill="#4B4E60"/>
<path d="M8.75 12.5C9.44036 12.5 10 11.9404 10 11.25C10 10.5596 9.44036 10 8.75 10C8.05964 10 7.5 10.5596 7.5 11.25C7.5 11.9404 8.05964 12.5 8.75 12.5Z" fill="#4B4E60"/>
<path d="M76.25 17.5H3.75C3.06 17.5 2.5 16.94 2.5 16.25C2.5 15.56 3.06 15 3.75 15H76.25C76.94 15 77.5 15.56 77.5 16.25C77.5 16.94 76.94 17.5 76.25 17.5Z" fill="#4B4E60"/>
<path d="M3.75 55C3.06 55 2.5 54.44 2.5 53.75V8.75C2.5 6.6825 4.1825 5 6.25 5H73.75C75.8175 5 77.5 6.6825 77.5 8.75V31.25C77.5 31.94 76.94 32.5 76.25 32.5C75.56 32.5 75 31.94 75 31.25V8.75C75 8.0625 74.44 7.5 73.75 7.5H6.25C5.56 7.5 5 8.0625 5 8.75V53.75C5 54.44 4.44 55 3.75 55Z" fill="#4B4E60"/>
<path d="M55 77.5H26.25C25.56 77.5 25 76.94 25 76.25C25 75.56 25.56 75 26.25 75H28.75C30.8175 75 32.5 73.3175 32.5 71.25V68.75C32.5 68.06 33.06 67.5 33.75 67.5C34.44 67.5 35 68.06 35 68.75V71.25C35 72.6575 34.5325 73.955 33.7475 75H46.2525C45.4675 73.955 45 72.6575 45 71.25V63.75C45 63.06 45.56 62.5 46.25 62.5C46.94 62.5 47.5 63.06 47.5 63.75V71.25C47.5 73.3175 49.1825 75 51.25 75H55C55.69 75 56.25 75.56 56.25 76.25C56.25 76.94 55.69 77.5 55 77.5Z" fill="#4B4E60"/>
<path d="M46.25 65H6.25C4.1825 65 2.5 63.3175 2.5 61.25V53.75C2.5 53.06 3.06 52.5 3.75 52.5H38.75C39.44 52.5 40 53.06 40 53.75C40 54.44 39.44 55 38.75 55H5V61.25C5 61.9375 5.56 62.5 6.25 62.5H46.25C46.94 62.5 47.5 63.06 47.5 63.75C47.5 64.44 46.94 65 46.25 65Z" fill="#4B4E60"/>
<path d="M46.25 35H43.75C43.06 35 42.5 34.44 42.5 33.75C42.5 33.06 43.06 32.5 43.75 32.5H46.25C46.94 32.5 47.5 33.06 47.5 33.75C47.5 34.44 46.94 35 46.25 35Z" fill="#4B4E60"/>
<path d="M68.75 25H43.75C43.06 25 42.5 24.44 42.5 23.75C42.5 23.06 43.06 22.5 43.75 22.5H68.75C69.44 22.5 70 23.06 70 23.75C70 24.44 69.44 25 68.75 25Z" fill="#4B4E60"/>
<path d="M68.75 30H43.75C43.06 30 42.5 29.44 42.5 28.75C42.5 28.06 43.06 27.5 43.75 27.5H68.75C69.44 27.5 70 28.06 70 28.75C70 29.44 69.44 30 68.75 30Z" fill="#4B4E60"/>
<path d="M18.75 35H11.25C10.56 35 10 34.44 10 33.75C10 33.06 10.56 32.5 11.25 32.5H18.75C19.44 32.5 20 33.06 20 33.75C20 34.44 19.44 35 18.75 35Z" fill="#4B4E60"/>
<path d="M36.25 25H11.25C10.56 25 10 24.44 10 23.75C10 23.06 10.56 22.5 11.25 22.5H36.25C36.94 22.5 37.5 23.06 37.5 23.75C37.5 24.44 36.94 25 36.25 25Z" fill="#4B4E60"/>
<path d="M36.25 30H11.25C10.56 30 10 29.44 10 28.75C10 28.06 10.56 27.5 11.25 27.5H36.25C36.94 27.5 37.5 28.06 37.5 28.75C37.5 29.44 36.94 30 36.25 30Z" fill="#4B4E60"/>
<path d="M60 67.5C50.35 67.5 42.5 59.6475 42.5 50C42.5 40.3525 50.35 32.5 60 32.5C63.38 32.5 66.6575 33.465 69.48 35.2875C70.06 35.6625 70.225 36.435 69.85 37.015C69.475 37.59 68.705 37.765 68.1225 37.385C65.7075 35.825 62.8975 35 60 35C51.7275 35 45 41.7275 45 50C45 58.2725 51.7275 65 60 65C68.2725 65 75 58.2725 75 50C75 48.395 74.7475 46.8175 74.2525 45.3075C74.0375 44.65 74.395 43.945 75.05 43.73C75.705 43.51 76.4125 43.8725 76.6275 44.525C77.205 46.29 77.5 48.13 77.5 50C77.5 59.6475 69.65 67.5 60 67.5Z" fill="#FE4B4B"/>
<path d="M58.7501 56.7474C58.74 56.7474 58.7301 56.7474 58.7201 56.7474C58.3576 56.7374 58.02 56.5749 57.7875 56.2974L51.5375 48.7974C51.0975 48.2649 51.1701 47.4774 51.6976 47.0349C52.2301 46.5949 53.0151 46.6674 53.4601 47.1949L58.7926 53.5974L74.3301 36.4349C74.8001 35.9249 75.59 35.8949 76.095 36.3574C76.6026 36.8249 76.6376 37.6149 76.1701 38.1249L59.6701 56.3424C59.4326 56.6024 59.1026 56.7474 58.7501 56.7474Z" fill="#FE4B4B"/>
</svg>
