<svg width="74" height="74" viewBox="0 0 74 74" fill="none" xmlns="http://www.w3.org/2000/svg">
<path d="M37 71.6875C17.8733 71.6875 2.3125 56.1267 2.3125 37C2.3125 17.8733 17.8733 2.3125 37 2.3125C56.1267 2.3125 71.6875 17.8733 71.6875 37C71.6875 56.1267 56.1267 71.6875 37 71.6875ZM37 4.625C19.1475 4.625 4.625 19.1475 4.625 37C4.625 54.8525 19.1475 69.375 37 69.375C54.8525 69.375 69.375 54.8525 69.375 37C69.375 19.1475 54.8525 4.625 37 4.625Z" fill="#4B4E60"/>
<path d="M45.0938 55.5C44.4556 55.5 43.9376 54.982 43.9376 54.3437V35.8437C43.9376 35.2055 44.4556 34.6875 45.0938 34.6875H48.6435L37.0001 18.1924L25.3567 34.6875H28.9063C29.5446 34.6875 30.0626 35.2055 30.0626 35.8437V49.7187C30.0626 50.357 29.5446 50.875 28.9063 50.875C28.2681 50.875 27.7501 50.357 27.7501 49.7187V37H23.1251C22.6927 37 22.2972 36.7595 22.0983 36.3756C21.8995 35.9917 21.9318 35.5292 22.1793 35.1754L36.0543 15.5192C36.489 14.9064 37.5112 14.9064 37.9436 15.5192L51.8186 35.1754C52.066 35.5292 52.0984 35.9917 51.8995 36.3756C51.7007 36.7595 51.3075 37 50.8751 37H46.2501V54.3437C46.2501 54.982 45.7321 55.5 45.0938 55.5Z" fill="#FE4B4B"/>
<path d="M28.9062 55.5C29.5448 55.5 30.0625 54.9823 30.0625 54.3438C30.0625 53.7052 29.5448 53.1875 28.9062 53.1875C28.2677 53.1875 27.75 53.7052 27.75 54.3438C27.75 54.9823 28.2677 55.5 28.9062 55.5Z" fill="#FE4B4B"/>
</svg>
