<svg width="74" height="74" viewBox="0 0 74 74" fill="none" xmlns="http://www.w3.org/2000/svg">
<path d="M17.7143 61.5773C18.089 61.0616 18.8174 60.946 19.3285 61.3229C19.8465 61.6952 19.9575 62.426 19.5828 62.937C19.2082 63.4527 18.4844 63.566 17.971 63.1914C17.453 62.8168 17.3397 62.093 17.7143 61.5773Z" fill="#4B4E60"/>
<path d="M54.4161 11.0631C54.7908 10.5474 55.5146 10.4341 56.0279 10.8087C56.5483 11.1833 56.6593 11.9095 56.2846 12.4228C55.91 12.9385 55.1816 13.0542 54.6705 12.6772C54.1548 12.3049 54.0415 11.5765 54.4161 11.0631Z" fill="#4B4E60"/>
<path d="M6.95189 45.547C7.55776 45.3504 8.21451 45.6834 8.40876 46.2893C8.60764 46.8952 8.27001 47.5496 7.66645 47.7461C7.06058 47.9427 6.40845 47.6097 6.21189 47.0038C6.01301 46.3957 6.34601 45.7435 6.95189 45.547Z" fill="#4B4E60"/>
<path d="M66.3367 26.2537C66.9426 26.0572 67.5947 26.3902 67.7912 26.9961C67.9901 27.6042 67.6548 28.2564 67.0512 28.4529C66.4454 28.6495 65.7886 28.3165 65.5944 27.7106C65.3932 27.1047 65.7308 26.4503 66.3367 26.2537Z" fill="#4B4E60"/>
<path d="M7.66632 26.2537C8.26988 26.4503 8.6052 27.1047 8.40632 27.7106C8.20976 28.3188 7.55532 28.6495 6.94945 28.4529C6.34357 28.2563 6.01057 27.6042 6.20945 26.996C6.40832 26.3878 7.06276 26.0572 7.66632 26.2537Z" fill="#4B4E60"/>
<path d="M67.0489 45.547C67.6548 45.7435 67.9878 46.3957 67.7889 47.0038C67.5924 47.612 66.9379 47.9427 66.332 47.7461C65.7285 47.5496 65.3932 46.8952 65.592 46.2893C65.7886 45.6834 66.443 45.3504 67.0489 45.547Z" fill="#4B4E60"/>
<path d="M19.5873 11.0629C19.9596 11.5786 19.8463 12.3047 19.3306 12.677C18.8149 13.054 18.0888 12.9384 17.7142 12.4227C17.3395 11.907 17.4552 11.1832 17.9708 10.8085C18.4865 10.4339 19.2127 10.5495 19.5873 11.0629Z" fill="#4B4E60"/>
<path d="M56.2866 61.5773C56.6612 62.093 56.5456 62.8168 56.0299 63.1914C55.5142 63.566 54.7904 63.4504 54.4158 62.937C54.0435 62.4213 54.1568 61.6952 54.6725 61.3229C55.1859 60.946 55.912 61.0616 56.2866 61.5773Z" fill="#4B4E60"/>
<path d="M38.1567 5.78125C38.1567 6.41719 37.6364 6.9375 37.0005 6.9375C36.3646 6.9375 35.8442 6.41719 35.8442 5.78125C35.8442 5.14531 36.3646 4.625 37.0005 4.625C37.6364 4.625 38.1567 5.14531 38.1567 5.78125Z" fill="#4B4E60"/>
<path d="M38.1567 68.2188C38.1567 68.8547 37.6364 69.375 37.0005 69.375C36.3646 69.375 35.8442 68.8547 35.8442 68.2188C35.8442 67.5828 36.3646 67.0625 37.0005 67.0625C37.6364 67.0625 38.1567 67.5828 38.1567 68.2188Z" fill="#4B4E60"/>
<path d="M37 46.25C31.8986 46.25 27.75 42.1014 27.75 37C27.75 31.8986 31.8986 27.75 37 27.75C42.1014 27.75 46.25 31.8986 46.25 37C46.25 42.1014 42.1014 46.25 37 46.25ZM37 30.0625C33.1751 30.0625 30.0625 33.1751 30.0625 37C30.0625 40.8249 33.1751 43.9375 37 43.9375C40.8249 43.9375 43.9375 40.8249 43.9375 37C43.9375 33.1751 40.8249 30.0625 37 30.0625Z" fill="#FE4B4B"/>
<path d="M31.3648 42.7905L25.2158 51.2566C25.8078 51.7492 26.4414 52.1885 27.0959 52.6048L33.2518 44.1295C32.5603 43.7664 31.9198 43.3293 31.3648 42.7905Z" fill="#FE4B4B"/>
<path d="M19.0761 59.7042C18.7015 60.2222 18.8125 60.9437 19.3282 61.3206C19.8462 61.6952 20.5677 61.5773 20.9446 61.0662L23.6872 57.2922C23.0421 56.8667 22.4177 56.4135 21.8164 55.9302L19.0761 59.7042Z" fill="#4B4E60"/>
<path d="M54.9246 14.2959C55.2992 13.7779 55.1882 13.0564 54.6725 12.6795C54.1545 12.3048 53.433 12.4228 53.0561 12.9338L50.3135 16.7078C50.9587 17.1333 51.583 17.5866 52.1843 18.0699L54.9246 14.2959Z" fill="#4B4E60"/>
<path d="M42.638 31.2095L48.7869 22.7435C48.1949 22.2509 47.5613 21.8115 46.9069 21.3953L40.751 29.8706C41.4401 30.2336 42.0807 30.6707 42.638 31.2095Z" fill="#FE4B4B"/>
<path d="M9.15314 44.8348C8.54495 45.0314 8.21195 45.6812 8.40852 46.2917C8.60739 46.8999 9.25952 47.2283 9.8677 47.034L14.3123 45.5887C14.0418 44.8695 13.8013 44.1388 13.5978 43.3918L9.15314 44.8348Z" fill="#4B4E60"/>
<path d="M29.0453 38.3689L19.1016 41.6018C19.2935 42.3533 19.5271 43.091 19.8092 43.801L29.7737 40.5658C29.4315 39.879 29.1794 39.1482 29.0453 38.3689Z" fill="#FE4B4B"/>
<path d="M44.9555 35.631L54.8992 32.3982C54.7073 31.6466 54.4737 30.9089 54.1916 30.199L44.2271 33.4342C44.5693 34.121 44.8214 34.8517 44.9555 35.631Z" fill="#FE4B4B"/>
<path d="M64.8472 29.1652C65.4554 28.9686 65.7884 28.3188 65.5918 27.7083C65.3929 27.1001 64.7408 26.7717 64.1326 26.966L59.688 28.4113C59.9586 29.1305 60.1991 29.8612 60.4026 30.6082L64.8472 29.1652Z" fill="#4B4E60"/>
<path d="M9.86751 26.9683C9.25932 26.7718 8.6072 27.1025 8.40832 27.7083C8.21176 28.3188 8.54707 28.9686 9.15063 29.1675L13.5976 30.6128C13.8011 29.8636 14.0369 29.1282 14.3121 28.4113L9.86751 26.9683Z" fill="#4B4E60"/>
<path d="M29.7713 33.4342L19.8067 30.199C19.5246 30.9135 19.2911 31.6489 19.0991 32.4005L29.0429 35.631C29.1793 34.8517 29.4314 34.121 29.7713 33.4342Z" fill="#FE4B4B"/>
<path d="M64.8495 44.8325L60.4026 43.3872C60.1991 44.1365 59.9632 44.8718 59.688 45.5887L64.1326 47.0317C64.7408 47.2283 65.3929 46.8976 65.5918 46.2917C65.7884 45.6812 65.4554 45.0314 64.8495 44.8325Z" fill="#4B4E60"/>
<path d="M44.229 40.5658L54.1936 43.801C54.4757 43.0864 54.7093 42.351 54.9012 41.5995L44.9574 38.3689C44.821 39.1482 44.5689 39.879 44.229 40.5658Z" fill="#FE4B4B"/>
<path d="M33.2492 29.8706L27.091 21.3953C26.4412 21.8115 25.8052 22.2509 25.2109 22.7435L31.3622 31.2095C31.9172 30.673 32.5601 30.236 33.2492 29.8706Z" fill="#FE4B4B"/>
<path d="M20.9467 12.9361C20.5697 12.4181 19.8459 12.3025 19.3279 12.6771C18.8099 13.0541 18.6989 13.7779 19.0735 14.2936L21.8162 18.0676C22.4174 17.5843 23.0395 17.131 23.687 16.7055L20.9467 12.9361Z" fill="#4B4E60"/>
<path d="M53.0537 61.0639C53.4306 61.5819 54.1544 61.6952 54.6701 61.3206C55.1881 60.9437 55.2991 60.2199 54.9245 59.7042L52.1818 55.9302C51.5806 56.4135 50.9585 56.8667 50.311 57.2922L53.0537 61.0639Z" fill="#4B4E60"/>
<path d="M40.751 44.1295L46.9092 52.6048C47.559 52.1885 48.1949 51.7492 48.7892 51.2566L42.638 42.7905C42.083 43.327 41.4401 43.7641 40.751 44.1295Z" fill="#FE4B4B"/>
<path d="M38.1567 12.7766V8.09375C38.1567 7.4555 37.6387 6.9375 37.0005 6.9375C36.3622 6.9375 35.8442 7.4555 35.8442 8.09375V12.7766C36.2304 12.7604 36.6097 12.7188 37.0005 12.7188C37.3913 12.7188 37.7706 12.7604 38.1567 12.7766Z" fill="#4B4E60"/>
<path d="M37.0005 28.9062C37.3959 28.9062 37.7752 28.9664 38.1567 29.0242V18.5578C37.7729 18.5347 37.3913 18.5 37.0005 18.5C36.6097 18.5 36.2281 18.5347 35.8442 18.5578V29.0219C36.2258 28.9664 36.6051 28.9062 37.0005 28.9062Z" fill="#FE4B4B"/>
<path d="M35.8442 61.2234V65.9062C35.8442 66.5445 36.3622 67.0625 37.0005 67.0625C37.6387 67.0625 38.1567 66.5445 38.1567 65.9062V61.2234C37.7706 61.2396 37.3913 61.2812 37.0005 61.2812C36.6097 61.2812 36.2304 61.2396 35.8442 61.2234Z" fill="#4B4E60"/>
<path d="M37.0005 45.0938C36.6051 45.0938 36.2258 45.0336 35.8442 44.9758V55.4399C36.2281 55.4653 36.6097 55.5 37.0005 55.5C37.3913 55.5 37.7729 55.4653 38.1567 55.4422V44.9781C37.7752 45.0336 37.3959 45.0938 37.0005 45.0938Z" fill="#FE4B4B"/>
<path d="M37 62.4375C22.9747 62.4375 11.5625 51.0253 11.5625 37C11.5625 34.3314 11.9764 31.7021 12.7881 29.1814C12.9847 28.5733 13.6414 28.2426 14.2427 28.4368C14.8509 28.6334 15.1839 29.2832 14.9873 29.8914C14.2496 32.1807 13.875 34.5719 13.875 37C13.875 49.7511 24.2489 60.125 37 60.125C49.7511 60.125 60.125 49.7511 60.125 37C60.125 24.2489 49.7511 13.875 37 13.875C33.5775 13.875 30.2799 14.6058 27.2043 16.0464C26.6284 16.317 25.937 16.0672 25.6664 15.4891C25.3959 14.911 25.6456 14.2219 26.2238 13.9513C29.6093 12.3672 33.2329 11.5625 37 11.5625C51.0253 11.5625 62.4375 22.9747 62.4375 37C62.4375 51.0253 51.0253 62.4375 37 62.4375ZM37 56.6562C26.1613 56.6562 17.3438 47.8387 17.3438 37C17.3438 26.1613 26.1613 17.3438 37 17.3438C47.8387 17.3438 56.6562 26.1613 56.6562 37C56.6562 47.8387 47.8387 56.6562 37 56.6562ZM37 19.6562C27.4355 19.6562 19.6562 27.4355 19.6562 37C19.6562 46.5645 27.4355 54.3438 37 54.3438C46.5645 54.3438 54.3438 46.5645 54.3438 37C54.3438 27.4355 46.5645 19.6562 37 19.6562ZM15.9563 26.0364C15.7597 26.0364 15.5608 25.9879 15.3781 25.8815C14.8254 25.5624 14.6358 24.8571 14.9549 24.3021C16.7541 21.1825 19.2492 18.4283 22.1699 16.3309C22.6879 15.9562 23.4117 16.0742 23.7841 16.5945C24.1564 17.1148 24.0361 17.8363 23.5204 18.2086C20.8634 20.1141 18.5925 22.6209 16.9552 25.4583C16.7448 25.8283 16.354 26.0364 15.9563 26.0364Z" fill="#4B4E60"/>
<path d="M55.5093 68.8569C55.1185 68.8569 54.737 68.6581 54.5196 68.2996C54.1889 67.7539 54.3646 67.0416 54.9104 66.7109C61.168 62.9277 66.1699 57.1464 68.9935 50.4263C69.2386 49.8366 69.9208 49.5614 70.5059 49.8065C71.0956 50.054 71.3731 50.7315 71.1256 51.3189C68.1125 58.4877 62.7821 64.6574 56.1083 68.6881C55.921 68.8037 55.7151 68.8569 55.5093 68.8569Z" fill="#FE4B4B"/>
<path d="M50.8843 70.5312C50.8843 71.1672 50.364 71.6875 49.728 71.6875C49.0921 71.6875 48.5718 71.1672 48.5718 70.5312C48.5718 69.8953 49.0921 69.375 49.728 69.375C50.364 69.375 50.8843 69.8953 50.8843 70.5312Z" fill="#FE4B4B"/>
<path d="M3.94072 24.2812C3.79272 24.2812 3.63779 24.2511 3.49441 24.191C2.90472 23.9458 2.62722 23.266 2.87466 22.6786C5.88785 15.5029 11.2274 9.33316 17.9105 5.29784C18.454 4.97178 19.1685 5.14059 19.4992 5.68866C19.8299 6.23441 19.6542 6.94666 19.1084 7.27734C12.8392 11.0606 7.83266 16.8488 5.00679 23.5735C4.82179 24.0152 4.39166 24.2812 3.94072 24.2812Z" fill="#FE4B4B"/>
<path d="M25.4468 3.46875C25.4468 4.10469 24.9265 4.625 24.2905 4.625C23.6546 4.625 23.1343 4.10469 23.1343 3.46875C23.1343 2.83281 23.6546 2.3125 24.2905 2.3125C24.9265 2.3125 25.4468 2.83281 25.4468 3.46875Z" fill="#FE4B4B"/>
</svg>
