<svg width="74" height="74" viewBox="0 0 74 74" fill="none" xmlns="http://www.w3.org/2000/svg">
<path d="M70.5313 71.6874C70.4642 71.6874 70.3972 71.6828 70.3324 71.6712L53.6408 68.7389C53.2153 68.6626 52.8684 68.3597 52.7389 67.9481C52.6094 67.5364 52.7181 67.0878 53.0234 66.7826L56.6332 63.1728L48.0723 54.6119C44.0763 57.1325 39.2432 58.2009 34.6436 57.6806C34.01 57.6089 33.5521 57.0354 33.6238 56.4018C33.6955 55.7681 34.2644 55.3103 34.9026 55.3819C39.2663 55.8768 43.8589 54.7576 47.5589 52.1791C48.0191 51.8577 48.6412 51.9132 49.0389 52.3109L59.0844 62.3588C59.5354 62.8097 59.5354 63.5428 59.0844 63.9937L56.2308 66.8473L69.1091 69.1089L66.8475 56.2306L63.9939 59.0843C63.5429 59.5352 62.8099 59.5352 62.3589 59.0843L52.3111 49.0388C51.8602 48.5878 51.8602 47.8548 52.3111 47.4038C52.7621 46.9529 53.4951 46.9529 53.946 47.4038L63.1752 56.633L66.785 53.0232C67.0903 52.7179 67.5436 52.6093 67.9506 52.7388C68.3622 52.8683 68.6674 53.2174 68.7414 53.6406L71.6737 70.3323C71.7384 70.7046 71.6182 71.0838 71.3522 71.3498C71.1302 71.5671 70.8342 71.6874 70.5313 71.6874ZM3.4688 71.6874C3.16586 71.6874 2.86986 71.5671 2.65017 71.3498C2.38424 71.0838 2.26399 70.7046 2.32874 70.3323L5.26099 53.6406C5.3373 53.2151 5.64024 52.8683 6.05186 52.7388C6.45886 52.6069 6.91211 52.7179 7.21736 53.0232L10.8272 56.633L19.3881 48.0721C17.2906 44.7491 16.1875 40.9404 16.1875 36.9999C16.1875 36.2668 16.2269 35.5453 16.2985 34.8331C16.3656 34.1994 16.9183 33.7416 17.5681 33.8017C18.2017 33.8688 18.6642 34.4353 18.5972 35.0713C18.5347 35.7049 18.5 36.3478 18.5 36.9999C18.5 40.7901 19.6494 44.4415 21.8231 47.5588C22.1446 48.0189 22.0891 48.641 21.6913 49.0388L11.6435 59.0843C11.1925 59.5352 10.4595 59.5352 10.0085 59.0843L7.15492 56.2306L4.8933 69.1089L17.7716 66.8473L14.9157 63.9914C14.4647 63.5404 14.4647 62.8074 14.9157 62.3564L24.9612 52.3086C25.4121 51.8577 26.1452 51.8577 26.5961 52.3086C27.0471 52.7596 27.0471 53.4926 26.5961 53.9436L17.3669 63.1728L20.9767 66.7826C21.282 67.0878 21.3907 67.5364 21.2612 67.9481C21.1317 68.3597 20.7825 68.6649 20.3593 68.7389L3.66767 71.6712C3.60292 71.6828 3.53586 71.6874 3.4688 71.6874ZM37 50.8749C29.348 50.8749 23.125 44.6519 23.125 36.9999C23.125 29.3478 29.348 23.1249 37 23.1249C44.6521 23.1249 50.875 29.3478 50.875 36.9999C50.875 44.6519 44.6521 50.8749 37 50.8749ZM37 25.4374C30.6245 25.4374 25.4375 30.6243 25.4375 36.9999C25.4375 43.3755 30.6245 48.5624 37 48.5624C43.3756 48.5624 48.5625 43.3755 48.5625 36.9999C48.5625 30.6243 43.3756 25.4374 37 25.4374ZM56.5014 40.6328C56.4528 40.6328 56.4042 40.6305 56.3557 40.6236C55.7221 40.5426 55.2734 39.9645 55.3544 39.3309C55.4515 38.5631 55.5 37.7792 55.5 36.9999C55.5 33.2097 54.3507 29.5583 52.177 26.441C51.8555 25.9808 51.9111 25.3588 52.3088 24.961L62.3566 14.9155C62.8076 14.4646 63.5406 14.4646 63.9916 14.9155L66.8452 17.7691L69.1068 4.89082L56.2285 7.15245L59.0821 10.0061C59.5331 10.457 59.5331 11.1901 59.0821 11.641L49.0389 21.6911C48.588 22.1421 47.8549 22.1421 47.404 21.6911C46.9531 21.2402 46.9531 20.5071 47.404 20.0562L56.6332 10.827L53.0234 7.2172C52.7181 6.91195 52.6094 6.46332 52.7389 6.0517C52.8684 5.64007 53.2176 5.33482 53.6408 5.26082L70.3324 2.32857C70.7001 2.26613 71.084 2.38176 71.3499 2.65001C71.6159 2.91595 71.7361 3.2952 71.6714 3.66751L68.7391 20.3591C68.6628 20.7846 68.3599 21.1315 67.9482 21.261C67.5389 21.3882 67.0857 21.2795 66.7827 20.9766L63.1729 17.3668L54.612 25.9276C56.7095 29.2507 57.8125 33.0594 57.8125 36.9999C57.8125 37.8763 57.7571 38.7574 57.6484 39.6223C57.5721 40.205 57.0749 40.6328 56.5014 40.6328ZM20.8727 26.9359C20.5767 26.9359 20.2807 26.8226 20.0541 26.5983L10.8272 17.3691L7.21736 20.9766C6.91211 21.2818 6.46117 21.3905 6.05186 21.261C5.64024 21.1315 5.33499 20.7823 5.26099 20.3591L2.32874 3.66751C2.26399 3.2952 2.38424 2.91595 2.65017 2.65001C2.91842 2.38407 3.29999 2.26613 3.66767 2.32857L20.3593 5.26082C20.7848 5.33713 21.1317 5.64007 21.2612 6.0517C21.3907 6.46332 21.282 6.91195 20.9767 7.2172L17.3692 10.827L25.9301 19.3879C29.9492 16.8534 34.824 15.7827 39.4351 16.3308C40.0687 16.4071 40.522 16.9806 40.448 17.6142C40.3717 18.2478 39.7912 18.7126 39.1646 18.6271C34.7824 18.1114 30.162 19.2306 26.4435 21.8229C25.9833 22.1421 25.3589 22.0866 24.9635 21.6911L14.9157 11.6433C14.4647 11.1924 14.4647 10.4593 14.9157 10.0084L17.7693 7.15476L4.8933 4.89313L7.15492 17.7714L10.0085 14.9155C10.4595 14.4646 11.1925 14.4646 11.6435 14.9155L21.6913 24.961C22.1422 25.4119 22.1422 26.145 21.6913 26.5959C21.4647 26.8226 21.1687 26.9359 20.8727 26.9359Z" fill="#4B4E60"/>
<path d="M30.0625 54.3459C29.4266 54.3459 28.9062 54.8663 28.9062 55.5022C28.9062 56.1381 29.4266 56.6584 30.0625 56.6584C30.6984 56.6584 31.2188 56.1381 31.2188 55.5022C31.2188 54.8663 30.6984 54.3459 30.0625 54.3459Z" fill="#FE4B4B"/>
<path d="M55.5 42.7834C54.8641 42.7834 54.3438 43.3038 54.3438 43.9397C54.3438 44.5756 54.8641 45.0959 55.5 45.0959C56.1359 45.0959 56.6562 44.5756 56.6562 43.9397C56.6562 43.3038 56.1359 42.7834 55.5 42.7834Z" fill="#FE4B4B"/>
<path d="M18.5 28.9084C17.8641 28.9084 17.3438 29.4288 17.3438 30.0647C17.3438 30.7006 17.8641 31.2209 18.5 31.2209C19.1359 31.2209 19.6562 30.7006 19.6562 30.0647C19.6562 29.4288 19.1359 28.9084 18.5 28.9084Z" fill="#FE4B4B"/>
<path d="M43.9375 17.3459C43.3016 17.3459 42.7812 17.8663 42.7812 18.5022C42.7812 19.1381 43.3016 19.6584 43.9375 19.6584C44.5734 19.6584 45.0938 19.1381 45.0938 18.5022C45.0938 17.8663 44.5734 17.3459 43.9375 17.3459Z" fill="#FE4B4B"/>
</svg>
