<svg width="74" height="74" viewBox="0 0 74 74" fill="none" xmlns="http://www.w3.org/2000/svg">
<path d="M18.3314 71.3752C17.7464 71.3752 17.2446 70.9335 17.1844 70.3392L16.2548 61.4176H10.9176C9.43295 61.4176 8.15876 60.2637 8.01307 58.7883L7.33782 51.8462H4.53507C3.70026 51.8462 3.00882 51.4923 2.63882 50.8726C2.26882 50.2552 2.2827 49.4758 2.67814 48.7405L6.71807 39.7911L6.57239 37.2103C6.57007 32.7888 8.56576 28.5269 12.0461 25.4513C12.5224 25.0281 13.2555 25.072 13.6787 25.553C14.1019 26.0317 14.0556 26.7625 13.5769 27.1857C10.5476 29.8589 8.88257 33.397 8.88257 37.1456L9.04214 39.9437C9.0537 40.1287 9.01901 40.316 8.9427 40.4848L4.85651 49.5267L8.3877 49.5337C8.98432 49.5337 9.48151 49.9846 9.53932 50.5766L10.3163 58.5617C10.3441 58.8461 10.6308 59.1028 10.9176 59.1028H17.2954C17.8874 59.1028 18.3846 59.5491 18.4448 60.1388L19.4831 70.0987C19.5501 70.7323 19.0876 71.3035 18.454 71.3683C18.4124 71.3729 18.3708 71.3752 18.3314 71.3752Z" fill="#4B4E60"/>
<path d="M29.4107 71.4701C28.8279 71.4701 28.3261 71.0307 28.2637 70.4364L26.8878 57.5558H20.5908C18.9674 57.5558 17.5753 56.2932 17.425 54.6837L16.6318 46.5529H13.2509C12.3514 46.5529 11.6114 46.176 11.2159 45.5192C10.8228 44.8602 10.8413 44.0277 11.2645 43.2345L15.9334 32.8953L15.7646 29.8752C15.7623 24.0338 18.831 18.4792 23.9717 14.9595C24.4966 14.5988 25.2181 14.7329 25.5766 15.2602C25.9373 15.7874 25.8055 16.5043 25.2759 16.865C20.7666 19.9569 18.0748 24.7969 18.0748 29.8104L18.2575 33.0456C18.2691 33.2329 18.2344 33.4179 18.1581 33.5867L13.3527 44.2219L17.6817 44.2404C18.2783 44.2404 18.7755 44.6914 18.8333 45.2834L19.7283 54.4617C19.7676 54.8802 20.1699 55.2433 20.5908 55.2433H27.9261C28.5181 55.2433 29.0129 55.6873 29.0754 56.277L30.5623 70.1936C30.6294 70.8272 30.1715 71.3984 29.5356 71.4655C29.4939 71.4678 29.4523 71.4701 29.4107 71.4701Z" fill="#4B4E60"/>
<path d="M38.0944 54.2627H32.1143C30.3568 54.2627 28.8537 52.896 28.6872 51.1501L27.7807 41.8238H23.817C22.855 41.8238 22.0642 41.4237 21.6479 40.7253C21.2317 40.0293 21.2525 39.1436 21.7103 38.2949L27.0013 26.5636L26.8094 23.1087C26.8071 11.5485 37.0908 2.19678 49.7332 2.19678C62.2115 2.19678 71.6257 12.0527 71.6257 25.1183C71.6257 30.1087 70.4047 34.8608 67.8887 39.6431C67.5927 40.2096 66.8897 40.4224 66.3277 40.1287C65.7612 39.8327 65.5438 39.132 65.8421 38.5678C68.1777 34.1232 69.3132 29.7248 69.3132 25.1183C69.3132 13.3685 60.8957 4.50928 49.7332 4.50928C38.3673 4.50928 29.1196 12.825 29.1196 23.0463L29.3254 26.7185C29.337 26.9035 29.3023 27.0885 29.226 27.2573L23.7823 39.3217C23.7384 39.4026 23.7107 39.4673 23.6922 39.5113C23.7292 39.5136 23.7662 39.5136 23.817 39.5136H28.8305C29.4272 39.5136 29.9243 39.9645 29.9822 40.5588L30.9904 50.9327C31.0413 51.4854 31.557 51.9502 32.1143 51.9502H38.0944C38.7327 51.9502 39.2507 52.4682 39.2507 53.1065C39.2507 53.7447 38.7327 54.2627 38.0944 54.2627Z" fill="#4B4E60"/>
<path d="M51.7954 41.4562H47.6375C47.0941 41.4562 46.6246 41.0769 46.509 40.5451L45.8245 37.4186C44.8648 37.1388 43.9421 36.7549 43.0634 36.2716L40.367 37.999C39.9091 38.2927 39.3102 38.2279 38.9263 37.8441L35.9871 34.9049C35.6033 34.521 35.5385 33.9197 35.8322 33.4642L37.5596 30.7678C37.0763 29.8891 36.6924 28.9664 36.4126 28.0067L33.2861 27.3222C32.7519 27.2066 32.375 26.7371 32.375 26.1914V22.0312C32.375 21.4877 32.7519 21.0183 33.2838 20.9027L36.408 20.2182C36.6901 19.2562 37.0763 18.3335 37.5573 17.4571L35.8299 14.7607C35.5362 14.3051 35.6009 13.7039 35.9848 13.32L38.924 10.3808C39.3079 9.99693 39.9068 9.93218 40.3647 10.2259L43.0611 11.9533C43.9421 11.47 44.8648 11.0861 45.8222 10.8063L46.5067 7.67981C46.6223 7.15025 47.0918 6.771 47.6352 6.771H51.7954C52.3388 6.771 52.8083 7.14793 52.9239 7.67981L53.6084 10.8086C54.5658 11.0861 55.4884 11.47 56.3695 11.9533L59.0659 10.2259C59.5261 9.92987 60.125 9.99462 60.5089 10.3785L63.4481 13.3177C63.8319 13.7016 63.8967 14.3028 63.603 14.7584L61.8779 17.4594C62.3612 18.3404 62.7451 19.2631 63.0226 20.2182L66.1514 20.9027C66.6809 21.0183 67.0602 21.4877 67.0602 22.0312V26.1914C67.0602 26.7348 66.6833 27.2042 66.1514 27.3199L63.0226 28.0044C62.7451 28.9594 62.3612 29.8844 61.8779 30.7632L63.6053 33.4619C63.899 33.9174 63.8343 34.5187 63.4504 34.9026L60.5112 37.8441C60.125 38.2302 59.5261 38.2881 59.0705 37.999L56.3741 36.2693C55.4954 36.7526 54.5727 37.1341 53.613 37.4139L52.9285 40.5428C52.8106 41.0769 52.3411 41.4562 51.7954 41.4562ZM48.5671 39.1437H50.8658L51.5017 36.2346C51.5965 35.7998 51.9341 35.4552 52.3666 35.3535C53.5783 35.0714 54.7276 34.5927 55.7868 33.9359C56.1614 33.7024 56.6447 33.7024 57.0193 33.9452L59.5284 35.5524L61.1541 33.9267L59.5469 31.4176C59.3064 31.043 59.3041 30.5643 59.5353 30.1874C60.199 29.1144 60.6754 27.9651 60.9552 26.7649C61.0569 26.3301 61.3992 25.9948 61.8339 25.9L64.7431 25.2641V22.9631L61.8363 22.3249C61.4015 22.2301 61.0593 21.8924 60.9575 21.46C60.6777 20.2575 60.2013 19.1082 59.5376 18.0375C59.3041 17.6606 59.3087 17.1819 59.5492 16.8072L61.1564 14.2982L59.5307 12.6725L57.0216 14.2797C56.647 14.5225 56.1683 14.5225 55.7891 14.2889C54.7253 13.6299 53.576 13.1535 52.3689 12.8714C51.9341 12.7696 51.5988 12.4274 51.504 11.9926L50.8681 9.0835H48.5694L47.9335 11.9926C47.8387 12.4274 47.5011 12.7696 47.0663 12.8714C45.8615 13.1512 44.7122 13.6276 43.6461 14.2889C43.2692 14.5225 42.7905 14.5225 42.4136 14.2797L39.9045 12.6725L38.2788 14.2982L39.886 16.8072C40.1265 17.1819 40.1288 17.6629 39.8953 18.0398C39.2385 19.0966 38.7598 20.2482 38.4707 21.4623C38.369 21.8971 38.0291 22.2301 37.5943 22.3249L34.6875 22.9631V25.2617L37.5966 25.8977C38.0314 25.9925 38.3736 26.3301 38.4754 26.7626C38.7575 27.972 39.2339 29.1236 39.8929 30.1828C40.1288 30.5597 40.1265 31.0407 39.8837 31.4153L38.2765 33.9244L39.9022 35.5501L42.4113 33.9429C42.7882 33.7024 43.2715 33.7024 43.6438 33.9336C44.7052 34.5927 45.8546 35.0714 47.064 35.3512C47.4987 35.4529 47.8364 35.7952 47.9312 36.2322L48.5671 39.1437ZM49.7141 32.2085C45.251 32.2085 41.6204 28.5779 41.6204 24.1147C41.6204 19.6516 45.251 16.021 49.7141 16.021C54.1772 16.021 57.8079 19.6516 57.8079 24.1147C57.8079 28.5779 54.1772 32.2085 49.7141 32.2085ZM49.7141 18.3335C46.5252 18.3335 43.9329 20.9258 43.9329 24.1147C43.9329 27.3037 46.5252 29.896 49.7141 29.896C52.9031 29.896 55.4954 27.3037 55.4954 24.1147C55.4954 20.9258 52.9031 18.3335 49.7141 18.3335Z" fill="#FE4B4B"/>
<path d="M58.8374 69.2222H55.4057C54.8622 69.2222 54.3928 68.843 54.2772 68.3111L53.7407 65.8483C53.0169 65.6286 52.3139 65.3372 51.6455 64.9788L49.518 66.3385C49.0602 66.6345 48.4612 66.5675 48.0774 66.1836L45.6492 63.7555C45.2654 63.3716 45.2006 62.7703 45.4943 62.3124L46.8587 60.1896C46.4979 59.5189 46.2065 58.816 45.9869 58.0944L43.5264 57.5556C42.9968 57.44 42.6152 56.9706 42.6152 56.4271V52.9954C42.6152 52.4519 42.9945 51.9825 43.5264 51.8669L45.9869 51.3281C46.2065 50.6043 46.4979 49.9036 46.8587 49.233L45.4943 47.1055C45.2006 46.6499 45.2654 46.0486 45.6492 45.6648L48.075 43.2389C48.4589 42.8551 49.0579 42.788 49.5157 43.084L51.6432 44.4438C52.3115 44.0853 53.0145 43.7916 53.7384 43.5719L54.2749 41.1138C54.3905 40.5842 54.8599 40.2026 55.4034 40.2026H58.8351C59.3762 40.2026 59.848 40.5796 59.9636 41.1114L60.5024 43.5719C61.2262 43.7916 61.9269 44.083 62.5999 44.4438L64.7227 43.084C65.1806 42.7926 65.7772 42.8551 66.1634 43.2389L68.5892 45.6648C68.9731 46.0486 69.0379 46.6476 68.7442 47.1055L67.3844 49.233C67.7429 49.9036 68.0365 50.6066 68.2562 51.3281L70.7167 51.8669C71.2463 51.9825 71.6279 52.4519 71.6279 52.9954V56.4248C71.6279 56.9683 71.2486 57.4377 70.7167 57.5533L68.2539 58.0921C68.0365 58.816 67.7452 59.5143 67.3844 60.1873L68.7442 62.3124C69.0379 62.768 68.9731 63.3693 68.5892 63.7531L66.1634 66.1813C65.7772 66.5674 65.1714 66.6253 64.7227 66.3362L62.5999 64.9741C61.9269 65.3326 61.2262 65.624 60.5024 65.8436L59.9636 68.3088C59.8526 68.8453 59.3832 69.2222 58.8374 69.2222ZM56.3376 66.9097H57.9078L58.4004 64.6643C58.4952 64.2295 58.8351 63.8873 59.2675 63.7855C60.2388 63.5589 61.1661 63.175 62.0287 62.6431C62.4033 62.4073 62.8843 62.4096 63.2589 62.6524L65.1899 63.8896L66.2999 62.7796L65.0627 60.8463C64.8222 60.4717 64.8199 59.993 65.0534 59.6138C65.5876 58.7512 65.9715 57.8239 66.1958 56.8573C66.2975 56.4225 66.6375 56.0826 67.0769 55.9878L69.32 55.4975V53.925L67.0815 53.4348C66.6467 53.34 66.3045 53.0023 66.2027 52.5699C65.9715 51.5963 65.5853 50.669 65.0534 49.8088C64.8175 49.4295 64.8199 48.9508 65.0627 48.5762L66.2999 46.6406L65.1899 45.5306L63.2589 46.7678C62.8843 47.0083 62.4033 47.0083 62.0287 46.7771C61.1638 46.2429 60.2342 45.8567 59.2652 45.6278C58.8305 45.526 58.4952 45.1861 58.4004 44.7513L57.9078 42.5128H56.3353L55.8474 44.7467C55.7525 45.1814 55.4149 45.5237 54.9825 45.6254C54.0066 45.8567 53.0793 46.2429 52.2214 46.7748C51.849 47.0083 51.3657 47.0083 50.9888 46.7655L49.0532 45.5283L47.9432 46.6383L49.185 48.5739C49.4255 48.9485 49.4279 49.4272 49.1943 49.8064C48.6624 50.6667 48.2762 51.594 48.045 52.5676C47.9432 53.0023 47.6033 53.3376 47.1662 53.4325L44.9277 53.9227V55.4952L47.1662 55.9854C47.601 56.0803 47.9432 56.4179 48.045 56.8503C48.2762 57.8239 48.6624 58.7512 49.1943 59.6115C49.4302 59.9907 49.4279 60.4694 49.185 60.8463L47.9455 62.7796L49.0532 63.8873L50.9888 62.6501C51.3657 62.4096 51.849 62.4096 52.2214 62.6408C53.0747 63.1704 54.0043 63.5566 54.9802 63.7832C55.4149 63.885 55.7525 64.2272 55.8474 64.6643L56.3376 66.9097ZM57.1215 61.591C53.3267 61.591 50.2419 58.5061 50.2419 54.7113C50.2419 50.9165 53.3267 47.8316 57.1215 47.8316C60.9164 47.8316 64.0012 50.9165 64.0012 54.7113C64.0012 58.5061 60.9164 61.591 57.1215 61.591ZM57.1215 50.1464C54.6032 50.1464 52.5544 52.1953 52.5544 54.7136C52.5544 57.2319 54.6032 59.2808 57.1215 59.2808C59.6399 59.2808 61.6887 57.2319 61.6887 54.7136C61.6887 52.1953 59.6399 50.1464 57.1215 50.1464Z" fill="#FE4B4B"/>
</svg>
