<svg width="45" height="45" viewBox="0 0 45 45" fill="none" xmlns="http://www.w3.org/2000/svg">
<path d="M32.2447 19.6877C31.242 19.6877 30.3069 19.1491 29.8076 18.2814C29.0314 16.9385 29.4926 15.2158 30.8356 14.441L33.2726 13.0333L32.5695 11.8155C32.4359 11.5849 32.4444 11.2994 32.592 11.0772C32.7383 10.855 32.9956 10.7285 33.2628 10.7664L40.2434 11.6088C40.4628 11.6355 40.6583 11.7621 40.768 11.9547C40.8791 12.1474 40.8931 12.3794 40.8059 12.5819L38.0426 19.0479C37.9386 19.2939 37.7037 19.4585 37.438 19.4739C37.1426 19.4922 36.9191 19.3544 36.7855 19.1238L36.0837 17.906L33.6481 19.3122C33.2206 19.5569 32.7355 19.6877 32.2447 19.6877ZM34.4905 12.3302L34.8406 12.9377C35.0361 13.2738 34.9208 13.7041 34.5833 13.8982L31.5373 15.6574C31.2125 15.8458 30.9805 16.1496 30.882 16.511C30.785 16.8752 30.8356 17.2521 31.0226 17.5783C31.3967 18.2238 32.2897 18.4671 32.9436 18.093L35.9895 16.3352C36.1512 16.2424 36.3397 16.2171 36.5239 16.2635C36.7039 16.3127 36.8572 16.4308 36.9514 16.5911L37.3016 17.2L39.1437 12.8913L34.4905 12.3302Z" fill="#4B4E60"/>
<path d="M11.8204 34.2408C11.7923 34.2408 11.7642 34.2394 11.7361 34.2351L4.75544 33.3928C4.53747 33.3675 4.342 33.2395 4.23231 33.0469C4.12122 32.8542 4.10716 32.6222 4.19435 32.4197L6.95763 25.9537C7.06169 25.7076 7.29653 25.5431 7.56231 25.5276C7.84919 25.5009 8.08122 25.6472 8.21481 25.8778L8.91653 27.0956L11.3522 25.6894C12.6487 24.9384 14.4473 25.425 15.1926 26.7173C15.5695 27.367 15.6679 28.125 15.4739 28.852C15.2784 29.5776 14.8143 30.1837 14.1633 30.5592L11.7262 31.9669L12.4293 33.1847C12.5629 33.4153 12.5545 33.7008 12.4068 33.923C12.2761 34.1241 12.0553 34.2408 11.8204 34.2408ZM5.85513 32.1089L10.5084 32.67L10.1583 32.0625C9.96278 31.7264 10.0781 31.2961 10.4156 31.102L13.4615 29.3428C13.7864 29.1544 14.0184 28.8506 14.1168 28.4892C14.2139 28.125 14.1633 27.7481 13.9762 27.4219C13.6022 26.7778 12.7106 26.5331 12.0553 26.9072L9.00935 28.665C8.84763 28.7592 8.65638 28.7817 8.47497 28.7367C8.29497 28.6875 8.14169 28.5694 8.04747 28.4091L7.69731 27.8001L5.85513 32.1089Z" fill="#4B4E60"/>
<path d="M33.1789 34.2394C32.9441 34.2394 32.7233 34.1227 32.5925 33.923C32.4463 33.7008 32.4378 33.4154 32.57 33.1847L33.2731 31.9669L30.8361 30.5607C29.4931 29.7844 29.0319 28.0632 29.8081 26.7202C30.552 25.4265 32.3506 24.9399 33.6486 25.6922L36.0856 27.0985L36.7888 25.8807C36.9209 25.6501 37.153 25.5136 37.4399 25.5305C37.7042 25.5474 37.9391 25.7119 38.0445 25.9566L40.8064 32.4226C40.8936 32.6265 40.8795 32.8585 40.7684 33.0497C40.6588 33.2424 40.4633 33.3704 40.2439 33.3957L33.2633 34.2366C33.2352 34.238 33.2056 34.2394 33.1789 34.2394ZM32.2452 26.7188C31.7431 26.7188 31.2763 26.9874 31.0245 27.4219C30.6378 28.0941 30.8684 28.9547 31.5392 29.3429L34.5852 31.1007C34.7469 31.1921 34.8636 31.3468 34.9128 31.5268C34.9606 31.7082 34.9353 31.8994 34.8411 32.0611L34.4895 32.6701L39.1442 32.1104L37.302 27.8016L36.9505 28.4105C36.7578 28.7466 36.3289 28.8633 35.99 28.6679L32.9441 26.9101C32.7303 26.7849 32.4899 26.7188 32.2452 26.7188Z" fill="#4B4E60"/>
<path d="M12.7544 19.6875C12.2623 19.6875 11.7785 19.5568 11.351 19.3093L8.91398 17.903L8.21085 19.1208C8.07866 19.3514 7.85929 19.4991 7.55976 19.471C7.29538 19.4541 7.06054 19.2896 6.95507 19.0449L4.19319 12.5804C4.10741 12.3779 4.12148 12.1458 4.23257 11.9532C4.34226 11.7605 4.53773 11.6325 4.7571 11.6072L11.7377 10.7663C12.0035 10.7325 12.2623 10.8549 12.4071 11.0771C12.5534 11.2993 12.5618 11.5847 12.4296 11.8154L11.7265 13.0332L14.1635 14.4394C14.8146 14.8149 15.2787 15.421 15.4741 16.1466C15.6682 16.8736 15.5684 17.6316 15.1929 18.2813C14.6923 19.1489 13.7571 19.6875 12.7544 19.6875ZM8.65663 16.2408C8.77616 16.2408 8.8971 16.2704 9.00819 16.335L12.0541 18.0929C12.7109 18.4683 13.6038 18.2236 13.9751 17.5782C14.1621 17.2533 14.2127 16.875 14.1157 16.5108C14.0187 16.148 13.7866 15.8443 13.4604 15.6572L10.4144 13.8994C10.2527 13.8066 10.136 13.6533 10.0868 13.4733C10.039 13.2919 10.0643 13.1007 10.1585 12.9389L10.5101 12.33L5.85538 12.8897L7.69757 17.1985L8.04913 16.5896C8.1771 16.3674 8.41476 16.2408 8.65663 16.2408Z" fill="#4B4E60"/>
<path d="M22.4997 43.5938C22.2789 43.5938 22.0694 43.4897 21.9372 43.3125L17.7185 37.6875C17.5596 37.4752 17.5329 37.1897 17.6524 36.952C17.7719 36.7144 18.0152 36.5625 18.281 36.5625H19.6872V33.75C19.6872 32.1989 20.9486 30.9375 22.4997 30.9375C24.0508 30.9375 25.3122 32.1989 25.3122 33.75V36.5625H26.7185C26.9843 36.5625 27.2275 36.713 27.3471 36.9506C27.4666 37.1883 27.4399 37.4737 27.281 37.6861L23.0622 43.3111C22.93 43.4897 22.7205 43.5938 22.4997 43.5938ZM19.6872 37.9688L22.4997 41.7192L25.3122 37.9688H24.6091C24.221 37.9688 23.906 37.6537 23.906 37.2656V33.75C23.906 32.9738 23.276 32.3438 22.4997 32.3438C21.7235 32.3438 21.0935 32.9738 21.0935 33.75V37.2656C21.0935 37.6537 20.7785 37.9688 20.3904 37.9688H19.6872Z" fill="#4B4E60"/>
<path d="M22.4997 14.0627C20.9486 14.0627 19.6872 12.8012 19.6872 11.2502V8.43766H18.2809C18.0151 8.43766 17.7719 8.28719 17.6523 8.04953C17.5328 7.81187 17.5581 7.52641 17.7184 7.31266L21.9372 1.68766C22.2029 1.33328 22.7964 1.33328 23.0636 1.68766L27.2823 7.31266C27.4412 7.525 27.4679 7.81047 27.3484 8.04812C27.2289 8.28578 26.9842 8.43766 26.7184 8.43766H25.3122V11.2502C25.3122 12.8012 24.0508 14.0627 22.4997 14.0627ZM19.6872 7.03141H20.3903C20.7784 7.03141 21.0934 7.34641 21.0934 7.73453V11.2502C21.0934 12.0264 21.7234 12.6564 22.4997 12.6564C23.2759 12.6564 23.9059 12.0264 23.9059 11.2502V7.73453C23.9059 7.34641 24.2209 7.03141 24.609 7.03141H25.3122L22.4997 3.28094L19.6872 7.03141Z" fill="#4B4E60"/>
<path d="M22.5 29.5312C18.623 29.5312 15.4688 26.377 15.4688 22.5C15.4688 18.623 18.623 15.4688 22.5 15.4688C26.377 15.4688 29.5312 18.623 29.5312 22.5C29.5312 26.377 26.377 29.5312 22.5 29.5312ZM22.5 16.875C19.3978 16.875 16.875 19.3978 16.875 22.5C16.875 25.6022 19.3978 28.125 22.5 28.125C25.6022 28.125 28.125 25.6022 28.125 22.5C28.125 19.3978 25.6022 16.875 22.5 16.875Z" fill="#FE4B4B"/>
<path d="M26.041 3.12354C26.4293 3.12354 26.7441 2.80874 26.7441 2.42041C26.7441 2.03208 26.4293 1.71729 26.041 1.71729C25.6527 1.71729 25.3379 2.03208 25.3379 2.42041C25.3379 2.80874 25.6527 3.12354 26.041 3.12354Z" fill="#4B4E60"/>
<path d="M18.959 43.2819C19.3466 43.2819 19.6608 42.9677 19.6608 42.5801C19.6608 42.1926 19.3466 41.8784 18.959 41.8784C18.5715 41.8784 18.2573 42.1926 18.2573 42.5801C18.2573 42.9677 18.5715 43.2819 18.959 43.2819Z" fill="#4B4E60"/>
<path d="M29.4736 4.04297C29.862 4.04297 30.1768 3.72817 30.1768 3.33984C30.1768 2.95152 29.862 2.63672 29.4736 2.63672C29.0853 2.63672 28.7705 2.95152 28.7705 3.33984C28.7705 3.72817 29.0853 4.04297 29.4736 4.04297Z" fill="#4B4E60"/>
<path d="M15.5264 42.3633C15.9147 42.3633 16.2295 42.0485 16.2295 41.6602C16.2295 41.2718 15.9147 40.957 15.5264 40.957C15.138 40.957 14.8232 41.2718 14.8232 41.6602C14.8232 42.0485 15.138 42.3633 15.5264 42.3633Z" fill="#4B4E60"/>
<path d="M32.6953 5.54346C33.0836 5.54346 33.3984 5.22866 33.3984 4.84033C33.3984 4.45201 33.0836 4.13721 32.6953 4.13721C32.307 4.13721 31.9922 4.45201 31.9922 4.84033C31.9922 5.22866 32.307 5.54346 32.6953 5.54346Z" fill="#4B4E60"/>
<path d="M12.3047 40.8628C12.693 40.8628 13.0078 40.548 13.0078 40.1597C13.0078 39.7713 12.693 39.4565 12.3047 39.4565C11.9164 39.4565 11.6016 39.7713 11.6016 40.1597C11.6016 40.548 11.9164 40.8628 12.3047 40.8628Z" fill="#4B4E60"/>
<path d="M35.606 7.58398C35.9943 7.58398 36.3091 7.26918 36.3091 6.88086C36.3091 6.49253 35.9943 6.17773 35.606 6.17773C35.2176 6.17773 34.9028 6.49253 34.9028 6.88086C34.9028 7.26918 35.2176 7.58398 35.606 7.58398Z" fill="#4B4E60"/>
<path d="M9.39355 38.8223C9.78188 38.8223 10.0967 38.5075 10.0967 38.1191C10.0967 37.7308 9.78188 37.416 9.39355 37.416C9.00523 37.416 8.69043 37.7308 8.69043 38.1191C8.69043 38.5075 9.00523 38.8223 9.39355 38.8223Z" fill="#4B4E60"/>
<path d="M38.1191 10.0985C38.5082 10.0985 38.8236 9.78309 38.8236 9.39398C38.8236 9.00488 38.5082 8.68945 38.1191 8.68945C37.73 8.68945 37.4146 9.00488 37.4146 9.39398C37.4146 9.78309 37.73 10.0985 38.1191 10.0985Z" fill="#4B4E60"/>
<path d="M6.8808 36.3109C7.2699 36.3109 7.58533 35.9955 7.58533 35.6064C7.58533 35.2173 7.2699 34.9019 6.8808 34.9019C6.4917 34.9019 6.17627 35.2173 6.17627 35.6064C6.17627 35.9955 6.4917 36.3109 6.8808 36.3109Z" fill="#4B4E60"/>
<path d="M41.6601 16.2313C42.0492 16.2313 42.3646 15.9159 42.3646 15.5268C42.3646 15.1377 42.0492 14.8223 41.6601 14.8223C41.271 14.8223 40.9556 15.1377 40.9556 15.5268C40.9556 15.9159 41.271 16.2313 41.6601 16.2313Z" fill="#4B4E60"/>
<path d="M3.33979 30.1786C3.72889 30.1786 4.04432 29.8632 4.04432 29.4741C4.04432 29.085 3.72889 28.7695 3.33979 28.7695C2.95068 28.7695 2.63525 29.085 2.63525 29.4741C2.63525 29.8632 2.95068 30.1786 3.33979 30.1786Z" fill="#4B4E60"/>
<path d="M42.5815 19.6626C42.9699 19.6626 43.2847 19.3478 43.2847 18.9595C43.2847 18.5711 42.9699 18.2563 42.5815 18.2563C42.1932 18.2563 41.8784 18.5711 41.8784 18.9595C41.8784 19.3478 42.1932 19.6626 42.5815 19.6626Z" fill="#4B4E60"/>
<path d="M2.41895 26.7446C2.80727 26.7446 3.12207 26.4298 3.12207 26.0415C3.12207 25.6532 2.80727 25.3384 2.41895 25.3384C2.03062 25.3384 1.71582 25.6532 1.71582 26.0415C1.71582 26.4298 2.03062 26.7446 2.41895 26.7446Z" fill="#4B4E60"/>
<path d="M42.8906 23.2031C43.279 23.2031 43.5938 22.8883 43.5938 22.5C43.5938 22.1117 43.279 21.7969 42.8906 21.7969C42.5023 21.7969 42.1875 22.1117 42.1875 22.5C42.1875 22.8883 42.5023 23.2031 42.8906 23.2031Z" fill="#4B4E60"/>
<path d="M2.10938 23.2031C2.4977 23.2031 2.8125 22.8883 2.8125 22.5C2.8125 22.1117 2.4977 21.7969 2.10938 21.7969C1.72105 21.7969 1.40625 22.1117 1.40625 22.5C1.40625 22.8883 1.72105 23.2031 2.10938 23.2031Z" fill="#4B4E60"/>
<path d="M42.5815 26.7446C42.9699 26.7446 43.2847 26.4298 43.2847 26.0415C43.2847 25.6532 42.9699 25.3384 42.5815 25.3384C42.1932 25.3384 41.8784 25.6532 41.8784 26.0415C41.8784 26.4298 42.1932 26.7446 42.5815 26.7446Z" fill="#4B4E60"/>
<path d="M2.41895 19.6626C2.80727 19.6626 3.12207 19.3478 3.12207 18.9595C3.12207 18.5711 2.80727 18.2563 2.41895 18.2563C2.03062 18.2563 1.71582 18.5711 1.71582 18.9595C1.71582 19.3478 2.03062 19.6626 2.41895 19.6626Z" fill="#4B4E60"/>
<path d="M41.6601 30.1786C42.0492 30.1786 42.3646 29.8632 42.3646 29.4741C42.3646 29.085 42.0492 28.7695 41.6601 28.7695C41.271 28.7695 40.9556 29.085 40.9556 29.4741C40.9556 29.8632 41.271 30.1786 41.6601 30.1786Z" fill="#4B4E60"/>
<path d="M3.33979 16.2313C3.72889 16.2313 4.04432 15.9159 4.04432 15.5268C4.04432 15.1377 3.72889 14.8223 3.33979 14.8223C2.95068 14.8223 2.63525 15.1377 2.63525 15.5268C2.63525 15.9159 2.95068 16.2313 3.33979 16.2313Z" fill="#4B4E60"/>
<path d="M38.1191 36.3096C38.5075 36.3096 38.8223 35.9948 38.8223 35.6064C38.8223 35.2181 38.5075 34.9033 38.1191 34.9033C37.7308 34.9033 37.416 35.2181 37.416 35.6064C37.416 35.9948 37.7308 36.3096 38.1191 36.3096Z" fill="#4B4E60"/>
<path d="M6.88086 10.0972C7.26918 10.0972 7.58398 9.78237 7.58398 9.39404C7.58398 9.00572 7.26918 8.69092 6.88086 8.69092C6.49253 8.69092 6.17773 9.00572 6.17773 9.39404C6.17773 9.78237 6.49253 10.0972 6.88086 10.0972Z" fill="#4B4E60"/>
<path d="M35.6064 38.8251C35.9955 38.8251 36.3109 38.5096 36.3109 38.1205C36.3109 37.7314 35.9955 37.416 35.6064 37.416C35.2173 37.416 34.9019 37.7314 34.9019 38.1205C34.9019 38.5096 35.2173 38.8251 35.6064 38.8251Z" fill="#4B4E60"/>
<path d="M9.39398 7.58387C9.78309 7.58387 10.0985 7.26844 10.0985 6.87934C10.0985 6.49023 9.78309 6.1748 9.39398 6.1748C9.00488 6.1748 8.68945 6.49023 8.68945 6.87934C8.68945 7.26844 9.00488 7.58387 9.39398 7.58387Z" fill="#4B4E60"/>
<path d="M32.6953 40.8627C33.0844 40.8627 33.3998 40.5472 33.3998 40.1581C33.3998 39.769 33.0844 39.4536 32.6953 39.4536C32.3062 39.4536 31.9907 39.769 31.9907 40.1581C31.9907 40.5472 32.3062 40.8627 32.6953 40.8627Z" fill="#4B4E60"/>
<path d="M12.3046 5.54627C12.6937 5.54627 13.0092 5.23084 13.0092 4.84174C13.0092 4.45264 12.6937 4.13721 12.3046 4.13721C11.9155 4.13721 11.6001 4.45264 11.6001 4.84174C11.6001 5.23084 11.9155 5.54627 12.3046 5.54627Z" fill="#4B4E60"/>
<path d="M29.4736 42.3652C29.862 42.3652 30.1768 42.0504 30.1768 41.6621C30.1768 41.2738 29.862 40.959 29.4736 40.959C29.0853 40.959 28.7705 41.2738 28.7705 41.6621C28.7705 42.0504 29.0853 42.3652 29.4736 42.3652Z" fill="#4B4E60"/>
<path d="M15.5264 4.04199C15.9147 4.04199 16.2295 3.72719 16.2295 3.33887C16.2295 2.95054 15.9147 2.63574 15.5264 2.63574C15.138 2.63574 14.8232 2.95054 14.8232 3.33887C14.8232 3.72719 15.138 4.04199 15.5264 4.04199Z" fill="#4B4E60"/>
<path d="M26.041 43.2847C26.4293 43.2847 26.7441 42.9699 26.7441 42.5815C26.7441 42.1932 26.4293 41.8784 26.041 41.8784C25.6527 41.8784 25.3379 42.1932 25.3379 42.5815C25.3379 42.9699 25.6527 43.2847 26.041 43.2847Z" fill="#4B4E60"/>
<path d="M18.959 3.12207C19.3473 3.12207 19.6621 2.80727 19.6621 2.41895C19.6621 2.03062 19.3473 1.71582 18.959 1.71582C18.5707 1.71582 18.2559 2.03062 18.2559 2.41895C18.2559 2.80727 18.5707 3.12207 18.959 3.12207Z" fill="#4B4E60"/>
</svg>
