<svg width="28" height="28" viewBox="0 0 28 28" fill="none" xmlns="http://www.w3.org/2000/svg">
<path d="M24.0625 27.125H5.6875C5.446 27.125 5.25 26.929 5.25 26.6875C5.25 26.446 5.446 26.25 5.6875 26.25H23.625V3.0625C23.625 2.821 23.821 2.625 24.0625 2.625C24.304 2.625 24.5 2.821 24.5 3.0625V26.6875C24.5 26.929 24.304 27.125 24.0625 27.125Z" fill="#343745"/>
<path d="M22.3125 25.375H3.9375C3.696 25.375 3.5 25.179 3.5 24.9375V6.5625C3.5 6.321 3.696 6.125 3.9375 6.125C4.179 6.125 4.375 6.321 4.375 6.5625V24.5H21.875V1.75H10.9375C10.696 1.75 10.5 1.554 10.5 1.3125C10.5 1.071 10.696 0.875 10.9375 0.875H22.3125C22.554 0.875 22.75 1.071 22.75 1.3125V24.9375C22.75 25.179 22.554 25.375 22.3125 25.375Z" fill="#343745"/>
<path d="M9.18723 7.00016H3.9556C3.77885 7.00016 3.6196 6.89341 3.55223 6.72979C3.48398 6.56704 3.5216 6.37891 3.64585 6.25379L8.87748 1.00379C9.0026 0.876912 9.1916 0.841037 9.35435 0.908412C9.51798 0.975787 9.62473 1.13591 9.62473 1.31266V6.56266C9.62473 6.80416 9.42873 7.00016 9.18723 7.00016ZM5.00998 6.12516H8.74973V2.37141L5.00998 6.12516Z" fill="#343745"/>
<path d="M6.5625 13.125H13.5625C13.804 13.125 14 12.929 14 12.6875C14 12.446 13.804 12.25 13.5625 12.25H6.5625C6.321 12.25 6.125 12.446 6.125 12.6875C6.125 12.929 6.321 13.125 6.5625 13.125Z" fill="#343745"/>
<path d="M6.5625 14.875H10.9375C11.179 14.875 11.375 14.679 11.375 14.4375C11.375 14.196 11.179 14 10.9375 14H6.5625C6.321 14 6.125 14.196 6.125 14.4375C6.125 14.679 6.321 14.875 6.5625 14.875Z" fill="#343745"/>
<path d="M12.6875 14.875H19.6875C19.929 14.875 20.125 14.679 20.125 14.4375C20.125 14.196 19.929 14 19.6875 14H12.6875C12.446 14 12.25 14.196 12.25 14.4375C12.25 14.679 12.446 14.875 12.6875 14.875Z" fill="#343745"/>
<path d="M6.5625 18.375H12.6875C12.929 18.375 13.125 18.179 13.125 17.9375C13.125 17.696 12.929 17.5 12.6875 17.5H6.5625C6.321 17.5 6.125 17.696 6.125 17.9375C6.125 18.179 6.321 18.375 6.5625 18.375Z" fill="#343745"/>
<path d="M6.5625 16.625H15.3125C15.554 16.625 15.75 16.429 15.75 16.1875C15.75 15.946 15.554 15.75 15.3125 15.75H6.5625C6.321 15.75 6.125 15.946 6.125 16.1875C6.125 16.429 6.321 16.625 6.5625 16.625Z" fill="#343745"/>
<path d="M17.0625 16.625H19.6875C19.929 16.625 20.125 16.429 20.125 16.1875C20.125 15.946 19.929 15.75 19.6875 15.75H17.0625C16.821 15.75 16.625 15.946 16.625 16.1875C16.625 16.429 16.821 16.625 17.0625 16.625Z" fill="#343745"/>
<path d="M15.3125 13.125H19.6875C19.929 13.125 20.125 12.929 20.125 12.6875C20.125 12.446 19.929 12.25 19.6875 12.25H15.3125C15.071 12.25 14.875 12.446 14.875 12.6875C14.875 12.929 15.071 13.125 15.3125 13.125Z" fill="#343745"/>
<path d="M8.3125 9.625H19.6875C19.929 9.625 20.125 9.429 20.125 9.1875C20.125 8.946 19.929 8.75 19.6875 8.75H8.3125C8.071 8.75 7.875 8.946 7.875 9.1875C7.875 9.429 8.071 9.625 8.3125 9.625Z" fill="#343745"/>
<path d="M6.5625 11.375H19.6875C19.929 11.375 20.125 11.179 20.125 10.9375C20.125 10.696 19.929 10.5 19.6875 10.5H6.5625C6.321 10.5 6.125 10.696 6.125 10.9375C6.125 11.179 6.321 11.375 6.5625 11.375Z" fill="#343745"/>
</svg>
