<svg width="28" height="28" viewBox="0 0 28 28" fill="none" xmlns="http://www.w3.org/2000/svg">
<path d="M13.9997 24.5C13.8579 24.5 13.7249 24.4309 13.6427 24.3154L6.20518 13.8154C6.11156 13.6815 6.09843 13.5065 6.17368 13.3612C6.24893 13.216 6.39856 13.125 6.56218 13.125H8.74968V6.5625C8.74968 6.321 8.94568 6.125 9.18718 6.125C9.42868 6.125 9.62468 6.321 9.62468 6.5625V13.5625C9.62468 13.804 9.42868 14 9.18718 14H7.40831L13.9997 23.3056L20.5911 14H18.8122C18.5707 14 18.3747 13.804 18.3747 13.5625V1.3125C18.3747 1.071 18.5707 0.875 18.8122 0.875C19.0537 0.875 19.2497 1.071 19.2497 1.3125V13.125H21.4372C21.6008 13.125 21.7504 13.216 21.8257 13.3621C21.9009 13.5083 21.8878 13.6824 21.7942 13.8162L14.3567 24.3162C14.2744 24.4309 14.1414 24.5 13.9997 24.5Z" fill="#343745"/>
<path d="M25.8125 27.125H2.1875C1.946 27.125 1.75 26.929 1.75 26.6875V22.3125C1.75 22.071 1.946 21.875 2.1875 21.875C2.429 21.875 2.625 22.071 2.625 22.3125V26.25H25.375V22.3125C25.375 22.071 25.571 21.875 25.8125 21.875C26.054 21.875 26.25 22.071 26.25 22.3125V26.6875C26.25 26.929 26.054 27.125 25.8125 27.125Z" fill="#343745"/>
<path d="M9.625 4.8125C9.625 5.05313 9.42813 5.25 9.1875 5.25C8.94687 5.25 8.75 5.05313 8.75 4.8125C8.75 4.57187 8.94687 4.375 9.1875 4.375C9.42813 4.375 9.625 4.57187 9.625 4.8125Z" fill="#343745"/>
<path d="M9.625 3.0625C9.625 3.30313 9.42813 3.5 9.1875 3.5C8.94687 3.5 8.75 3.30313 8.75 3.0625C8.75 2.82187 8.94687 2.625 9.1875 2.625C9.42813 2.625 9.625 2.82187 9.625 3.0625Z" fill="#343745"/>
<path d="M9.625 1.3125C9.625 1.55313 9.42813 1.75 9.1875 1.75C8.94687 1.75 8.75 1.55313 8.75 1.3125C8.75 1.07187 8.94687 0.875 9.1875 0.875C9.42813 0.875 9.625 1.07187 9.625 1.3125Z" fill="#343745"/>
<path d="M26.25 20.5625C26.25 20.8031 26.0531 21 25.8125 21C25.5719 21 25.375 20.8031 25.375 20.5625C25.375 20.3219 25.5719 20.125 25.8125 20.125C26.0531 20.125 26.25 20.3219 26.25 20.5625Z" fill="#343745"/>
<path d="M2.625 20.5625C2.625 20.8031 2.42813 21 2.1875 21C1.94687 21 1.75 20.8031 1.75 20.5625C1.75 20.3219 1.94687 20.125 2.1875 20.125C2.42813 20.125 2.625 20.3219 2.625 20.5625Z" fill="#343745"/>
</svg>
