<svg width="44" height="44" viewBox="0 0 44 44" fill="none" xmlns="http://www.w3.org/2000/svg">
<path d="M39.1875 42.625H30.9375C30.558 42.625 30.25 42.317 30.25 41.9375C30.25 41.558 30.558 41.25 30.9375 41.25H39.1875C39.567 41.25 39.875 41.558 39.875 41.9375C39.875 42.317 39.567 42.625 39.1875 42.625Z" fill="#FE4B4B"/>
<path d="M21.3125 42.625H13.0625C12.683 42.625 12.375 42.317 12.375 41.9375C12.375 41.558 12.683 41.25 13.0625 41.25H21.3125C21.692 41.25 22 41.558 22 41.9375C22 42.317 21.692 42.625 21.3125 42.625Z" fill="#FE4B4B"/>
<path d="M41.9375 42.625C42.3172 42.625 42.625 42.3172 42.625 41.9375C42.625 41.5578 42.3172 41.25 41.9375 41.25C41.5578 41.25 41.25 41.5578 41.25 41.9375C41.25 42.3172 41.5578 42.625 41.9375 42.625Z" fill="#4B4E60"/>
<path d="M24.0625 42.625C24.4422 42.625 24.75 42.3172 24.75 41.9375C24.75 41.5578 24.4422 41.25 24.0625 41.25C23.6828 41.25 23.375 41.5578 23.375 41.9375C23.375 42.3172 23.6828 42.625 24.0625 42.625Z" fill="#4B4E60"/>
<path d="M21.3125 18.5625C20.933 18.5625 20.625 18.2545 20.625 17.875V4.8125C20.625 3.67537 19.6996 2.75 18.5625 2.75H12.375C11.9955 2.75 11.6875 2.442 11.6875 2.0625C11.6875 1.683 11.9955 1.375 12.375 1.375H18.5625C20.4586 1.375 22 2.91638 22 4.8125V17.875C22 18.2545 21.692 18.5625 21.3125 18.5625Z" fill="#FE4B4B"/>
<path d="M18.5625 20.625C18.183 20.625 17.875 20.317 17.875 19.9375V6.1875C17.875 4.29138 16.3336 2.75 14.4375 2.75H11.6875C9.79138 2.75 8.25 4.29138 8.25 6.1875V17.1875C8.25 17.567 7.942 17.875 7.5625 17.875C7.183 17.875 6.875 17.567 6.875 17.1875V6.1875C6.875 3.53375 9.03375 1.375 11.6875 1.375H14.4375C17.0912 1.375 19.25 3.53375 19.25 6.1875V19.9375C19.25 20.317 18.942 20.625 18.5625 20.625Z" fill="#4B4E60"/>
<path d="M7.5625 31.625C7.183 31.625 6.875 31.317 6.875 30.9375V19.9375C6.875 19.558 7.183 19.25 7.5625 19.25C7.942 19.25 8.25 19.558 8.25 19.9375V30.9375C8.25 31.317 7.942 31.625 7.5625 31.625Z" fill="#4B4E60"/>
<path d="M18.5625 31.625C18.183 31.625 17.875 31.317 17.875 30.9375V17.875H7.5625C7.183 17.875 6.875 17.567 6.875 17.1875C6.875 16.808 7.183 16.5 7.5625 16.5H18.5625C18.942 16.5 19.25 16.808 19.25 17.1875V30.9375C19.25 31.317 18.942 31.625 18.5625 31.625Z" fill="#4B4E60"/>
<path d="M13.0624 42.625C12.8026 42.625 12.5647 42.4779 12.4478 42.2455L6.94781 31.2455C6.77869 30.9059 6.91619 30.4934 7.25581 30.3229C7.59681 30.1537 8.00794 30.2913 8.17844 30.6309L13.0624 40.4002L17.4501 31.625H10.3124C9.93294 31.625 9.62494 31.317 9.62494 30.9375C9.62494 30.558 9.93294 30.25 10.3124 30.25H18.5624C18.8003 30.25 19.0217 30.3737 19.1482 30.5759C19.2733 30.778 19.2843 31.031 19.1771 31.2441L13.6771 42.2441C13.5602 42.4779 13.3223 42.625 13.0624 42.625Z" fill="#4B4E60"/>
<path d="M36.4375 11C36.058 11 35.75 10.692 35.75 10.3125V6.1875C35.75 4.29138 34.2086 2.75 32.3125 2.75H29.5625C27.6664 2.75 26.125 4.29138 26.125 6.1875V7.5625C26.125 7.942 25.817 8.25 25.4375 8.25C25.058 8.25 24.75 7.942 24.75 7.5625V6.1875C24.75 3.53375 26.9088 1.375 29.5625 1.375H32.3125C34.9662 1.375 37.125 3.53375 37.125 6.1875V10.3125C37.125 10.692 36.817 11 36.4375 11Z" fill="#4B4E60"/>
<path d="M30.9374 42.6251C30.6776 42.6251 30.4397 42.4779 30.3228 42.2456L24.8228 31.2456C24.6537 30.9059 24.7912 30.4934 25.1308 30.3229C25.4718 30.1538 25.8829 30.2913 26.0534 30.6309L30.9388 40.4003L35.5671 31.1438L33.6874 29.7344L31.3499 31.4876C31.1052 31.6704 30.7697 31.6704 30.5249 31.4876L27.7749 29.4251C27.4711 29.1968 27.4092 28.7664 27.6361 28.4626C27.8657 28.1587 28.2961 28.0968 28.5986 28.3237L30.9361 30.0768L33.2736 28.3237C33.5183 28.1408 33.8538 28.1408 34.0986 28.3237L36.8486 30.3862C37.1139 30.5869 37.2006 30.9472 37.0507 31.2442L31.5507 42.2442C31.4352 42.4779 31.1973 42.6251 30.9374 42.6251Z" fill="#4B4E60"/>
<path d="M33.6875 29.5625C33.308 29.5625 33 29.2545 33 28.875V10.3125C33 9.933 33.308 9.625 33.6875 9.625C34.067 9.625 34.375 9.933 34.375 10.3125V28.875C34.375 29.2545 34.067 29.5625 33.6875 29.5625Z" fill="#4B4E60"/>
<path d="M28.1875 29.5625C27.808 29.5625 27.5 29.2545 27.5 28.875V13.0625C27.5 12.683 27.808 12.375 28.1875 12.375C28.567 12.375 28.875 12.683 28.875 13.0625V28.875C28.875 29.2545 28.567 29.5625 28.1875 29.5625Z" fill="#4B4E60"/>
<path d="M28.1875 11C28.5672 11 28.875 10.6922 28.875 10.3125C28.875 9.9328 28.5672 9.625 28.1875 9.625C27.8078 9.625 27.5 9.9328 27.5 10.3125C27.5 10.6922 27.8078 11 28.1875 11Z" fill="#4B4E60"/>
<path d="M33.6875 37.125H30.9375C30.558 37.125 30.25 36.817 30.25 36.4375C30.25 36.058 30.558 35.75 30.9375 35.75H33.6875C34.067 35.75 34.375 36.058 34.375 36.4375C34.375 36.817 34.067 37.125 33.6875 37.125Z" fill="#4B4E60"/>
<path d="M25.4375 31.625C25.058 31.625 24.75 31.317 24.75 30.9375V10.3125C24.75 9.933 25.058 9.625 25.4375 9.625C25.817 9.625 26.125 9.933 26.125 10.3125V30.9375C26.125 31.317 25.817 31.625 25.4375 31.625Z" fill="#4B4E60"/>
<path d="M36.4375 31.625C36.058 31.625 35.75 31.317 35.75 30.9375V8.25H25.4375C25.058 8.25 24.75 7.942 24.75 7.5625C24.75 7.183 25.058 6.875 25.4375 6.875H36.4375C36.817 6.875 37.125 7.183 37.125 7.5625V30.9375C37.125 31.317 36.817 31.625 36.4375 31.625Z" fill="#4B4E60"/>
</svg>
