<svg width="44" height="44" viewBox="0 0 44 44" fill="none" xmlns="http://www.w3.org/2000/svg">
<path d="M10.8996 42.4392C10.5517 42.4392 10.2534 42.1766 10.2176 41.8232L9.66486 36.5185H6.49136C5.60861 36.5185 4.85098 35.8324 4.76436 34.9551L4.36286 30.8274H2.69636C2.19998 30.8274 1.78886 30.617 1.56886 30.2485C1.34886 29.8814 1.35711 29.418 1.59223 28.9807L3.99436 23.6595L3.90773 22.125C3.90636 19.496 5.09298 16.9619 7.16236 15.1331C7.44561 14.8815 7.88148 14.9076 8.13311 15.1936C8.38473 15.4782 8.35723 15.9127 8.07261 16.1644C6.27136 17.7539 5.28136 19.8576 5.28136 22.0865L5.37623 23.7502C5.38311 23.8602 5.36248 23.9716 5.31711 24.072L2.88748 29.4482L4.98711 29.4524C5.34186 29.4524 5.63748 29.7205 5.67186 30.0725L6.13386 34.8204C6.15036 34.9895 6.32086 35.1421 6.49136 35.1421H10.2836C10.6356 35.1421 10.9312 35.4075 10.967 35.7581L11.5844 41.6802C11.6242 42.057 11.3492 42.3966 10.9725 42.4351C10.9477 42.4379 10.923 42.4392 10.8996 42.4392Z" fill="#4B4E60"/>
<path d="M17.4872 42.4957C17.1407 42.4957 16.8424 42.2344 16.8052 41.881L15.9871 34.2223H12.243C11.2777 34.2223 10.45 33.4715 10.3606 32.5145L9.88899 27.68H7.87874C7.34386 27.68 6.90386 27.4559 6.66874 27.0654C6.43499 26.6735 6.44599 26.1785 6.69761 25.7069L9.47374 19.5593L9.37336 17.7635C9.37199 14.2903 11.1966 10.9875 14.2532 8.8948C14.5654 8.6803 14.9944 8.76005 15.2075 9.07355C15.422 9.38705 15.3436 9.8133 15.0287 10.0278C12.3475 11.8662 10.747 14.744 10.747 17.725L10.8556 19.6487C10.8625 19.76 10.8419 19.87 10.7965 19.9704L7.93924 26.294L10.5132 26.305C10.868 26.305 11.1636 26.5732 11.198 26.9252L11.7301 32.3825C11.7535 32.6314 11.9927 32.8473 12.243 32.8473H16.6045C16.9565 32.8473 17.2507 33.1113 17.2879 33.4619L18.172 41.7367C18.2119 42.1134 17.9396 42.453 17.5615 42.4929C17.5367 42.4943 17.512 42.4957 17.4872 42.4957Z" fill="#4B4E60"/>
<path d="M22.6504 32.2643H19.0946C18.0496 32.2643 17.1559 31.4517 17.0569 30.4135L16.5179 24.8682H14.1611C13.5891 24.8682 13.1189 24.6303 12.8714 24.215C12.6239 23.8012 12.6362 23.2745 12.9085 22.7699L16.0545 15.7945L15.9404 13.7403C15.939 6.86665 22.0536 1.30615 29.5707 1.30615C36.9902 1.30615 42.5879 7.1664 42.5879 14.9352C42.5879 17.9024 41.8619 20.728 40.3659 23.5715C40.1899 23.9084 39.7719 24.0349 39.4377 23.8603C39.1009 23.6843 38.9716 23.2677 39.149 22.9322C40.5377 20.2894 41.2129 17.6742 41.2129 14.9352C41.2129 7.94878 36.2079 2.68115 29.5707 2.68115C22.8126 2.68115 17.314 7.62565 17.314 13.7032L17.4364 15.8867C17.4432 15.9967 17.4226 16.1067 17.3772 16.207L14.1405 23.3804C14.1144 23.4285 14.0979 23.467 14.0869 23.4932C14.1089 23.4945 14.1309 23.4945 14.1611 23.4945H17.1421C17.4969 23.4945 17.7925 23.7627 17.8269 24.116L18.4264 30.2843C18.4566 30.6129 18.7632 30.8893 19.0946 30.8893H22.6504C23.0299 30.8893 23.3379 31.1973 23.3379 31.5768C23.3379 31.9563 23.0299 32.2643 22.6504 32.2643Z" fill="#4B4E60"/>
<path d="M30.7973 24.6495H28.325C28.0019 24.6495 27.7227 24.424 27.654 24.1078L27.247 22.2488C26.6764 22.0824 26.1278 21.8541 25.6053 21.5668L24.002 22.5939C23.7297 22.7685 23.3736 22.73 23.1454 22.5018L21.3978 20.7541C21.1695 20.5259 21.131 20.1684 21.3056 19.8975L22.3328 18.2943C22.0454 17.7718 21.8171 17.2231 21.6508 16.6525L19.7918 16.2455C19.4741 16.1768 19.25 15.8976 19.25 15.5731V13.0995C19.25 12.7764 19.4741 12.4973 19.7904 12.4285L21.648 12.0215C21.8158 11.4495 22.0454 10.9009 22.3314 10.3798L21.3043 8.7765C21.1296 8.50563 21.1681 8.14813 21.3964 7.91988L23.144 6.17225C23.3723 5.944 23.7284 5.9055 24.0006 6.08013L25.6039 7.10725C26.1278 6.81988 26.6764 6.59163 27.2456 6.42525L27.6526 4.56625C27.7214 4.25138 28.0005 4.02588 28.3236 4.02588H30.7973C31.1204 4.02588 31.3995 4.25 31.4683 4.56625L31.8752 6.42663C32.4445 6.59163 32.9931 6.81988 33.517 7.10725L35.1203 6.08013C35.3939 5.90413 35.75 5.94263 35.9783 6.17088L37.7259 7.9185C37.9541 8.14675 37.9926 8.50425 37.818 8.77513L36.7923 10.3811C37.0796 10.905 37.3079 11.4536 37.4729 12.0215L39.3333 12.4285C39.6481 12.4973 39.8736 12.7764 39.8736 13.0995V15.5731C39.8736 15.8963 39.6495 16.1754 39.3333 16.2441L37.4729 16.6511C37.3079 17.219 37.0796 17.769 36.7923 18.2915L37.8194 19.8961C37.994 20.167 37.9555 20.5245 37.7273 20.7528L35.9796 22.5018C35.75 22.7314 35.3939 22.7658 35.123 22.5939L33.5198 21.5654C32.9973 21.8528 32.4486 22.0796 31.878 22.246L31.471 24.1064C31.4009 24.424 31.1218 24.6495 30.7973 24.6495ZM28.8778 23.2745H30.2445L30.6226 21.5448C30.679 21.2863 30.8798 21.0814 31.1369 21.0209C31.8574 20.8531 32.5408 20.5685 33.1705 20.178C33.3933 20.0391 33.6806 20.0391 33.9034 20.1835L35.3953 21.1391L36.3619 20.1725L35.4063 18.6806C35.2633 18.4579 35.2619 18.1733 35.3994 17.9491C35.794 17.3111 36.0772 16.6278 36.2436 15.9141C36.3041 15.6556 36.5076 15.4563 36.7661 15.3999L38.4959 15.0218V13.6536L36.7675 13.2741C36.509 13.2178 36.3055 13.017 36.245 12.7599C36.0786 12.0449 35.7954 11.3615 35.4008 10.7249C35.2619 10.5008 35.2646 10.2161 35.4076 9.99338L36.3633 8.5015L35.3966 7.53488L33.9048 8.4905C33.682 8.63488 33.3974 8.63488 33.1719 8.496C32.5394 8.10413 31.856 7.82088 31.1383 7.65313C30.8798 7.59263 30.6804 7.38913 30.624 7.13063L30.2459 5.40088H28.8791L28.501 7.13063C28.4446 7.38913 28.2439 7.59263 27.9854 7.65313C27.269 7.8195 26.5856 8.10275 25.9518 8.496C25.7276 8.63488 25.443 8.63488 25.2189 8.4905L23.727 7.53488L22.7604 8.5015L23.716 9.99338C23.859 10.2161 23.8604 10.5021 23.7215 10.7263C23.331 11.3546 23.0464 12.0394 22.8745 12.7613C22.814 13.0198 22.6119 13.2178 22.3534 13.2741L20.625 13.6536V15.0204L22.3547 15.3985C22.6132 15.4549 22.8168 15.6556 22.8773 15.9128C23.045 16.6319 23.3282 17.3166 23.7201 17.9464C23.8604 18.1705 23.859 18.4565 23.7146 18.6793L22.759 20.1711L23.7256 21.1378L25.2175 20.1821C25.4416 20.0391 25.729 20.0391 25.9504 20.1766C26.5815 20.5685 27.2649 20.8531 27.984 21.0195C28.2425 21.08 28.4432 21.2835 28.4996 21.5434L28.8778 23.2745ZM29.5597 19.1509C26.906 19.1509 24.7472 16.9921 24.7472 14.3384C24.7472 11.6846 26.906 9.52588 29.5597 9.52588C32.2135 9.52588 34.3723 11.6846 34.3723 14.3384C34.3723 16.9921 32.2135 19.1509 29.5597 19.1509ZM29.5597 10.9009C27.6636 10.9009 26.1222 12.4423 26.1222 14.3384C26.1222 16.2345 27.6636 17.7759 29.5597 17.7759C31.4559 17.7759 32.9972 16.2345 32.9972 14.3384C32.9972 12.4423 31.4559 10.9009 29.5597 10.9009Z" fill="#FE4B4B"/>
<path d="M34.9841 41.1592H32.9436C32.6205 41.1592 32.3414 40.9337 32.2726 40.6174L31.9536 39.153C31.5233 39.0224 31.1053 38.8492 30.7079 38.636L29.4429 39.4445C29.1706 39.6205 28.8145 39.5807 28.5863 39.3524L27.1425 37.9087C26.9143 37.6804 26.8758 37.3229 27.0504 37.0507L27.8616 35.7884C27.6471 35.3897 27.4739 34.9717 27.3433 34.5427L25.8803 34.2223C25.5654 34.1535 25.3385 33.8744 25.3385 33.5513V31.5108C25.3385 31.1877 25.564 30.9085 25.8803 30.8398L27.3433 30.5194C27.4739 30.089 27.6471 29.6724 27.8616 29.2737L27.0504 28.0087C26.8758 27.7378 26.9143 27.3803 27.1425 27.152L28.5849 25.7097C28.8131 25.4814 29.1693 25.4415 29.4415 25.6175L30.7065 26.426C31.1039 26.2129 31.5219 26.0383 31.9523 25.9077L32.2713 24.446C32.34 24.1312 32.6191 23.9043 32.9423 23.9043H34.9828C35.3045 23.9043 35.585 24.1284 35.6538 24.4447L35.9741 25.9077C36.4045 26.0383 36.8211 26.2115 37.2213 26.426L38.4835 25.6175C38.7558 25.4443 39.1105 25.4814 39.3401 25.7097L40.7825 27.152C41.0108 27.3803 41.0493 27.7364 40.8746 28.0087L40.0661 29.2737C40.2793 29.6724 40.4539 30.0904 40.5845 30.5194L42.0475 30.8398C42.3624 30.9085 42.5893 31.1877 42.5893 31.5108V33.5499C42.5893 33.873 42.3638 34.1522 42.0475 34.2209L40.5831 34.5413C40.4539 34.9717 40.2806 35.3869 40.0661 35.787L40.8746 37.0507C41.0493 37.3215 41.0108 37.679 40.7825 37.9073L39.3401 39.351C39.1105 39.5807 38.7503 39.615 38.4835 39.4432L37.2213 38.6333C36.8211 38.8464 36.4045 39.0197 35.9741 39.1503L35.6538 40.616C35.5878 40.935 35.3086 41.1592 34.9841 41.1592ZM33.4978 39.7842H34.4314L34.7243 38.449C34.7806 38.1905 34.9828 37.987 35.2399 37.9265C35.8174 37.7918 36.3688 37.5635 36.8816 37.2473C37.1044 37.107 37.3904 37.1084 37.6131 37.2528L38.7613 37.9884L39.4213 37.3284L38.6856 36.1789C38.5426 35.9562 38.5413 35.6715 38.6801 35.446C38.9978 34.9332 39.226 34.3818 39.3594 33.807C39.4199 33.5485 39.622 33.3464 39.8833 33.29L41.217 32.9985V32.0635L39.886 31.772C39.6275 31.7157 39.424 31.5149 39.3635 31.2578C39.226 30.6789 38.9964 30.1275 38.6801 29.616C38.5399 29.3905 38.5413 29.1059 38.6856 28.8832L39.4213 27.7323L38.7613 27.0723L37.6131 27.8079C37.3904 27.9509 37.1044 27.9509 36.8816 27.8134C36.3674 27.4958 35.8146 27.2662 35.2385 27.13C34.98 27.0695 34.7806 26.8674 34.7243 26.6089L34.4314 25.2779H33.4964L33.2063 26.6062C33.1499 26.8647 32.9491 27.0682 32.692 27.1287C32.1118 27.2662 31.5604 27.4958 31.0503 27.812C30.8289 27.9509 30.5415 27.9509 30.3174 27.8065L29.1665 27.0709L28.5065 27.7309L29.2449 28.8818C29.3879 29.1045 29.3893 29.3892 29.2504 29.6147C28.9341 30.1262 28.7045 30.6775 28.567 31.2564C28.5065 31.5149 28.3044 31.7143 28.0445 31.7707L26.7135 32.0622V32.9972L28.0445 33.2887C28.303 33.345 28.5065 33.5458 28.567 33.8029C28.7045 34.3818 28.9341 34.9332 29.2504 35.4447C29.3906 35.6702 29.3893 35.9548 29.2449 36.1789L28.5079 37.3284L29.1665 37.987L30.3174 37.2514C30.5415 37.1084 30.8289 37.1084 31.0503 37.2459C31.5576 37.5608 32.1104 37.7904 32.6906 37.9252C32.9491 37.9857 33.1499 38.1892 33.2063 38.449L33.4978 39.7842ZM33.9639 36.6217C31.7075 36.6217 29.8733 34.7874 29.8733 32.531C29.8733 30.2747 31.7075 28.4404 33.9639 28.4404C36.2203 28.4404 38.0545 30.2747 38.0545 32.531C38.0545 34.7874 36.2203 36.6217 33.9639 36.6217ZM33.9639 29.8168C32.4665 29.8168 31.2483 31.035 31.2483 32.5324C31.2483 34.0298 32.4665 35.248 33.9639 35.248C35.4613 35.248 36.6795 34.0298 36.6795 32.5324C36.6795 31.035 35.4613 29.8168 33.9639 29.8168Z" fill="#FE4B4B"/>
</svg>
