<svg width="45" height="45" viewBox="0 0 45 45" fill="none" xmlns="http://www.w3.org/2000/svg">
<path d="M31.6544 13.3441C31.9301 13.6197 32.3744 13.6183 32.6501 13.3441L35.0618 10.9338C35.336 10.6596 35.336 10.2138 35.0618 9.93955C34.7876 9.66533 34.3418 9.66533 34.0676 9.93955L31.6544 12.3499C31.3788 12.6255 31.3802 13.0699 31.6544 13.3441Z" fill="#4B4E60"/>
<path d="M36.5625 11.25C35.0114 11.25 33.75 9.99 33.75 8.4375C33.75 6.88641 35.0114 5.625 36.5625 5.625C38.1136 5.625 39.375 6.88641 39.375 8.4375C39.375 9.99 38.1136 11.25 36.5625 11.25ZM36.5625 7.03125C35.7863 7.03125 35.1562 7.66125 35.1562 8.4375C35.1562 9.21234 35.7863 9.84375 36.5625 9.84375C37.3387 9.84375 37.9688 9.21234 37.9688 8.4375C37.9688 7.66125 37.3387 7.03125 36.5625 7.03125Z" fill="#4B4E60"/>
<path d="M40.7812 19.6875C42.3337 19.6875 43.5938 20.9489 43.5938 22.5C43.5938 24.0511 42.3337 25.3125 40.7812 25.3125C39.2287 25.3125 37.9688 24.0511 37.9688 22.5C37.9688 20.9489 39.2287 19.6875 40.7812 19.6875ZM40.7812 21.0938C40.0064 21.0938 39.375 21.7238 39.375 22.5C39.375 23.2762 40.0064 23.9062 40.7812 23.9062C41.5561 23.9062 42.1875 23.2748 42.1875 22.5C42.1875 21.7238 41.5561 21.0938 40.7812 21.0938Z" fill="#4B4E60"/>
<path d="M35.1562 22.5C35.1562 22.8881 35.4712 23.2031 35.8594 23.2031H37.9688C38.3569 23.2031 38.6719 22.8881 38.6719 22.5C38.6719 22.1119 38.3569 21.7969 37.9688 21.7969H35.8594C35.4712 21.7969 35.1562 22.1119 35.1562 22.5Z" fill="#4B4E60"/>
<path d="M7.03125 22.5C7.03125 24.0511 5.77125 25.3125 4.21875 25.3125C2.66625 25.3125 1.40625 24.0525 1.40625 22.5C1.40625 20.9489 2.66625 19.6875 4.21875 19.6875C5.77125 19.6875 7.03125 20.9489 7.03125 22.5ZM2.8125 22.5C2.8125 23.2762 3.44391 23.9062 4.21875 23.9062C4.99359 23.9062 5.625 23.2748 5.625 22.5C5.625 21.7238 4.99359 21.0938 4.21875 21.0938C3.44391 21.0938 2.8125 21.7238 2.8125 22.5Z" fill="#4B4E60"/>
<path d="M9.14062 22.5C9.14062 22.8881 8.82562 23.2031 8.4375 23.2031H7.03125C6.64312 23.2031 6.32812 22.8881 6.32812 22.5C6.32812 22.1119 6.64312 21.7969 7.03125 21.7969H8.4375C8.82562 21.7969 9.14062 22.1119 9.14062 22.5Z" fill="#4B4E60"/>
<path d="M31.7057 31.7066C31.9799 31.4324 32.4257 31.4324 32.6999 31.7066L35.1116 34.117C35.3858 34.3912 35.3858 34.837 35.1116 35.1112C34.8374 35.3854 34.3916 35.3854 34.1174 35.1112L31.7057 32.6995C31.4314 32.4266 31.4314 31.9809 31.7057 31.7066Z" fill="#4B4E60"/>
<path d="M36.5625 39.375C35.0114 39.375 33.75 38.115 33.75 36.5625C33.75 35.0114 35.0114 33.75 36.5625 33.75C38.1136 33.75 39.375 35.0114 39.375 36.5625C39.375 38.115 38.1136 39.375 36.5625 39.375ZM36.5625 35.1562C35.7877 35.1562 35.1562 35.7863 35.1562 36.5625C35.1562 37.3373 35.7877 37.9688 36.5625 37.9688C37.3373 37.9688 37.9688 37.3373 37.9688 36.5625C37.9688 35.7863 37.3373 35.1562 36.5625 35.1562Z" fill="#4B4E60"/>
<path d="M13.3454 31.656C13.6182 31.9302 13.6196 32.376 13.3454 32.6502L10.9323 35.0605C10.6581 35.3347 10.2123 35.3347 9.93809 35.0605C9.66387 34.7863 9.66387 34.3405 9.93809 34.0663L12.3512 31.656C12.6268 31.3804 13.0698 31.3789 13.3454 31.656Z" fill="#4B4E60"/>
<path d="M8.4375 39.375C6.88641 39.375 5.625 38.115 5.625 36.5625C5.625 35.0114 6.88641 33.75 8.4375 33.75C9.98859 33.75 11.25 35.0114 11.25 36.5625C11.25 38.115 9.98859 39.375 8.4375 39.375ZM8.4375 35.1562C7.66125 35.1562 7.03125 35.7863 7.03125 36.5625C7.03125 37.3373 7.66125 37.9688 8.4375 37.9688C9.21375 37.9688 9.84375 37.3373 9.84375 36.5625C9.84375 35.7863 9.21375 35.1562 8.4375 35.1562Z" fill="#4B4E60"/>
<path d="M13.344 13.3441C13.0698 13.6197 12.624 13.6197 12.3498 13.3441L9.93809 10.9338C9.66387 10.6596 9.66387 10.2138 9.93809 9.93955C10.2123 9.66533 10.6581 9.66533 10.9323 9.93955L13.344 12.3513C13.6196 12.6269 13.6196 13.0699 13.344 13.3441Z" fill="#4B4E60"/>
<path d="M8.4375 11.25C6.88641 11.25 5.625 9.99 5.625 8.4375C5.625 6.88641 6.88641 5.625 8.4375 5.625C9.98859 5.625 11.25 6.88641 11.25 8.4375C11.25 9.99 9.98859 11.25 8.4375 11.25ZM8.4375 7.03125C7.66125 7.03125 7.03125 7.66125 7.03125 8.4375C7.03125 9.21234 7.66125 9.84375 8.4375 9.84375C9.21375 9.84375 9.84375 9.21234 9.84375 8.4375C9.84375 7.66125 9.21375 7.03125 8.4375 7.03125Z" fill="#4B4E60"/>
<path d="M22.5 37.9688C24.0511 37.9688 25.3125 39.2302 25.3125 40.7812C25.3125 42.3337 24.0511 43.5938 22.5 43.5938C20.9489 43.5938 19.6875 42.3337 19.6875 40.7812C19.6875 39.2302 20.9489 37.9688 22.5 37.9688ZM22.5 42.1875C23.2762 42.1875 23.9062 41.5561 23.9062 40.7812C23.9062 40.005 23.2762 39.375 22.5 39.375C21.7238 39.375 21.0938 40.005 21.0938 40.7812C21.0938 41.5561 21.7238 42.1875 22.5 42.1875Z" fill="#4B4E60"/>
<path d="M22.5 35.1562C22.8881 35.1562 23.2031 35.4712 23.2031 35.8594V37.9688C23.2031 38.3569 22.8881 38.6719 22.5 38.6719C22.1119 38.6719 21.7969 38.3569 21.7969 37.9688V35.8594C21.7969 35.4712 22.1119 35.1562 22.5 35.1562Z" fill="#4B4E60"/>
<path d="M22.5 7.03125C20.9489 7.03125 19.6875 5.77125 19.6875 4.21875C19.6875 2.66766 20.9489 1.40625 22.5 1.40625C24.0511 1.40625 25.3125 2.66766 25.3125 4.21875C25.3125 5.77125 24.0511 7.03125 22.5 7.03125ZM22.5 2.8125C21.7238 2.8125 21.0938 3.4425 21.0938 4.21875C21.0938 4.99359 21.7238 5.625 22.5 5.625C23.2762 5.625 23.9062 4.99359 23.9062 4.21875C23.9062 3.4425 23.2762 2.8125 22.5 2.8125Z" fill="#4B4E60"/>
<path d="M22.5 9.84375C22.1119 9.84375 21.7969 9.52875 21.7969 9.14062V7.03125C21.7969 6.64312 22.1119 6.32812 22.5 6.32812C22.8881 6.32812 23.2031 6.64312 23.2031 7.03125V9.14062C23.2031 9.52875 22.8881 9.84375 22.5 9.84375Z" fill="#4B4E60"/>
<path d="M22.5 33.75C16.297 33.75 11.25 28.703 11.25 22.5C11.25 16.297 16.297 11.25 22.5 11.25C28.703 11.25 33.75 16.297 33.75 22.5C33.75 28.703 28.703 33.75 22.5 33.75ZM22.5 12.6562C17.0733 12.6562 12.6562 17.0733 12.6562 22.5C12.6562 27.9267 17.0733 32.3438 22.5 32.3438C27.9267 32.3438 32.3438 27.9267 32.3438 22.5C32.3438 17.0733 27.9267 12.6562 22.5 12.6562Z" fill="#FE4B4B"/>
<path d="M14.7032 30.2589C14.4431 30.2589 14.1956 30.1141 14.0718 29.8666C13.9017 29.5178 14.0437 29.0959 14.3939 28.9244C19.206 26.5619 24.9295 26.365 29.8907 28.3872C30.2507 28.5334 30.4237 28.9441 30.2774 29.3027C30.1312 29.6627 29.7178 29.8342 29.3606 29.688C24.7678 27.8191 19.4704 28.0005 15.0154 30.1858C14.9142 30.2364 14.8073 30.2589 14.7032 30.2589Z" fill="#FE4B4B"/>
<path d="M23.2027 17.5781C21.1876 17.5781 19.2033 17.2631 17.3063 16.6444C16.9379 16.5234 16.7354 16.1269 16.8563 15.757C16.9772 15.3872 17.371 15.1875 17.7437 15.307C21.5729 16.5586 25.8282 16.4433 29.5787 14.9794C29.9387 14.8359 30.3479 15.0173 30.4885 15.3787C30.6291 15.7401 30.4519 16.148 30.0891 16.2886C27.8954 17.1436 25.5779 17.5781 23.2027 17.5781Z" fill="#FE4B4B"/>
<path d="M22.4986 33.7231C22.3622 33.7231 22.2258 33.6837 22.1077 33.6035C18.3909 31.1145 16.1719 26.9632 16.1719 22.4998C16.1719 18.0335 18.3909 13.8823 22.1077 11.396C22.3453 11.2371 22.6533 11.2371 22.8909 11.396C26.6091 13.8837 28.8281 18.0349 28.8281 22.4998C28.8281 26.9632 26.6091 31.1145 22.8895 33.6035C22.7714 33.6837 22.635 33.7231 22.4986 33.7231ZM22.4986 12.836C19.4091 15.0874 17.5781 18.6635 17.5781 22.4998C17.5781 26.3346 19.4091 29.9121 22.4986 32.1635C25.5895 29.9121 27.4219 26.3346 27.4219 22.4998C27.4219 18.6635 25.5895 15.0874 22.4986 12.836Z" fill="#FE4B4B"/>
<path d="M32.4602 23.2607H14.7949C14.4068 23.2607 14.0918 22.9457 14.0918 22.5576C14.0918 22.1695 14.4068 21.8545 14.7949 21.8545H32.4602C32.8484 21.8545 33.1634 22.1695 33.1634 22.5576C33.1634 22.9457 32.8484 23.2607 32.4602 23.2607Z" fill="#FE4B4B"/>
<path d="M28.3662 5.14844C28.7545 5.14844 29.0693 4.83364 29.0693 4.44531C29.0693 4.05699 28.7545 3.74219 28.3662 3.74219C27.9779 3.74219 27.6631 4.05699 27.6631 4.44531C27.6631 4.83364 27.9779 5.14844 28.3662 5.14844Z" fill="#4B4E60"/>
<path d="M16.6328 41.2583C17.0211 41.2583 17.3359 40.9435 17.3359 40.5552C17.3359 40.1669 17.0211 39.8521 16.6328 39.8521C16.2445 39.8521 15.9297 40.1669 15.9297 40.5552C15.9297 40.9435 16.2445 41.2583 16.6328 41.2583Z" fill="#4B4E60"/>
<path d="M31.1191 6.2876C31.5075 6.2876 31.8223 5.9728 31.8223 5.58447C31.8223 5.19615 31.5075 4.88135 31.1191 4.88135C30.7308 4.88135 30.416 5.19615 30.416 5.58447C30.416 5.9728 30.7308 6.2876 31.1191 6.2876Z" fill="#4B4E60"/>
<path d="M13.8809 40.1191C14.2692 40.1191 14.584 39.8043 14.584 39.416C14.584 39.0277 14.2692 38.7129 13.8809 38.7129C13.4925 38.7129 13.1777 39.0277 13.1777 39.416C13.1777 39.8043 13.4925 40.1191 13.8809 40.1191Z" fill="#4B4E60"/>
<path d="M39.416 14.5845C39.8043 14.5845 40.1191 14.2697 40.1191 13.8813C40.1191 13.493 39.8043 13.1782 39.416 13.1782C39.0277 13.1782 38.7129 13.493 38.7129 13.8813C38.7129 14.2697 39.0277 14.5845 39.416 14.5845Z" fill="#4B4E60"/>
<path d="M5.58398 31.8223C5.97231 31.8223 6.28711 31.5075 6.28711 31.1191C6.28711 30.7308 5.97231 30.416 5.58398 30.416C5.19566 30.416 4.88086 30.7308 4.88086 31.1191C4.88086 31.5075 5.19566 31.8223 5.58398 31.8223Z" fill="#4B4E60"/>
<path d="M40.5547 17.3364C40.943 17.3364 41.2578 17.0216 41.2578 16.6333C41.2578 16.245 40.943 15.9302 40.5547 15.9302C40.1664 15.9302 39.8516 16.245 39.8516 16.6333C39.8516 17.0216 40.1664 17.3364 40.5547 17.3364Z" fill="#4B4E60"/>
<path d="M4.44531 29.0703C4.83364 29.0703 5.14844 28.7555 5.14844 28.3672C5.14844 27.9789 4.83364 27.6641 4.44531 27.6641C4.05699 27.6641 3.74219 27.9789 3.74219 28.3672C3.74219 28.7555 4.05699 29.0703 4.44531 29.0703Z" fill="#4B4E60"/>
<path d="M40.5547 29.0703C40.943 29.0703 41.2578 28.7555 41.2578 28.3672C41.2578 27.9789 40.943 27.6641 40.5547 27.6641C40.1664 27.6641 39.8516 27.9789 39.8516 28.3672C39.8516 28.7555 40.1664 29.0703 40.5547 29.0703Z" fill="#4B4E60"/>
<path d="M4.44531 17.3364C4.83364 17.3364 5.14844 17.0216 5.14844 16.6333C5.14844 16.245 4.83364 15.9302 4.44531 15.9302C4.05699 15.9302 3.74219 16.245 3.74219 16.6333C3.74219 17.0216 4.05699 17.3364 4.44531 17.3364Z" fill="#4B4E60"/>
<path d="M39.416 31.8223C39.8043 31.8223 40.1191 31.5075 40.1191 31.1191C40.1191 30.7308 39.8043 30.416 39.416 30.416C39.0277 30.416 38.7129 30.7308 38.7129 31.1191C38.7129 31.5075 39.0277 31.8223 39.416 31.8223Z" fill="#4B4E60"/>
<path d="M5.58398 14.5845C5.97231 14.5845 6.28711 14.2697 6.28711 13.8813C6.28711 13.493 5.97231 13.1782 5.58398 13.1782C5.19566 13.1782 4.88086 13.493 4.88086 13.8813C4.88086 14.2697 5.19566 14.5845 5.58398 14.5845Z" fill="#4B4E60"/>
<path d="M31.1191 40.1191C31.5075 40.1191 31.8223 39.8043 31.8223 39.416C31.8223 39.0277 31.5075 38.7129 31.1191 38.7129C30.7308 38.7129 30.416 39.0277 30.416 39.416C30.416 39.8043 30.7308 40.1191 31.1191 40.1191Z" fill="#4B4E60"/>
<path d="M13.8809 6.2876C14.2692 6.2876 14.584 5.9728 14.584 5.58447C14.584 5.19615 14.2692 4.88135 13.8809 4.88135C13.4925 4.88135 13.1777 5.19615 13.1777 5.58447C13.1777 5.9728 13.4925 6.2876 13.8809 6.2876Z" fill="#4B4E60"/>
<path d="M28.3662 41.2583C28.7545 41.2583 29.0693 40.9435 29.0693 40.5552C29.0693 40.1669 28.7545 39.8521 28.3662 39.8521C27.9779 39.8521 27.6631 40.1669 27.6631 40.5552C27.6631 40.9435 27.9779 41.2583 28.3662 41.2583Z" fill="#4B4E60"/>
<path d="M16.6328 5.14844C17.0211 5.14844 17.3359 4.83364 17.3359 4.44531C17.3359 4.05699 17.0211 3.74219 16.6328 3.74219C16.2445 3.74219 15.9297 4.05699 15.9297 4.44531C15.9297 4.83364 16.2445 5.14844 16.6328 5.14844Z" fill="#4B4E60"/>
</svg>
