<svg width="80" height="80" viewBox="0 0 80 80" fill="none" xmlns="http://www.w3.org/2000/svg">
<path d="M50.83 76.5024C49.87 76.5024 48.9075 76.1374 48.1775 75.4074L14.1075 41.3324C12.9025 40.1274 12.0025 37.8449 12.06 36.1424L12.7725 15.5049C12.84 13.4849 14.5425 11.7849 16.565 11.7149L20.9975 11.5824C21.6575 11.5824 22.265 12.0999 22.29 12.7899C22.3125 13.4799 21.7725 14.0599 21.085 14.0849L16.6475 14.2174C15.9375 14.2424 15.295 14.8849 15.27 15.5924L14.5575 36.2299C14.525 37.2499 15.1525 38.8424 15.875 39.5649L49.9475 73.6374C50.435 74.1249 51.2275 74.1249 51.715 73.6374L74.695 50.6549C74.93 50.4199 75.06 50.1074 75.06 49.7699C75.06 49.4324 74.93 49.1199 74.695 48.8849L40.625 14.8199C39.9025 14.0974 38.3575 13.3924 37.285 13.5049L27.44 13.8449C26.71 13.8024 26.17 13.3274 26.145 12.6399C26.1225 11.9499 26.6625 11.3699 27.35 11.3449L37.1975 11.0049C38.935 11.0099 41.185 11.8474 42.39 13.0524L76.46 47.1199C77.165 47.8249 77.555 48.7674 77.555 49.7724C77.555 50.7774 77.165 51.7174 76.46 52.4249L53.48 75.4074C52.7525 76.1349 51.79 76.5024 50.83 76.5024Z" fill="#4B4E60"/>
<path d="M27.5 33.6924C23.365 33.6924 20 30.3274 20 26.1924C20 23.5299 21.385 21.1224 23.7 19.7499C24.29 19.3999 25.06 19.5949 25.415 20.1899C25.7675 20.7849 25.57 21.5524 24.975 21.9049C23.425 22.8199 22.5 24.4249 22.5 26.1924C22.5 28.9499 24.7425 31.1924 27.5 31.1924C30.2575 31.1924 32.5 28.9499 32.5 26.1924C32.5 23.8899 30.925 21.9024 28.67 21.3599C27.9975 21.1999 27.585 20.5224 27.7475 19.8499C27.9075 19.1824 28.5625 18.7724 29.2575 18.9274C32.6375 19.7399 35 22.7274 35 26.1924C35 30.3274 31.635 33.6924 27.5 33.6924Z" fill="#4B4E60"/>
<path d="M39.4275 42.66C38.7375 43.365 37.96 43.785 37.0875 43.905C36.5075 43.9975 35.9225 43.89 35.3375 43.5775C35.0225 43.4125 34.705 43.1675 34.385 42.8525C33.795 42.255 33.4475 41.6175 33.3525 40.9375C33.265 40.37 33.3375 39.785 33.56 39.185C33.785 38.5825 34.145 37.995 34.65 37.4325L35.2475 37.9525C35.7675 38.4025 35.8875 39.2425 35.5125 39.82C35.5125 39.82 35.4 39.9925 35.385 40.5C35.3675 40.885 35.48 41.185 35.7275 41.4075C36.07 41.73 36.4975 41.8275 37.01 41.7075C37.265 41.655 37.54 41.485 37.8225 41.195C38.24 40.78 38.4675 40.18 38.5 39.39C38.485 38.81 38.46 37.9325 38.4325 36.77C38.415 35.7825 38.4925 34.99 38.6725 34.4C38.8825 33.7475 39.2375 33.16 39.745 32.6525C40.6575 31.7475 41.6575 31.355 42.74 31.5025C43.4025 31.595 44.015 31.9275 44.5725 32.4875C45.1125 33.0275 45.4525 33.6075 45.5975 34.23C45.7075 34.7175 45.6875 35.22 45.5375 35.74C45.385 36.26 45.1075 36.7575 44.7075 37.235L44.025 36.7625C43.4575 36.37 43.2525 35.65 43.5675 35.16C43.5675 35.16 43.5675 35.16 43.605 34.735C43.6325 34.43 43.515 34.15 43.25 33.89C42.975 33.61 42.64 33.5225 42.2575 33.6275C41.94 33.7025 41.635 33.89 41.345 34.1875C40.8825 34.645 40.6125 35.3075 40.535 36.18C40.5025 36.5125 40.5125 36.9475 40.5675 37.49C40.6225 38.135 40.65 38.575 40.6475 38.8025C40.645 39.55 40.5675 40.2075 40.405 40.7725C40.3325 41.035 40.25 41.27 40.1675 41.4725C39.9475 41.9775 39.705 42.37 39.4275 42.66Z" fill="#FE4B4B"/>
<path d="M43.2651 46.8825C42.8301 46.4475 42.0201 46.4225 41.4626 46.8275L40.8151 47.2975C40.2576 47.7 39.4476 47.675 39.0126 47.245C38.5801 46.8125 38.6851 46.135 39.2476 45.735L48.9376 38.8575C49.5001 38.46 50.3551 38.5325 50.8426 39.0175L51.1551 39.3275C51.6401 39.8125 51.7126 40.67 51.3126 41.23L44.4176 50.9C44.0201 51.46 43.3326 51.5625 42.8976 51.125C42.4626 50.6875 42.4326 49.8775 42.8426 49.3225L43.3126 48.6775C43.7201 48.125 43.6976 47.3175 43.2651 46.8825ZM47.9426 42.46C48.3576 41.91 48.2451 41.8 47.6951 42.2125L45.1801 44.1025C44.6301 44.515 44.4326 45.105 44.7401 45.4125C45.0501 45.7225 45.6376 45.525 46.0526 44.975L47.9426 42.46Z" fill="#FE4B4B"/>
<path d="M50.2675 56.9924C49.8525 57.4049 49.115 57.3474 48.63 56.8599L46.28 54.5049C45.795 54.0199 45.795 53.2224 46.28 52.7374L54.5375 44.4774C55.0225 43.9924 55.7625 43.9349 56.1775 44.3499C56.5925 44.7674 56.5375 45.5074 56.05 45.9924L49.295 52.7449C48.81 53.2299 48.81 54.0274 49.295 54.5124L50.1375 55.3549C50.6225 55.8424 50.68 56.5799 50.2675 56.9924Z" fill="#FE4B4B"/>
<path d="M51.8674 60.095C51.3824 59.61 51.3824 58.8125 51.8674 58.3275L60.1324 50.0575C60.6174 49.5725 61.4149 49.5725 61.8999 50.0575L64.4399 52.595C64.9249 53.08 64.9824 53.82 64.5624 54.2375C64.1449 54.6575 63.4049 54.6025 62.9199 54.115L61.8949 53.0925C61.4099 52.6075 60.6124 52.6075 60.1274 53.0925L59.1599 54.0575C58.6749 54.5425 58.6749 55.34 59.1574 55.8275L59.4324 56.1C59.9149 56.5875 59.9724 57.3275 59.5524 57.745C59.1349 58.1625 58.3949 58.1075 57.9099 57.62L57.6374 57.35C57.1524 56.865 56.3549 56.865 55.8699 57.35L54.9024 58.3175C54.4174 58.8025 54.4174 59.6 54.9024 60.085L55.9274 61.1125C56.4124 61.5975 56.4699 62.3375 56.0499 62.755C55.6299 63.1725 54.8899 63.1175 54.4049 62.63L51.8674 60.095Z" fill="#FE4B4B"/>
<path d="M22.1 29.2474C21.5625 29.2474 21.0675 28.8999 20.9025 28.3624C20.7025 27.7024 21.0725 27.0049 21.735 26.8024C22.9875 26.4224 24.0775 25.7749 24.97 24.8824C28.725 21.1249 27.8425 14.1349 23.005 9.29744C20.6275 6.91744 17.665 5.41744 14.6675 5.07994C11.78 4.74994 9.20503 5.55244 7.42253 7.33494C3.67003 11.0899 4.55003 18.0799 9.38753 22.9174C9.54753 23.0774 9.71253 23.2374 9.87753 23.3899C10.3875 23.8574 10.42 24.6474 9.95253 25.1549C9.48253 25.6674 8.69503 25.6974 8.18753 25.2299C7.99253 25.0524 7.80503 24.8674 7.61753 24.6824C1.81003 18.8749 0.925031 10.2974 5.65503 5.56744C7.98003 3.23494 11.275 2.17744 14.9475 2.59494C18.5075 2.99744 21.9975 4.74994 24.7725 7.52994C30.585 13.3424 31.4675 21.9199 26.7375 26.6499C25.5475 27.8374 24.11 28.6899 22.4625 29.1949C22.3425 29.2299 22.22 29.2474 22.1 29.2474Z" fill="#4B4E60"/>
</svg>
