<svg width="44" height="44" viewBox="0 0 44 44" fill="none" xmlns="http://www.w3.org/2000/svg">
<path d="M25.4375 5.5H18.5625C18.183 5.5 17.875 5.192 17.875 4.8125C17.875 4.433 18.183 4.125 18.5625 4.125H25.4375C25.817 4.125 26.125 4.433 26.125 4.8125C26.125 5.192 25.817 5.5 25.4375 5.5Z" fill="#4B4E60"/>
<path d="M22.6875 39.875H21.3125C20.933 39.875 20.625 39.567 20.625 39.1875C20.625 38.808 20.933 38.5 21.3125 38.5H22.6875C23.067 38.5 23.375 38.808 23.375 39.1875C23.375 39.567 23.067 39.875 22.6875 39.875Z" fill="#4B4E60"/>
<path d="M29.5625 42.625H14.4375C12.5414 42.625 11 41.0836 11 39.1875V4.8125C11 2.91638 12.5414 1.375 14.4375 1.375H29.5625C31.4586 1.375 33 2.91638 33 4.8125V32.3125C33 32.692 32.692 33 32.3125 33C31.933 33 31.625 32.692 31.625 32.3125V4.8125C31.625 3.67537 30.6996 2.75 29.5625 2.75H14.4375C13.3004 2.75 12.375 3.67537 12.375 4.8125V39.1875C12.375 40.3246 13.3004 41.25 14.4375 41.25H29.5625C30.6996 41.25 31.625 40.3246 31.625 39.1875V29.5625C31.625 29.183 31.933 28.875 32.3125 28.875C32.692 28.875 33 29.183 33 29.5625V39.1875C33 41.0836 31.4586 42.625 29.5625 42.625Z" fill="#4B4E60"/>
<path d="M37.9447 27.632C37.7687 27.632 37.5927 27.5646 37.4579 27.4313C37.1898 27.1631 37.1898 26.7273 37.4579 26.4591C39.0172 24.8999 39.8752 22.8291 39.8752 20.625C39.8752 18.4209 39.0172 16.3501 37.4593 14.7909C37.1912 14.5228 37.1912 14.0869 37.4593 13.8188C37.7274 13.5506 38.1633 13.5506 38.4314 13.8188C40.2492 15.6365 41.2502 18.0538 41.2502 20.625C41.2502 23.1949 40.2492 25.6121 38.4314 27.4299C38.2967 27.5646 38.1207 27.632 37.9447 27.632Z" fill="#4B4E60"/>
<path d="M35.3128 25.6879C35.1368 25.6879 34.9608 25.6206 34.8261 25.4872C34.558 25.2191 34.558 24.7832 34.8261 24.5151C35.8656 23.4756 36.4376 22.0937 36.4376 20.6252C36.4376 19.1567 35.8656 17.7748 34.8275 16.7367C34.5593 16.4686 34.5593 16.0327 34.8275 15.7646C35.0956 15.4964 35.5315 15.4964 35.7996 15.7646C37.0976 17.0626 37.8126 18.7882 37.8126 20.6252C37.8126 22.4622 37.0976 24.1878 35.7996 25.4858C35.6648 25.6206 35.4888 25.6879 35.3128 25.6879Z" fill="#4B4E60"/>
<path d="M6.0555 27.632C5.8795 27.632 5.7035 27.5646 5.56875 27.4313C3.751 25.6121 2.75 23.1949 2.75 20.625C2.75 18.0538 3.751 15.6365 5.56875 13.8188C5.83688 13.5506 6.27275 13.5506 6.54087 13.8188C6.809 14.0869 6.809 14.5228 6.54087 14.7909C4.983 16.3501 4.125 18.4209 4.125 20.625C4.125 22.8291 4.983 24.8999 6.54087 26.4578C6.809 26.7259 6.809 27.1618 6.54087 27.4299C6.4075 27.5646 6.2315 27.632 6.0555 27.632Z" fill="#4B4E60"/>
<path d="M8.68725 25.6879C8.51125 25.6879 8.33525 25.6206 8.2005 25.4872C6.9025 24.1878 6.1875 22.4622 6.1875 20.6252C6.1875 18.7882 6.9025 17.0626 8.2005 15.7646C8.46863 15.4964 8.9045 15.4964 9.17263 15.7646C9.44075 16.0327 9.44075 16.4686 9.17263 16.7367C8.1345 17.7748 7.5625 19.1567 7.5625 20.6252C7.5625 22.0937 8.1345 23.4756 9.17263 24.5137C9.44075 24.7818 9.44075 25.2177 9.17263 25.4858C9.03925 25.6206 8.86325 25.6879 8.68725 25.6879Z" fill="#4B4E60"/>
<path d="M29.2916 20.2072C29.1156 20.2072 28.9396 20.1398 28.8048 20.0065C25.0525 16.2541 18.9461 16.2541 15.1937 20.0065C14.9256 20.2746 14.4897 20.2746 14.2216 20.0065C13.9535 19.7383 13.9535 19.3025 14.2216 19.0343C18.5102 14.7457 25.4884 14.7457 29.777 19.0343C30.0451 19.3025 30.0451 19.7383 29.777 20.0065C29.6436 20.1398 29.4676 20.2072 29.2916 20.2072Z" fill="#FE4B4B"/>
<path d="M26.8621 22.6394C26.6861 22.6394 26.5101 22.572 26.3754 22.4386C25.2066 21.2685 23.6529 20.625 22.0001 20.625C20.3474 20.625 18.7936 21.2685 17.6249 22.4373C17.3568 22.7054 16.9209 22.7054 16.6528 22.4373C16.3846 22.1691 16.3846 21.7333 16.6528 21.4651C18.08 20.0365 19.9803 19.25 22.0001 19.25C24.02 19.25 25.9203 20.0365 27.3475 21.4651C27.6156 21.7333 27.6156 22.1691 27.3475 22.4373C27.2141 22.572 27.0381 22.6394 26.8621 22.6394Z" fill="#FE4B4B"/>
<path d="M22.6875 27.5H21.3125C20.933 27.5 20.625 27.192 20.625 26.8125C20.625 26.433 20.933 26.125 21.3125 26.125H22.6875C23.067 26.125 23.375 26.433 23.375 26.8125C23.375 27.192 23.067 27.5 22.6875 27.5Z" fill="#FE4B4B"/>
<path d="M24.4308 25.0693C24.2548 25.0693 24.0788 25.0019 23.944 24.8686C22.9045 23.8291 21.095 23.8291 20.0555 24.8686C19.7874 25.1367 19.3515 25.1367 19.0834 24.8686C18.8153 24.6004 18.8153 24.1646 19.0834 23.8964C20.6413 22.3386 23.3583 22.3386 24.9162 23.8964C25.1843 24.1646 25.1843 24.6004 24.9162 24.8686C24.7814 25.0033 24.6068 25.0693 24.4308 25.0693Z" fill="#FE4B4B"/>
</svg>
