<svg width="44" height="44" viewBox="0 0 44 44" fill="none" xmlns="http://www.w3.org/2000/svg">
<path d="M24.0626 42.625H19.9376C19.6021 42.625 19.3147 42.3816 19.2597 42.0503L18.6066 38.1343C17.4612 37.8936 16.3406 37.5293 15.264 37.0452L12.4315 39.8324C12.1909 40.0689 11.8155 40.0964 11.5446 39.8984L8.20885 37.4743C7.93798 37.2762 7.84723 36.9119 7.99848 36.6107L9.77223 33.0591C8.97198 32.1777 8.27485 31.2249 7.69185 30.2156L3.7786 30.8041C3.43898 30.8577 3.12548 30.6584 3.02235 30.3366L1.74635 26.4124C1.64323 26.0934 1.78485 25.7455 2.08323 25.5901L5.60735 23.7572C5.53448 23.1151 5.5001 22.5459 5.5001 22C5.5001 21.4541 5.53448 20.8862 5.60873 20.2428L2.0846 18.4113C1.78623 18.2573 1.6446 17.9094 1.74773 17.589L3.02235 13.6647C3.12548 13.3457 3.43623 13.145 3.7786 13.1972L7.6946 13.7844C7.91185 13.4076 8.14698 13.0364 8.39448 12.6789C8.6076 12.364 9.03523 12.2884 9.34873 12.5056C9.66085 12.7215 9.73923 13.1491 9.52335 13.4613C9.2126 13.9095 8.92523 14.3811 8.66673 14.8624C8.52923 15.1168 8.25148 15.2611 7.9586 15.2157L4.14985 14.6437L3.23548 17.4597L6.66748 19.2431C6.92598 19.3765 7.07035 19.6584 7.03185 19.9457C6.9246 20.7323 6.8751 21.3854 6.8751 22C6.8751 22.6146 6.9246 23.2677 7.03048 24.0542C7.06898 24.3416 6.9246 24.6235 6.6661 24.7569L3.2341 26.5416L4.14985 29.3576L7.9586 28.7856C8.24185 28.7389 8.52923 28.8833 8.66673 29.1404C9.31023 30.3366 10.127 31.4559 11.0964 32.4638C11.2971 32.6728 11.3466 32.9876 11.216 33.2475L9.4876 36.7043L11.8829 38.445L14.6397 35.7308C14.8474 35.5273 15.1595 35.4778 15.4221 35.6015C16.6651 36.2051 17.9782 36.6328 19.3271 36.8734C19.6131 36.9243 19.8359 37.1497 19.884 37.4371L20.5206 41.25H23.4796L24.1149 37.4385C24.163 37.1511 24.3857 36.9256 24.6717 36.8748C26.0179 36.6341 27.3337 36.2079 28.5795 35.6029C28.838 35.4777 29.1542 35.5272 29.3605 35.7321L32.1174 38.445L34.5112 36.7043L32.7856 33.2475C32.655 32.9876 32.7031 32.6741 32.9052 32.4638C33.8718 31.4573 34.69 30.338 35.3335 29.1404C35.471 28.8846 35.7446 28.7416 36.0416 28.7856L39.8517 29.3563L40.7661 26.5403L37.3341 24.7569C37.0756 24.6235 36.9312 24.3416 36.9697 24.0542C37.0756 23.2677 37.1251 22.6146 37.1251 22C37.1251 21.3854 37.0756 20.7323 36.9697 19.9457C36.9312 19.6584 37.0756 19.3765 37.3341 19.2431L40.7661 17.4584L39.8504 14.6424L36.0416 15.2144C35.7515 15.2542 35.471 15.1154 35.3335 14.8596C34.69 13.6634 33.8732 12.5441 32.9039 11.5363C32.7031 11.3273 32.6536 11.0124 32.7842 10.7525L34.5126 7.29575L32.116 5.555L29.3591 8.26925C29.1529 8.47275 28.8407 8.525 28.5767 8.3985C27.3337 7.79487 26.0206 7.36725 24.6717 7.12663C24.3857 7.07575 24.163 6.85025 24.1149 6.56287L23.4796 2.75H20.5206L19.8854 6.5615C19.8372 6.84887 19.6145 7.07438 19.3285 7.12525C17.9824 7.36588 16.6665 7.79212 15.4207 8.39712C15.1622 8.52225 14.8474 8.47275 14.6397 8.26788L11.8829 5.55638L9.4876 7.29713L11.2132 10.7525C11.3824 11.0921 11.2449 11.506 10.9052 11.6751C10.5656 11.8456 10.1545 11.7067 9.98398 11.3685L7.9971 7.39062C7.84723 7.0895 7.9366 6.72513 8.20885 6.52713L11.546 4.10162C11.8155 3.90225 12.1922 3.9325 12.4329 4.16762L15.2654 6.95338C16.342 6.46938 17.464 6.105 18.6094 5.86437L19.2625 1.94838C19.3147 1.61838 19.6021 1.375 19.9376 1.375H24.0626C24.3981 1.375 24.6855 1.61837 24.7405 1.94975L25.3936 5.86575C26.539 6.10637 27.6596 6.47075 28.7362 6.95475L31.5687 4.16762C31.8094 3.9325 32.1847 3.90363 32.4556 4.10162L35.7941 6.52713C36.065 6.72513 36.1557 7.0895 36.0045 7.39062L34.2307 10.9423C35.031 11.8236 35.7281 12.7765 36.3111 13.7858L40.2243 13.1972C40.564 13.145 40.8775 13.3444 40.9806 13.6647L42.2566 17.589C42.3597 17.908 42.2181 18.2559 41.9197 18.4113L38.3956 20.2441C38.4657 20.8849 38.5001 21.4541 38.5001 22C38.5001 22.5459 38.4657 23.1138 38.3915 23.7572L41.9156 25.5888C42.214 25.7428 42.3556 26.0906 42.2525 26.411L40.9779 30.3353C40.8761 30.6556 40.5612 30.8591 40.2216 30.8027L36.307 30.2156C35.7226 31.2249 35.0269 32.1791 34.228 33.0591L36.0004 36.6094C36.1502 36.9105 36.0608 37.2749 35.79 37.4729L32.4529 39.8984C32.1833 40.0964 31.8066 40.0675 31.566 39.8324L28.7335 37.0466C27.6569 37.5306 26.5349 37.895 25.3895 38.1356L24.7364 42.0516C24.6855 42.3816 24.3981 42.625 24.0626 42.625ZM22.0001 27.5C18.9669 27.5 16.5001 25.0333 16.5001 22C16.5001 18.9667 18.9669 16.5 22.0001 16.5C25.0334 16.5 27.5001 18.9667 27.5001 22C27.5001 25.0333 25.0334 27.5 22.0001 27.5ZM22.0001 17.875C19.7259 17.875 17.8751 19.7257 17.8751 22C17.8751 24.2743 19.7259 26.125 22.0001 26.125C24.2744 26.125 26.1251 24.2743 26.1251 22C26.1251 19.7257 24.2744 17.875 22.0001 17.875Z" fill="#4B4E60"/>
<path d="M22 33C15.9349 33 11 28.0651 11 22C11 15.9349 15.9349 11 22 11C28.0651 11 33 15.9349 33 22C33 24.4489 32.2121 26.7685 30.7216 28.7073C30.4906 29.0084 30.0575 29.0634 29.7577 28.8337C29.4566 28.6027 29.4002 28.171 29.6312 27.8699C30.9361 26.1717 31.625 24.1436 31.625 22C31.625 16.6939 27.3061 12.375 22 12.375C16.6939 12.375 12.375 16.6939 12.375 22C12.375 27.3061 16.6939 31.625 22 31.625C23.1385 31.625 24.2578 31.4256 25.3275 31.0337C25.6836 30.9059 26.0796 31.086 26.2103 31.4435C26.3409 31.7996 26.158 32.1943 25.8005 32.3263C24.5795 32.7731 23.2994 33 22 33Z" fill="#FE4B4B"/>
<path d="M28.1875 30.9375C28.5672 30.9375 28.875 30.6297 28.875 30.25C28.875 29.8703 28.5672 29.5625 28.1875 29.5625C27.8078 29.5625 27.5 29.8703 27.5 30.25C27.5 30.6297 27.8078 30.9375 28.1875 30.9375Z" fill="#FE4B4B"/>
</svg>
