<svg width="28" height="28" viewBox="0 0 28 28" fill="none" xmlns="http://www.w3.org/2000/svg">
<path d="M21.6011 26.3924C21.2494 26.3924 20.8635 26.2769 20.4461 26.0468L10.9935 19.0678C10.8876 18.9899 10.8229 18.8683 10.8159 18.7371C10.8097 18.6058 10.8622 18.4789 10.9602 18.3906L22.1567 8.31493C22.3361 8.15306 22.6126 8.16706 22.7745 8.34731C22.9364 8.52668 22.9215 8.80318 22.7421 8.96506L11.9446 18.6828L20.9169 25.3118C21.154 25.4387 21.5547 25.5997 21.84 25.4676C22.1305 25.3346 22.274 24.9102 22.344 24.5777L26.1721 6.53781C26.3209 5.94193 26.2491 5.46243 25.984 5.24193C25.7819 5.07393 25.4809 5.06168 25.1554 5.20868L2.65387 13.8869C1.96349 14.1643 1.74649 14.4496 1.74999 14.5441C1.75262 14.6062 1.90137 14.7777 2.34499 14.9133L7.92312 16.6546L14.0472 12.7906C14.252 12.6628 14.5215 12.7232 14.6501 12.9271C14.7787 13.1309 14.7184 13.4013 14.5136 13.5299L8.21887 17.5016C8.11037 17.5698 7.97649 17.5873 7.85487 17.5497L2.08687 15.7489C1.06312 15.4357 0.888118 14.8827 0.875868 14.5808C0.858368 14.1669 1.09724 13.5684 2.33449 13.0732L24.8176 4.40368C25.4275 4.12543 26.082 4.18493 26.5449 4.57081C27.0812 5.01793 27.2562 5.80718 27.0252 6.73556L23.2006 24.7588C23.0396 25.5271 22.7054 26.0337 22.2057 26.2629C22.0176 26.3496 21.8164 26.3924 21.6011 26.3924Z" fill="#343745"/>
<path d="M21.6011 26.3924C21.2494 26.3924 20.8635 26.2769 20.4461 26.0468L14.5661 21.7077C14.3719 21.5642 14.3299 21.2894 14.4742 21.0961C14.6177 20.9018 14.8925 20.8598 15.0859 21.0042L20.9169 25.3118C21.154 25.4387 21.5547 25.5997 21.84 25.4676C22.1305 25.3346 22.274 24.9102 22.344 24.5777L26.1721 6.53781C26.3209 5.94193 26.2491 5.46243 25.984 5.24193C25.7819 5.07393 25.4809 5.06168 25.1554 5.20868L2.65387 13.8869C1.96349 14.1643 1.74649 14.4496 1.74999 14.5441C1.75262 14.6062 1.90137 14.7777 2.34499 14.9133L8.11474 16.7141C8.25299 16.7569 8.36062 16.8663 8.40349 17.0046L10.3871 23.5329C10.4405 23.6791 10.4816 23.8243 10.5175 23.9503C10.5455 24.0501 10.5805 24.1743 10.6041 24.2111C10.6006 24.2067 10.6706 24.2277 10.857 24.2286C11.2481 24.2286 11.3969 24.0824 11.6944 23.7928L13.1469 22.3806C13.3201 22.2108 13.5966 22.2161 13.7655 22.3893C13.9335 22.5626 13.93 22.8399 13.7567 23.0079L12.3287 24.3948C11.977 24.7387 11.6042 25.1027 10.857 25.1027C9.99949 25.1027 9.82624 24.7229 9.67487 24.1874C9.64424 24.0789 9.60924 23.9538 9.55674 23.8094L7.63349 17.4806L2.08687 15.7489C1.06312 15.4357 0.888118 14.8827 0.875868 14.5808C0.858368 14.1669 1.09724 13.5684 2.33449 13.0732L24.8176 4.40368C25.4275 4.12543 26.082 4.18493 26.5449 4.57081C27.0812 5.01793 27.2562 5.80718 27.0252 6.73556L23.2006 24.7588C23.0396 25.5271 22.7054 26.0337 22.2057 26.2629C22.0176 26.3496 21.8164 26.3924 21.6011 26.3924Z" fill="#343745"/>
<path d="M16.1875 12.25C16.1875 12.4906 15.9906 12.6875 15.75 12.6875C15.5094 12.6875 15.3125 12.4906 15.3125 12.25C15.3125 12.0094 15.5094 11.8125 15.75 11.8125C15.9906 11.8125 16.1875 12.0094 16.1875 12.25Z" fill="#343745"/>
</svg>
