<svg width="28" height="28" viewBox="0 0 28 28" fill="none" xmlns="http://www.w3.org/2000/svg">
<path d="M17.6225 26.25H10.3775C3.52362 26.25 1.75 24.4764 1.75 17.6225V10.3775C1.75 3.52362 3.52362 1.75 10.3775 1.75H17.6216C24.4764 1.75 26.25 3.52362 26.25 10.3775V17.6225C26.25 24.4764 24.4764 26.25 17.6225 26.25ZM10.3775 2.625C4.00137 2.625 2.625 4.00137 2.625 10.3775V17.6225C2.625 23.9986 4.00137 25.375 10.3775 25.375H17.6216C23.9977 25.375 25.3741 23.9986 25.3741 17.6225V10.3775C25.375 4.00137 23.9986 2.625 17.6225 2.625H10.3775Z" fill="#343745"/>
<path d="M22.0663 20.0166H20.1518C19.4431 20.0166 19.0878 19.6202 18.4972 18.964C18.2645 18.7058 17.9792 18.3882 17.6003 18.0085C16.5556 17.0013 16.1128 16.8998 15.9501 16.8998C15.944 16.9427 15.9387 17.011 15.9387 17.1177V18.8345C15.9387 19.8153 15.2177 20.0166 14.1336 20.0166C11.8621 20.0166 9.54509 18.6367 7.93509 16.3258C5.61634 13.0752 4.83496 10.4327 4.83496 9.72658C4.83496 9.10446 5.23396 8.74746 5.92871 8.74746H7.84321C8.68321 8.74746 8.93959 9.28383 9.11371 9.78608C9.97559 12.2982 11.2461 14.1698 11.7746 14.5435C11.779 14.4866 11.7825 14.4113 11.7825 14.3098V11.4906C11.7466 10.8527 11.5348 10.5902 11.3476 10.3592C11.1945 10.1702 11.0212 9.95583 11.0212 9.62508C11.0212 9.20333 11.3747 8.74746 11.9461 8.74746H14.9543C15.4041 8.74746 15.9387 8.94521 15.9387 9.88846V13.6816C15.9387 13.6991 15.9396 13.7148 15.9405 13.7297C16.0393 13.6615 16.1802 13.5328 16.3823 13.3316C17.6765 11.8835 18.6302 9.58308 18.6398 9.55946C18.8682 9.02571 19.2952 8.74658 19.878 8.74658H21.7925C22.2063 8.74658 22.5082 8.87083 22.6893 9.11408C22.8101 9.27596 22.9256 9.56383 22.7908 10.0136C22.5441 11.1502 20.396 14.1987 20.151 14.5426C20.1326 14.5732 20.0582 14.694 20.0486 14.7351C20.0512 14.7351 20.067 14.778 20.1396 14.8725C20.228 14.9941 20.4458 15.2076 20.6567 15.415C20.9175 15.6705 21.2123 15.9601 21.4468 16.2375C22.4793 17.3986 22.972 18.0942 23.1443 18.6297C23.2878 19.125 23.161 19.4365 23.028 19.6123C22.8923 19.7978 22.6141 20.0166 22.0663 20.0166ZM16.0026 16.024C16.3981 16.024 16.9703 16.1858 18.2128 17.3837C18.6118 17.7827 18.9076 18.1108 19.1482 18.3786C19.7205 19.0165 19.8596 19.1416 20.151 19.1416H22.0655C22.2466 19.1416 22.3201 19.1005 22.3297 19.0891C22.3297 19.0891 22.3516 19.0357 22.3087 18.8878C22.1477 18.3873 21.411 17.515 20.7871 16.8123C20.5622 16.5463 20.2883 16.2786 20.0451 16.0415C19.7747 15.7772 19.5621 15.5681 19.4405 15.3983C19.0047 14.8375 19.1753 14.4603 19.4247 14.0596C20.0731 13.1443 21.7601 10.6392 21.9447 9.79658C21.9701 9.70733 21.9762 9.65833 21.9762 9.63471C21.9605 9.63646 21.9018 9.62333 21.7925 9.62333H19.878C19.6163 9.62333 19.5218 9.72483 19.4475 9.89896C19.409 9.99258 18.4307 12.3542 17.0185 13.9336C16.5687 14.3842 16.2511 14.6677 15.7996 14.6677C15.4452 14.6677 15.0637 14.3588 15.0637 13.6825V9.88933C15.0637 9.72133 15.0436 9.65046 15.034 9.62596C15.0243 9.62946 15.0007 9.62421 14.9543 9.62333H11.9461C11.9032 9.65658 11.9785 9.74933 12.0283 9.81058C12.2585 10.095 12.605 10.5246 12.6575 11.4678L12.6583 14.3116C12.6583 14.6607 12.6583 15.4797 11.8656 15.4797C10.743 15.4797 9.06646 12.3393 8.28771 10.0731C8.13196 9.62421 8.05934 9.62421 7.84409 9.62421H5.92959C5.75809 9.62421 5.70821 9.65746 5.70734 9.65746C5.71084 10.0346 6.25334 12.461 8.65084 15.8227C10.0998 17.9026 12.1482 19.1425 14.1345 19.1425C15.0646 19.1425 15.0646 19.0138 15.0646 18.8353V17.1186C15.0646 16.577 15.1757 16.024 16.0026 16.024Z" fill="#343745"/>
</svg>
