<svg width="44" height="44" viewBox="0 0 44 44" fill="none" xmlns="http://www.w3.org/2000/svg">
<path d="M22.6866 12.5979C18.926 12.5979 15.1667 12.1648 11.5175 11.3095C11.1476 11.2229 10.918 10.8544 11.0046 10.4832C11.0912 10.1147 11.4515 9.88504 11.8324 9.97029C19.7977 11.8375 28.2636 11.6024 36.1396 9.28554C36.5109 9.18104 36.8876 9.38592 36.9935 9.75029C37.1007 10.116 36.8931 10.4969 36.5287 10.6042C32.0311 11.9269 27.374 12.5979 22.6866 12.5979Z" fill="#FE4B4B"/>
<path d="M36.3331 36.2477C36.2685 36.2477 36.2039 36.2381 36.1379 36.2189C27.3943 33.6462 17.9783 33.6462 9.23465 36.2189C8.86477 36.322 8.48665 36.1185 8.38077 35.7541C8.27352 35.3884 8.48115 35.0075 8.84552 34.9002C17.8449 32.252 27.529 32.252 36.5284 34.9002C36.8928 35.0075 37.1004 35.3884 36.9931 35.7541C36.9051 36.0553 36.6301 36.2477 36.3331 36.2477Z" fill="#FE4B4B"/>
<path d="M21.8466 42.1284C21.7118 42.1284 21.5784 42.0899 21.4588 42.0087C15.0417 37.6294 11.2109 30.4285 11.2109 22.7464C11.2109 16.5217 13.6598 10.6629 18.1093 6.2491C18.3802 5.97823 18.8161 5.98373 19.0814 6.25185C19.3496 6.52135 19.3468 6.95723 19.0787 7.22398C14.8918 11.3779 12.5859 16.8902 12.5859 22.7464C12.5859 29.9734 16.1926 36.7507 22.2357 40.873C22.5492 41.0861 22.6289 41.5151 22.4158 41.8286C22.2811 42.0239 22.0652 42.1284 21.8466 42.1284Z" fill="#FE4B4B"/>
<path d="M23.5856 42.1287C23.367 42.1287 23.1511 42.0242 23.0178 41.829C22.8046 41.5141 22.8844 41.0865 23.1979 40.8733C29.241 36.7511 32.8476 29.9737 32.8476 22.7467C32.8476 15.5197 29.241 8.74234 23.1979 4.62009C22.8844 4.40697 22.8046 3.97797 23.0178 3.66447C23.2323 3.35097 23.6613 3.27397 23.9734 3.48434C30.3905 7.86372 34.2213 15.0646 34.2213 22.7467C34.2213 30.4288 30.3905 37.6297 23.9734 42.0091C23.8551 42.0888 23.7204 42.1287 23.5856 42.1287Z" fill="#FE4B4B"/>
<path d="M22.6865 41.9236C22.307 41.9236 21.999 41.6156 21.999 41.2361V4.25684C21.999 3.87734 22.307 3.56934 22.6865 3.56934C23.066 3.56934 23.374 3.87734 23.374 4.25684V41.2361C23.374 41.617 23.066 41.9236 22.6865 41.9236Z" fill="#4B4E60"/>
<path d="M41.864 23.4341H6.25977C5.88027 23.4341 5.57227 23.1261 5.57227 22.7466C5.57227 22.3671 5.88027 22.0591 6.25977 22.0591H41.8654C42.2449 22.0591 42.5529 22.3671 42.5529 22.7466C42.5529 23.1261 42.2449 23.4341 41.864 23.4341Z" fill="#4B4E60"/>
<path d="M22.6865 42.6841C11.6934 42.6841 2.74902 33.7397 2.74902 22.7466C2.74902 17.9052 4.50627 13.233 7.69902 9.59471C7.94927 9.30871 8.3824 9.28121 8.66977 9.53146C8.9544 9.78171 8.9819 10.2162 8.73302 10.5022C5.76165 13.8888 4.12402 18.238 4.12402 22.7466C4.12402 32.9821 12.451 41.3091 22.6865 41.3091C32.922 41.3091 41.249 32.9821 41.249 22.7466C41.249 12.5111 32.922 4.18408 22.6865 4.18408C18.4543 4.18408 14.4695 5.57008 11.1654 8.19221C10.8684 8.42871 10.4366 8.38058 10.2001 8.08083C9.96365 7.78383 10.0131 7.35208 10.3115 7.11558C13.8604 4.29821 18.1394 2.80908 22.6865 2.80908C33.6796 2.80908 42.624 11.7535 42.624 22.7466C42.624 33.7397 33.6796 42.6841 22.6865 42.6841Z" fill="#4B4E60"/>
</svg>
