<svg width="16" height="16" viewBox="0 0 16 16" fill="none" xmlns="http://www.w3.org/2000/svg">
<path d="M7.65507 3.42504C7.65507 3.55765 7.70775 3.68483 7.80152 3.7786C7.89529 3.87237 8.02246 3.92504 8.15507 3.92504H11.4101L3.08507 12.25C3.00316 12.3457 2.96036 12.4687 2.96522 12.5946C2.97008 12.7204 3.02224 12.8398 3.11129 12.9288C3.20034 13.0179 3.31971 13.07 3.44555 13.0749C3.57138 13.0798 3.69442 13.037 3.79007 12.955L12.1051 4.64004V7.87004C12.1051 8.00265 12.1578 8.12983 12.2515 8.2236C12.3453 8.31737 12.4725 8.37004 12.6051 8.37004C12.7377 8.37004 12.8649 8.31737 12.9586 8.2236C13.0524 8.12983 13.1051 8.00265 13.1051 7.87004V3.37004C13.1051 3.2507 13.0577 3.13624 12.9733 3.05185C12.8889 2.96745 12.7744 2.92004 12.6551 2.92004H8.15507C8.08899 2.92004 8.02356 2.93314 7.96257 2.95858C7.90158 2.98402 7.84623 3.02129 7.79974 3.06825C7.75324 3.11521 7.71652 3.17093 7.69169 3.23217C7.66686 3.29341 7.65441 3.35896 7.65507 3.42504Z" fill="#343745"/>
</svg>
