<svg width="40" height="40" viewBox="0 0 40 40" fill="none" xmlns="http://www.w3.org/2000/svg">
<g clip-path="url(#clip0_246_14705)">
<path d="M35 19.9065C35.0145 21.894 34.6323 23.8643 33.8757 25.7022C33.119 27.54 32.0033 29.2084 30.5937 30.6096C24.8281 36.3752 15.3906 36.4377 9.54683 30.7502C7.4029 28.664 5.93174 25.9844 5.32235 23.0556C4.71296 20.1269 4.99319 17.0829 6.12703 14.3146C7.26087 11.5463 9.19653 9.18034 11.6853 7.52058C14.1741 5.86082 17.1023 4.98312 20.0937 5.00025C20.2809 5.00301 20.4651 5.04725 20.6331 5.12979C20.8011 5.21233 20.9487 5.33111 21.0653 5.47757C21.1819 5.62403 21.2645 5.79453 21.3072 5.97678C21.35 6.15902 21.3518 6.34848 21.3125 6.5315C21.1496 7.25743 21.1509 8.01054 21.3161 8.73593C21.4813 9.46133 21.8063 10.1407 22.2674 10.7246C22.7285 11.3084 23.314 11.782 23.9814 12.1108C24.6487 12.4396 25.3811 12.6154 26.125 12.6252C26.4565 12.6252 26.7744 12.7569 27.0088 12.9914C27.2433 13.2258 27.375 13.5437 27.375 13.8752C27.3848 14.6191 27.5606 15.3515 27.8894 16.0188C28.2182 16.6862 28.6918 17.2717 29.2756 17.7328C29.8595 18.1939 30.5389 18.5189 31.2643 18.6841C31.9897 18.8493 32.7428 18.8506 33.4687 18.6877C33.6517 18.6484 33.8412 18.6502 34.0234 18.693C34.2057 18.7357 34.3762 18.8183 34.5226 18.9349C34.6691 19.0515 34.7879 19.1991 34.8704 19.3671C34.953 19.5351 34.9972 19.7193 35 19.9065V19.9065Z" stroke="#343745" stroke-width="2.09375" stroke-linecap="round" stroke-linejoin="round"/>
<path d="M24.375 28.125C25.0654 28.125 25.625 27.5654 25.625 26.875C25.625 26.1846 25.0654 25.625 24.375 25.625C23.6846 25.625 23.125 26.1846 23.125 26.875C23.125 27.5654 23.6846 28.125 24.375 28.125Z" fill="#343745"/>
<path d="M14.375 26.875C15.0654 26.875 15.625 26.3154 15.625 25.625C15.625 24.9346 15.0654 24.375 14.375 24.375C13.6846 24.375 13.125 24.9346 13.125 25.625C13.125 26.3154 13.6846 26.875 14.375 26.875Z" fill="#343745"/>
<path d="M13.125 18.125C13.8154 18.125 14.375 17.5654 14.375 16.875C14.375 16.1846 13.8154 15.625 13.125 15.625C12.4346 15.625 11.875 16.1846 11.875 16.875C11.875 17.5654 12.4346 18.125 13.125 18.125Z" fill="#343745"/>
<path d="M21.25 20.625C21.9404 20.625 22.5 20.0654 22.5 19.375C22.5 18.6846 21.9404 18.125 21.25 18.125C20.5596 18.125 20 18.6846 20 19.375C20 20.0654 20.5596 20.625 21.25 20.625Z" fill="#343745"/>
</g>
<defs>
<clipPath id="clip0_246_14705">
<rect width="40" height="40" fill="white"/>
</clipPath>
</defs>
</svg>
