<svg width="18" height="18" viewBox="0 0 18 18" fill="none" xmlns="http://www.w3.org/2000/svg">
<path d="M16 6.91162V15.6727C16 16.3364 15.469 16.9337 14.7389 16.9337H2.26106C1.59735 16.9337 1 16.4028 1 15.6727V6.91162H16Z" stroke="#343745" stroke-width="1.13" stroke-miterlimit="10" stroke-linecap="round" stroke-linejoin="round"/>
<path d="M16 4.58845V6.91146H1.06641V4.58845C1.06641 3.92474 1.59738 3.32739 2.32747 3.32739H14.8053C15.4027 3.39376 16 3.92474 16 4.58845Z" stroke="#343745" stroke-width="1.13" stroke-miterlimit="10" stroke-linecap="round" stroke-linejoin="round"/>
<path d="M5.64597 11.8893H4.18579C3.92031 11.8893 3.72119 11.6902 3.72119 11.4247V9.8982C3.72119 9.63271 3.92031 9.43359 4.18579 9.43359H5.71234C5.97783 9.43359 6.17694 9.63271 6.17694 9.8982V11.4247C6.17694 11.6902 5.91146 11.8893 5.64597 11.8893Z" stroke="#343745" stroke-width="1.13" stroke-miterlimit="10" stroke-linecap="round" stroke-linejoin="round"/>
<path d="M4.91553 4.38938V2" stroke="#343745" stroke-width="1.13" stroke-miterlimit="10" stroke-linecap="round" stroke-linejoin="round"/>
<path d="M12.0835 2V4.38938" stroke="#343745" stroke-width="1.13" stroke-miterlimit="10" stroke-linecap="round" stroke-linejoin="round"/>
</svg>
