<svg width="18" height="18" viewBox="0 0 18 18" fill="none" xmlns="http://www.w3.org/2000/svg">
<rect width="18" height="18" fill="white"/>
<path d="M9.47336 1.99565L11.324 5.92415C11.401 6.08727 11.5495 6.20033 11.7217 6.22677L15.86 6.85677C16.2931 6.92258 16.4658 7.48002 16.1525 7.80008L13.1577 10.8578C13.0334 10.985 12.9766 11.1678 13.0059 11.3472L13.7129 15.665C13.7866 16.1166 13.3344 16.4615 12.9468 16.2477L9.24555 14.2092C9.09198 14.1243 8.90805 14.1243 8.75448 14.2092L5.05323 16.2477C4.66623 16.4609 4.21342 16.1166 4.28711 15.665L4.99417 11.3472C5.02342 11.1678 4.96661 10.985 4.8423 10.8578L1.84755 7.80008C1.53423 7.48002 1.70692 6.92258 2.14005 6.85677L6.27836 6.22677C6.45048 6.20033 6.59898 6.08727 6.67605 5.92415L8.52667 1.99565C8.72017 1.58446 9.27929 1.58446 9.47336 1.99565Z" stroke="#343745" stroke-width="1.125" stroke-miterlimit="10" stroke-linecap="round" stroke-linejoin="round"/>
</svg>
